<!-- Generator: Adobe Illustrator 25.2.1, SVG Export Plug-In  -->
<svg version="1.1" xmlns="http://www.w3.org/2000/svg" xmlns:xlink="http://www.w3.org/1999/xlink" x="0px" y="0px"
	 width="942.52px" height="446.59px" viewBox="0 0 942.52 446.59"
	 style="overflow:visible;enable-background:new 0 0 942.52 446.59;" xml:space="preserve">
<style type="text/css">
	.st0{fill:#FFE7CD;}
	.st1{fill:none;stroke:#5D3E4B;stroke-width:20;stroke-linecap:round;stroke-miterlimit:10;}
	.st2{fill:#A0C7EA;}
	.st3{fill:none;stroke:#434F57;stroke-width:20;stroke-linecap:round;stroke-miterlimit:10;}
	.st4{fill:#DC95B2;}
	.st5{fill:none;stroke:#996F7B;stroke-width:20;stroke-linecap:round;stroke-miterlimit:10;}
	.st6{fill:none;}
	.st7{fill:#5D3E4B;}
	.st8{font-family:'OPPOSans-B';}
	.st9{font-size:28px;}
</style>
<defs>
</defs>
<g>
	<g>
		<path class="st0" d="M180.77,387.18H39.74C17.79,387.18,0,369.39,0,347.44V39.74C0,17.79,17.79,0,39.74,0h141.03
			c21.95,0,39.74,17.79,39.74,39.74v307.69C220.51,369.39,202.72,387.18,180.77,387.18z"/>
		<path class="st1" d="M102.22,135.84c31.89,0,57.75,25.86,57.75,57.75s-25.86,57.75-57.75,57.75c-16.38,0-31.16-6.82-41.67-17.77"
			/>
	</g>
	<path class="st2" d="M541.77,387.18H400.75c-21.95,0-39.74-17.79-39.74-39.74V39.74C361,17.79,378.8,0,400.75,0h141.03
		c21.95,0,39.74,17.79,39.74,39.74v307.69C581.52,369.39,563.72,387.18,541.77,387.18z"/>
	<path class="st3" d="M463.22,135.84c31.89,0,57.75,25.86,57.75,57.75s-25.86,57.75-57.75,57.75c-16.38,0-31.16-6.82-41.67-17.77"/>
	<path class="st4" d="M902.77,387.18H761.75c-21.95,0-39.74-17.79-39.74-39.74V39.74C722.01,17.79,739.8,0,761.75,0h141.03
		c21.95,0,39.74,17.79,39.74,39.74v307.69C942.52,369.39,924.72,387.18,902.77,387.18z"/>
	<path class="st5" d="M824.22,135.84c31.89,0,57.75,25.86,57.75,57.75s-25.86,57.75-57.75,57.75c-16.38,0-31.16-6.82-41.67-17.77"/>
	<rect x="26.01" y="413.05" class="st6" width="170.46" height="31.04"/>
	<text transform="matrix(1 0 0 1 26.0122 436.846)" class="st7 st8 st9">咖啡燕麦口味</text>
	<rect x="370.05" y="413.05" class="st6" width="202.42" height="31.04"/>
	<text transform="matrix(1 0 0 1 370.0496 436.8465)" class="st7 st8 st9">土耳其榛子口味</text>
	<rect x="732.53" y="413.05" class="st6" width="199.46" height="31.04"/>
	<text transform="matrix(1 0 0 1 732.5317 436.8465)" class="st7 st8 st9">香草冰淇淋口味</text>
</g>
</svg>
