<!-- Generator: Adobe Illustrator 25.2.1, SVG Export Plug-In  -->
<svg version="1.1" xmlns="http://www.w3.org/2000/svg" xmlns:xlink="http://www.w3.org/1999/xlink" x="0px" y="0px"
	 width="347.79px" height="181.98px" viewBox="0 0 347.79 181.98"
	 style="overflow:visible;enable-background:new 0 0 347.79 181.98;" xml:space="preserve">
<style type="text/css">
	.st0{fill:#5D3E4B;}
</style>
<defs>
</defs>
<g>
	<path class="st0" d="M121.49,139.16c-0.24,0.4-0.48,0.8-0.72,1.2c-0.11,0.24-0.27,0.45-0.44,0.65c-0.62,0.74-0.63,1.16,0.51,1.26
		c2.45,0.23,4.07,1.65,4.59,4.19c0.55,2.68,0.56,5.38,0.23,8.13c-0.38,3.14-0.88,6.24-1.8,9.26c-0.77,2.52-1.74,4.96-3.06,7.24
		c-3.54,6.48-12.23,10.17-15.73,8.5c1.17-1.11,2.68-1.64,3.87-2.68c3.52-3.09,4.95-7.2,5.9-11.56c1.31-5.99,1.36-12.12,2.13-18.18
		c0.05-0.39,0.24-0.97-0.17-1.17c-0.58-0.29-0.75,0.39-1.04,0.71c-3.78,4.16-8.33,7-13.89,8.12c-2.77,0.56-5.15-1.22-4.81-3.6
		c0.26-1.78,2.25-3.89,4.06-4.17c2.43-0.37,4.65-1.24,6.7-2.58c3.38-2.34,6.04-5.38,8.38-8.7c1.21-1.72,2.43-3.43,3.38-5.32
		c0.81-1.59,0.73-1.81-1.13-1.81c-7.33-0.01-14.67,0-22-0.01c-0.53,0-1.06,0.04-1.58-0.06c-1.5-0.29-2.02-0.89-1.94-2.19
		c0.08-1.25,0.77-1.78,2.25-1.86c8.16-0.45,16.33-0.36,24.5-0.26c2.26,0.03,3.58-0.83,4.39-2.8c0.28-0.68,0.68-1.31,0.97-1.99
		c0.41-0.99,0.1-1.52-0.98-1.58c-1.37-0.07-2.74-0.02-4.11-0.02c-3.48,0-6.96,0.03-10.45-0.01c-2.89-0.04-3.72-1.57-2.29-4.08
		c1.95-0.95,4.05-0.68,6.07-0.53c4.07,0.3,8.12-0.04,12.17-0.19c1.18-0.05,2.07-0.64,2.64-1.73c0.77-1.46,1.1-3.07,1.66-4.6
		c0.38-1.05-0.41-0.97-1.05-0.97c-2.38,0-4.75,0.01-7.13,0.01c-4.91,0-9.82,0.02-14.73-0.02c-2.35-0.02-3.16-0.68-3.23-2.36
		c-0.06-1.52,0.59-2.26,2.14-2.27c4.01-0.02,8.03-0.01,12.04-0.01c5.49,0,10.98-0.05,16.47,0.03c1.34,0.02,2.17-0.49,2.91-1.48
		c2.31-3.08,3.6-6.6,4.58-10.26c0.7-2.62,1.48-5.21,4.15-6.58c3.28-1.68,7.21,0.84,7.02,4.51c-0.19,3.7-2.21,6.51-4.56,9.14
		c-1.2,1.34-2.57,2.49-4.15,3.38c-0.47,0.27-0.9,0.63-1.66,1.18c3.39,0,6.38,0.15,9.34-0.06c1.62-0.11,2.9-1.3,3.68-2.73
		c1.74-3.18,4.93-2.41,6.69-0.39c1.4,1.61,1.07,3.53,0.42,5.4c-0.54,1.55-1.75,2.17-3.23,2.39c-0.73,0.11-1.47,0.14-2.21,0.13
		c-6.23-0.06-12.46,0.17-18.68-0.13c-2.83-0.14-3.17,0.16-4.18,2.81c-0.45,1.17-0.82,2.38-1.25,3.56c-0.31,0.85,0.04,1.17,0.87,1.17
		c4.7-0.03,9.4-0.02,14.1-0.09c1.45-0.02,2.12-1.25,2.86-2.25c1.48-1.99,2.41-2.42,4.37-1.89c1.91,0.52,2.88,2.07,2.84,4.53
		c-0.03,2.23-1.06,3.73-2.95,4.14c-0.87,0.19-1.78,0.24-2.67,0.24c-6.07,0.02-12.14,0.05-18.22-0.02c-1.68-0.02-2.61,0.63-3.22,2.17
		c-1.67,4.23-1.71,4.22,2.78,4.21c8.87-0.01,17.74-0.11,26.61,0c2.49,0.03,4.4-0.7,6.02-2.5c0.81-0.9,1.71-1.74,2.97-1.97
		c1.57-0.29,2.81,0.24,3.62,1.63c0.95,1.63,1.11,3.33-0.06,4.9c-1.11,1.5-2.55,2.43-4.56,2.42c-7.39-0.03-14.78,0.01-22.18,0.04
		c-0.59,0-1.42-0.29-1.69,0.45c-0.27,0.72,0.51,1.09,0.95,1.5c3.96,3.73,7.97,7.41,13.14,9.42c2.98,1.16,6.07,2.04,9.1,3.06
		c1.75,0.59,3.33,1.49,4.82,2.59c2.24,1.66,2.85,5.54,1.8,7.95c-0.54,1.25-1.62,1.86-3.01,1.95c-3.65,0.26-6.78-1.27-9.85-2.89
		c-3.32-1.76-6.37-3.91-8.96-6.66c-0.28-0.3-0.55-0.75-1.03-0.6c-0.54,0.17-0.34,0.71-0.33,1.1c0.12,5.91-0.1,11.81,0.14,17.72
		c0.16,3.89-0.11,7.8-0.2,11.7c-0.02,1.08-0.38,2.07-0.96,2.98c-1.3,1.11-2.66,1.97-4.43,0.97l0,0c-1.31-0.45-1.92-1.52-2.03-2.76
		c-0.28-3.25-0.32-6.51-0.39-9.77c-0.02-1.1-0.07-2.21-0.07-3.31c-0.01-6.58-0.04-13.16,0.4-19.72c0.14-2.08,1.04-2.99,3.02-3.4
		c0.57-0.12,1.05-0.21,0.94-0.95l0,0c-2.42-3.22-4.92-6.4-6.93-9.91c-0.65-1.13-1.81-1.42-2.98-1.47c-2.1-0.09-4.21-0.13-6.31,0
		c-2.21,0.14-3.96,1.33-5.26,3.06C124.46,134.11,123.25,136.81,121.49,139.16z"/>
	<path class="st0" d="M53.3,105.86c-1.66-0.94-1.91-2.47-1.89-4.2c0.04-3.98,0-3.98-4-3.98c-4.53,0-9.07,0.04-13.6-0.03
		c-1.32-0.02-1.83,0.41-1.7,1.72c0.08,0.84-0.1,1.7,0.03,2.52c0.65,3.9-4.16,5.76-7.04,3.96c-1.43-0.85-1.86-2.21-1.9-3.76
		c-0.02-0.95,0-1.9-0.01-2.85c-0.02-1.77-0.16-1.93-1.89-1.94c-4.07-0.01-8.13,0-12.2,0c-0.42,0-0.85,0.02-1.27-0.01
		c-1.74-0.12-2.56-0.95-2.54-2.57c0.02-1.54,0.95-2.47,2.63-2.48c4.12-0.03,8.24-0.01,12.36-0.01c0.58,0,1.16-0.05,1.73-0.08
		c0.87-0.05,1.21-0.43,1.19-1.28c-0.03-1.32-0.05-2.64,0.01-3.96c0.09-2.31,1.19-3.68,3.2-4.08c2.54-0.51,4.61,0.33,5.53,2.25
		c0.55,1.16,0.26,2.39,0.28,3.59c0.04,3.26,0.01,3.26,3.28,3.26c4.7,0,9.4,0.01,14.1,0c1.71,0,1.8-0.09,1.81-1.79
		c0.01-1.21-0.02-2.43,0.01-3.64c0.04-1.8,1.2-3.23,2.96-3.6c1.63-0.34,3.23-0.4,4.61,0.82c0.88,0.78,1.38,1.65,1.31,2.89
		c-0.08,1.31-0.04,2.64,0,3.96c0.03,0.95,0.44,1.45,1.47,1.37c1.68-0.13,3.35,0.11,5.04-0.2c1.97-0.37,3.15-1.63,4.05-3.21
		c1.19-2.1,2.28-2.84,4.23-2.58c2.22,0.3,3.98,1.9,4.36,3.98c0.82,4.4-1.6,7.29-6.27,7.38c-3.48,0.06-6.97,0.01-10.46,0.01
		c-2.4,0-2.4,0-2.44,2.48c-0.01,0.63,0,1.27,0,1.9C60.27,105.83,57.04,107.76,53.3,105.86z"/>
	<path class="st0" d="M44.59,115.31c-8.92,0-17.85,0.05-26.77-0.04c-1.64-0.02-2.14,0.6-2.19,2.06c-0.06,1.74-0.38,3.44-0.87,5.13
		c-1.37,4.68-4.51,6.67-9.36,5.8c-1.24-0.22-2.46-0.52-3.53-1.3c-2.15-1.56-2.48-3.82-0.79-5.85c0.99-1.2,2.22-2.12,3.61-2.76
		c3.74-1.73,5.83-4.69,6.69-8.63c0.03-0.15,0.04-0.32,0.1-0.46c0.28-0.8,0.52-1.8,1.43-1.94c1.04-0.16,1.13,0.96,1.4,1.64
		c0.61,1.58,1.74,2.05,3.35,2.05c18.43-0.02,36.85,0,55.28,0.02c0.91,0,1.6-0.15,2.11-1.03c0.77-1.3,2.07-1.27,3.22-0.76
		c2.07,0.91,4.08,1.94,6.06,3.03c2.15,1.18,2.25,2.56,0.4,4.19c-0.51,0.45-1.08,0.85-1.68,1.16c-2.16,1.13-4.12,2.54-5.93,4.17
		c-0.66,0.6-1.41,1.1-2.17,1.58c-0.66,0.41-1.44,0.44-2.12,0.09c-0.76-0.39-0.62-1.19-0.52-1.84c0.23-1.45,0.51-2.9,0.84-4.33
		c0.42-1.85,0.36-1.96-1.6-1.96C62.54,115.31,53.56,115.31,44.59,115.31z"/>
	<path class="st0" d="M210.17,84.03c1.3,0.15,2.45-0.53,3.62-0.85c2.36-0.65,4.79-0.89,7.14-0.9c2.18-0.01,4.43,0.41,6.64,0.93
		c3.9,0.91,7.35,2.61,10.53,4.93c4.46,3.26,7.86,7.4,10.06,12.48c1.68,3.88,2.62,7.98,2.5,12.18c-0.16,5.56-1.64,10.82-4.62,15.59
		c-0.16,0.25-0.47,0.4-0.71,0.6c-0.5-0.66-0.09-1.21,0.23-1.74c2.62-4.35,3.95-9.11,4.04-14.14c0.15-7.76-2.4-14.59-7.7-20.33
		c-4.45-4.82-9.93-7.99-16.34-9.01c-5.27-0.83-10.62-0.57-15.7,1.62c-7.88,3.4-13.33,9.1-16.4,17.1c-1.28,3.33-0.9,3.85,2.66,3.57
		c1.29-0.1,1.81-0.89,2.18-1.95c1.62-4.58,4.52-8.23,8.38-11.07c7.82-5.76,17.97-6.31,26.29-1.01c6.49,4.13,10.37,10.03,11.39,17.61
		c0.84,6.18-0.9,11.86-4.5,16.88c-4.54,6.35-10.93,9.72-18.63,9.8c-9.36,0.1-16.65-4.04-21.41-12.27c-1.16-2.01-3.47-2.89-5.59-2.13
		c-0.96,0.34-0.56,1.01-0.32,1.55c1.12,2.51,2.43,4.93,4.19,7.06c4.23,5.1,9.37,8.78,15.99,10.14c1.91,0.39,2.5,1.11,2.53,3.04
		c0.03,1.64,0.04,3.27,0,4.91c-0.05,1.89-0.47,2.34-2.37,2.36c-5.49,0.04-10.98,0.01-16.47,0.01c-3.8,0-7.6,0-11.4,0
		c-0.47,0-0.95-0.03-1.42,0.06c-1.07,0.2-1.7,0.88-1.78,1.94c-0.08,1.03,0.58,1.66,1.49,2c0.66,0.25,1.36,0.17,2.04,0.17
		c8.82,0,17.63,0,26.45,0c0.63,0,1.27-0.02,1.9,0.06c0.92,0.11,1.45,0.63,1.51,1.55c0.11,1.74,0.13,3.48-0.02,5.22
		c-0.03,0.31,0.1,1.38-0.83,0.55c0-1.59-0.06-3.17,0.02-4.75c0.07-1.19-0.39-1.57-1.54-1.56c-3.32,0.05-6.65,0.02-9.97,0.02
		c-6.23,0-12.45,0-18.68,0c-0.68,0-1.38,0.1-2-0.31c-1.14-0.97-1.73-3.47-1.07-4.67c0.5-0.91,1.35-1.02,2.3-1.02
		c9.36,0.02,18.73,0.01,28.09,0c0.68,0,1.37-0.03,2.05-0.04c0.63-1.01,0.25-2.13,0.3-3.19c0.07-1.19,0.01-2.39,0.02-3.58
		c0-0.59,0-1.16-0.64-1.45c-10.34-2.72-17.85-8.74-21.85-18.81c-0.77-1.94-0.43-2.37,1.59-2.39c0.53,0,1.07,0.09,1.58-0.01
		c2.54-0.5,3.82,0.86,4.92,2.92c3.24,6.09,8.46,9.92,15.08,11.17c11.73,2.21,22.3-3.67,26.34-14.82c3.25-8.98,0.56-19.17-7.31-25.45
		c-4.2-3.34-8.95-5.09-14.25-5.15c-9.52-0.11-18.26,6.05-21.52,14.98c-0.88,2.4-1.31,2.71-3.76,2.71c-4.5,0-4.56-0.04-3.09-4.27
		c3.01-8.68,8.72-14.85,17.28-18.32C209.81,84.45,209.98,84.2,210.17,84.03z"/>
	<path class="st0" d="M183.54,155.91c10.12,0.01,20.23,0.04,30.35-0.02c1.54-0.01,2.04,0.46,1.95,1.97
		c-0.1,1.67,0.04,3.36,0.08,5.04c0.54,0.63,0.41,1.39,0.42,2.12c0.02,3.22,0.01,6.44,0.01,9.65c0,0.79,0.01,1.58,0.18,2.36
		c0.47,2.2,1.93,3.39,4.14,3.37c2.52-0.02,3.64-0.98,4.08-3.5c0.15-0.84,0.14-1.68,0.14-2.52c0-5.33,0-10.66,0-15.98
		c0-2.99,0.29-3.29,3.23-3.29c8.13-0.01,16.25-0.01,24.38,0.01c1.45,0,2.84-0.2,4.2-0.65c1.45-0.48,2.28-1.48,2.37-3.02
		c0.09-1.5-0.18-2.95-0.77-4.32c-0.66-1.54-1.9-2.35-3.5-2.66c-1.36-0.27-2.37,0.19-3.03,1.43c-0.47,0.88-0.84,1.84-1.5,2.6
		c-0.61,0.7-1.21,1.53-2.37,1.14c0,0-0.07-0.07-0.07-0.07c0.15-0.76,0.48-1.5,1.14-1.83c1.22-0.61,1.55-1.79,2.02-2.85
		c0.78-1.8,2.19-2.52,4.12-1.93c3.96,1.23,4.87,2.64,5.51,6.79c0.36,2.34,0.02,4.24-1.73,5.68c-1.31,1.08-3.09,1.37-4.74,1.4
		c-8.75,0.17-17.49-0.48-26.24-0.32c-1.49,0.03-1.98,0.36-1.96,1.91c0.09,6.12-0.04,12.24,0.08,18.35c0.05,2.48-2.44,4.82-5.44,4.87
		c-2.83,0.04-5.13-2.47-5.09-4.82c0.1-6.12-0.01-12.24,0.07-18.35c0.02-1.49-0.35-1.97-1.9-1.96c-9.39,0.07-18.78,0.04-28.18,0.03
		C184.8,156.54,183.98,156.8,183.54,155.91z"/>
	<path class="st0" d="M53.3,105.86c1.96,0.43,3.93,0.94,5.65-0.69c0.69-0.66,1.08-1.37,1.04-2.36c-0.04-1.32,0-2.64,0.05-3.95
		c0.04-1.33,0.62-1.9,2.08-1.86c3.85,0.1,7.71,0.06,11.56-0.01c2.38-0.04,4.32-0.97,5.26-3.32c0.77-1.93,0.58-3.84-0.56-5.54
		c-1.07-1.6-2.75-2.05-4.6-1.89c-1.37,0.12-2.16,1.16-2.67,2.22c-1.27,2.65-3.36,3.78-6.2,3.79c-0.9,0-1.79,0.01-2.69,0.01
		c-1.89-0.01-2.16-0.26-2.23-2.19c-0.04-1.05,0-2.11-0.01-3.17c-0.01-2.63-1.3-3.88-4.01-3.9c-2.9-0.02-4.22,1.18-4.25,3.85
		c-0.01,1.21-0.03,2.43,0,3.64c0.03,1.19-0.48,1.73-1.7,1.73c-5.54-0.02-11.09-0.03-16.63,0c-1.06,0.01-1.39-0.47-1.37-1.44
		c0.03-1.37,0.03-2.74-0.01-4.12c-0.05-2.1-1.5-3.56-3.56-3.66c-3.24-0.15-4.57,0.67-4.83,3.18c-0.16,1.52-0.09,3.06-0.06,4.59
		c0.02,0.96-0.31,1.51-1.33,1.55c-0.68,0.03-1.36,0.17-2.04,0.18c-4.01,0.03-8.02,0.03-12.04,0.06c-1.82,0.01-2.68,0.72-2.7,2.15
		c-0.02,1.5,0.87,2.28,2.76,2.29c4.38,0.02,8.76,0,13.14,0.01c1.97,0,2.18,0.22,2.19,2.18c0,0.69,0.03,1.37-0.01,2.06
		c-0.1,1.74,0.15,3.36,1.55,4.59c-1.68-0.47-1.99-1.87-2.17-3.29c-0.11-0.88-0.02-1.79-0.03-2.69c0-2.22,0-2.22-2.15-2.22
		c-3.96,0-7.92,0.01-11.88-0.01c-0.58,0-1.17-0.03-1.72-0.16c-1.74-0.42-2.31-1.39-2-3.49c0.21-1.44,1.3-2.01,2.6-2.03
		c4.44-0.06,8.87-0.11,13.31-0.03c1.42,0.02,2.04-0.32,1.87-1.83c-0.12-1.1-0.06-2.22-0.01-3.32c0.12-2.41,1.44-3.8,4.13-4.43
		c1.71-0.39,4.15,0.83,5.06,2.48c0.25,0.45,0.26,0.9,0.26,1.37c0.01,1.21,0.09,2.44-0.02,3.64c-0.13,1.38,0.32,1.81,1.75,1.79
		c5.12-0.09,10.25-0.08,15.37,0c1.36,0.02,1.66-0.45,1.68-1.72c0.02-1.81-0.47-3.68,0.54-5.41c0.83-1.42,3.27-2.54,4.88-2.12
		c2.95,0.77,3.99,1.87,4,4.23c0,0.42,0,0.84,0,1.27c0,3.77,0,3.68,3.71,3.77c3.11,0.08,5.34-1.03,6.72-3.91
		c0.77-1.61,2.48-2.38,4.03-2.14c2.16,0.34,4.15,2,4.57,3.83c1.11,4.77-1.5,8.06-6.6,8.18c-3.64,0.08-7.29,0.07-10.93,0.01
		c-1.19-0.02-1.61,0.34-1.52,1.53c0.09,1.26-0.03,2.53,0.03,3.8c0.08,1.8-1.2,2.82-2.46,3.36C56.6,106.96,54.77,107.36,53.3,105.86z
		"/>
	<path class="st0" d="M107.19,113.8c-0.1,0.46-0.23,0.91-0.3,1.38c-0.26,1.57,0.41,2.37,2.01,2.37c4.96,0.01,9.92,0.01,14.87,0.02
		c1.84,0.01,2.18,0.55,1.38,2.18c-0.46,0.94-1.01,1.84-1.41,2.8c-0.68,1.63-1.97,2.02-3.57,2.02c-6.33-0.01-12.66-0.04-18.99,0.02
		c-2.15,0.02-4.3,0.34-6.46,0.27c-0.94-0.03-1.46,0.49-1.51,1.45c-0.05,0.9-0.01,1.66,1.2,1.81c0.73,0.09,1.45,0.22,2.19,0.22
		c7.33,0,14.66,0.01,21.99,0.03c0.6,0,1.33-0.24,1.73,0.46c0.39,0.69-0.18,1.13-0.49,1.68c-2.21,3.9-4.69,7.61-7.9,10.76
		c-1.24,1.22-2.27,2.79-4.14,3.24c4.09-3.53,7.64-7.52,10.4-12.18c0.58-0.97,1.82-2.08,1.39-2.97c-0.42-0.89-2.01-0.33-3.08-0.34
		c-6.7-0.05-13.4-0.04-20.1-0.06c-0.53,0-1.06,0.02-1.58-0.03c-1.51-0.15-2.35-1.08-2.28-2.48c0.06-1.24,1.04-2.2,2.38-2.23
		c3.85-0.1,7.69-0.21,11.54-0.24c4.43-0.04,8.86-0.09,13.29,0.03c2.05,0.05,3.22-0.79,4.06-2.57c1.53-3.23,1.58-3.2-2.06-3.21
		c-4.11-0.01-8.23,0.01-12.34-0.05c-2.46-0.03-3.31-0.87-3.18-2.87C106.29,114.6,106.52,114.08,107.19,113.8z"/>
	<path class="st0" d="M191.8,110.95c0.28-0.81,0.98-0.68,1.6-0.68c9.13-0.01,18.26-0.02,27.38,0c2.08,0,3.55,1.5,3.59,3.78
		c0.07,3.59,0.06,7.17,0.01,10.76c-0.03,2.12-1.87,3.91-3.82,3.87c-1.98-0.04-3.45-1.69-3.46-3.92c-0.01-2-0.07-4.01,0.02-6.01
		c0.05-1.2-0.36-1.52-1.53-1.51c-7.12,0.05-14.25,0.02-21.37,0.02c-2.86,0-4.27-1.52-4.05-4.32
		C190.25,111.88,190.69,111.16,191.8,110.95c0.13,0.63-0.29,1.1-0.47,1.64c-0.61,1.78,0.23,3.19,2.07,3.47
		c0.63,0.1,1.26,0.07,1.9,0.07c6.54,0,13.08-0.01,19.62,0.01c2.62,0.01,3,0.4,3.02,3.04c0.01,1.48,0,2.95,0.01,4.43
		c0,0.58,0.03,1.16,0.2,1.72c0.41,1.33,1.47,2.19,2.61,2.13c1.26-0.06,2.22-1.01,2.44-2.49c0.18-1.2,0.08-2.42,0.08-3.63
		c0.01-2.16,0.05-4.32-0.01-6.48c-0.07-2.62-1.2-3.74-3.83-3.74c-8.81,0-17.62-0.08-26.42,0.04
		C192.6,111.17,192.17,111.25,191.8,110.95z"/>
	<path class="st0" d="M147.71,140.09c0.7,0.96,0.05,1.12-0.72,1.22c-2.1,0.29-3.12,1.31-3.06,3.4c0.08,3-0.28,5.98-0.09,8.98
		c0.15,2.41-0.18,4.84-0.17,7.26c0.03,5.15,0.16,10.3,0.23,15.45c0.02,1.55,0.8,2.65,1.92,3.59c-1.52-0.12-1.92-1.29-2.22-2.46
		c-0.71-2.78-0.42-5.66-0.52-8.48c-0.22-6-0.15-12.01-0.03-18.02c0.05-2.24,0.07-4.51,0.42-6.75c0.32-2.01,1.34-3.25,3.36-3.6
		C147.25,140.62,147.52,140.43,147.71,140.09z"/>
	<path class="st0" d="M120.78,171.11c0.82-2.53,2.17-4.86,2.87-7.44c1.47-5.47,2.41-10.98,1.59-16.66c-0.42-2.9-2.03-4.35-4.87-4.42
		c-0.34-0.01-0.8,0.18-0.98-0.26c-0.16-0.38,0.13-0.71,0.36-0.98c0.3-0.35,0.67-0.65,1.01-0.98c0.16,0.54-0.44,0.81-0.48,1.42
		c1.86-0.03,3.25,0.89,4.36,2.28c1.15,1.43,1.39,3.21,1.45,4.91c0.27,7.49-1.17,14.64-4.59,21.36
		C121.34,170.67,121.19,171,120.78,171.11z"/>
	<path class="st0" d="M121.49,139.16c1.99-3.33,3.4-7.06,6.69-9.5c1.19-0.89,2.53-1.29,3.95-1.3c2.2-0.02,4.4-0.13,6.61,0.22
		c0.94,0.15,1.62,0.57,2.06,1.28c2.07,3.35,4.39,6.52,6.77,9.64c0.11,0.15,0.11,0.39,0.16,0.59c-1.8-1.43-2.86-3.45-4.18-5.25
		c-0.87-1.18-1.76-2.37-2.42-3.67c-0.8-1.56-1.97-2.21-3.67-2.17c-1.47,0.03-2.95,0.01-4.42-0.06c-3.49-0.16-5.82,1.59-7.59,4.4
		C124.17,135.32,123.35,137.6,121.49,139.16z"/>
	<path class="st0" d="M127.45,98.92c-4.29-0.97-7.46-3.3-8.93-7.55c-0.56-1.62-1.15-3.37,0.07-4.97c0.94-1.24,2.22-1.98,3.84-1.66
		c1.77,0.34,2.8,1.62,3.41,3.19c0.55,1.41,0.87,2.91,1.38,4.35c0.45,1.27,1.01,2.51,1.52,3.76c-0.14,0.1-0.29,0.13-0.45,0.07
		c-1.78-1.62-2.17-3.9-2.8-6.05c-0.33-1.12-0.69-2.22-1.41-3.15c-0.88-1.14-2.05-1.46-3.37-0.98c-1.3,0.47-1.77,1.52-1.67,2.75
		c0.27,3.41,1.71,6.12,4.82,7.83c1.23,0.67,2.67,0.94,3.71,1.96C127.6,98.65,127.56,98.79,127.45,98.92z"/>
	<path class="st0" d="M214.59,141.96c0.52-0.01,0.96,0.08,0.95,0.74c-0.01,2.31,0,4.63-0.01,6.94c0,0.39-0.26,0.53-0.62,0.54
		c0-2.14,0-4.27,0-6.41C214.92,143.15,214.93,142.53,214.59,141.96z"/>
	<path class="st0" d="M127.45,98.92c0-0.13,0.01-0.25,0.01-0.38c0.45-0.52,1.11-0.13,1.65-0.39c0.09-0.81-1.01-1.23-0.72-2.1
		c0.12,0,0.23,0,0.35-0.01c0.21,0.22,0.49,0.41,0.61,0.67c0.34,0.78,1.87,1.33,0.99,2.27C129.7,99.66,128.41,99.41,127.45,98.92z"/>
	<path class="st0" d="M145.83,180c1.65,0.49,3.06-0.13,4.43-0.97C149.16,180.75,147.26,181.17,145.83,180z"/>
	<path class="st0" d="M247.91,149.63c1.72-0.47,2.39-1.91,3.09-3.33c0.61-1.23,1.17-2.5,2.9-2.45c1.99,0.05,3.64,0.78,4.63,2.5
		c1.02,1.79,1.22,3.81,0.99,5.83c-0.16,1.38-1.11,2.35-2.35,2.74c-1.44,0.45-2.93,0.76-4.49,0.75c-8.44-0.05-16.88-0.01-25.32,0
		c-2,0-1.99,0.01-2,2.05c0,5.7-0.01,11.39-0.02,17.09c0,0.47,0.01,0.95-0.02,1.42c-0.18,3.34-1.59,4.72-4.81,4.69
		c-2.89-0.03-4.53-1.72-4.56-4.87c-0.05-4.38-0.02-8.75-0.03-13.13c0.54-2.18,0.24-4.39,0.17-6.58c-0.03-0.95-0.98-0.77-1.64-0.77
		c-4.8-0.01-9.61-0.01-14.41-0.01c-4.91,0-9.82-0.02-14.73,0.01c-1.37,0.01-2.22-0.69-2.6-1.88c-0.36-1.12,0.18-2.02,1.07-2.77
		c0.57-0.48,1.2-0.34,1.81-0.34c9.45-0.01,18.9-0.01,28.35-0.01c2.21,0,2.21-0.01,2.21-2.17c0-1.64-0.1-3.28,0.03-4.91
		c0.13-1.53-0.7-2.14-1.93-2.39c-8.56-1.68-14.57-6.82-19.07-14c-0.77-1.23-1.35-2.6-1.95-3.93c-0.56-1.24-0.2-1.67,1.11-1.82
		c2.96-0.35,5,0.29,6.52,3.35c2.4,4.84,6.73,7.96,11.73,9.78c3.54,1.29,7.28,1.77,11.16,1.19c7.09-1.06,12.57-4.53,16.48-10.44
		c7.08-10.71,4.07-25.06-6.58-32.26c-4.05-2.74-8.47-4.25-13.3-4.16c-9.62,0.17-18.35,6.29-21.65,15.57
		c-0.54,1.53-1.32,2.33-2.98,2.11c-0.31-0.04-0.63-0.01-0.95-0.01c-2.92,0-3.06-0.18-2.16-2.9c3.05-9.21,9.06-15.8,18.18-18.98
		c9.45-3.29,18.53-2.06,26.84,3.83c3.94,2.8,7.05,6.31,9.24,10.6c2.52,4.91,3.45,10.11,3.04,15.65c-0.36,4.93-1.82,9.4-4.45,13.54
		c-0.13,0.2-0.1,0.5-0.14,0.76c-3.21,4.56-7.23,8.16-12.32,10.5c-2.06,0.94-4.21,1.6-6.41,2.11c-0.9,0.21-1.21,0.63-1.19,1.52
		c0.04,1.95,0.03,3.9,0.01,5.85c-0.01,1.04,0.4,1.54,1.5,1.53c6.11-0.03,12.22-0.01,18.33-0.03
		C246.19,150.44,247.12,150.23,247.91,149.63z"/>
	<path class="st0" d="M276.69,141.3c-2.15,0.7-4.15,1.83-6.39,2.23c-2.51,0.44-5.04,1.16-7.73,0.05c0.97-1.25,2.42-1.34,3.59-1.91
		c5.26-2.56,9.88-6.02,14.23-9.87c5.14-4.55,9.85-9.55,14.62-14.48c2.49-2.57,5.1-5.07,8.48-6.49c3.67-1.55,6.95,0.22,6.73,4.12
		c-0.09,1.57,0.57,2.53,1.77,3.42c3.12,2.3,6.73,3.46,10.38,4.45c6.05,1.63,12.08,3.4,18.28,4.42c1.04,0.17,2.09,0.46,3.13,0.42
		c3.55-0.13,4.54,3.22,3.78,5.98c-0.78,2.81-3.54,4.71-6.52,4.89c-5.65,0.33-10.48-1.92-15.05-4.81
		c-6.48-4.1-12.55-8.75-17.54-14.64c-1.03-1.22-1.75-0.65-2.62,0.06c-3.38,2.78-6.78,5.53-10.15,8.33
		c-5.39,4.48-10.91,8.77-16.77,12.62C278.13,140.42,277.33,140.71,276.69,141.3z"/>
	<path class="st0" d="M255.76,82.73c2.01-0.1,2.93,0.86,3.4,2.15c0.5,1.36,0.1,2.71-1.09,3.53c-2.12,1.46-4.31,2.85-6.56,4.1
		c-1.48,0.82-3.24,0.15-4.13-1.28c-0.83-1.32-0.65-3,0.63-4c2.12-1.65,4.45-3,6.8-4.3C255.21,82.72,255.73,82.74,255.76,82.73z"/>
	<path class="st0" d="M280.17,107.1c-0.21,0.32-0.43,0.64-0.64,0.97c-2.11,1.36-4.39,2.11-6.93,1.91c-0.78-0.5-0.77-1.16-0.16-1.7
		c1.96-1.72,2.84-4.15,4.27-6.22c0.42-0.45,0.14-1.18,0.63-1.6c0.42-0.44,0.14-1.16,0.63-1.57c0.17-1.7,0.8-3.25,1.67-4.7
		c1.76-2.94,5.78-3.09,7.88-0.34c0.35,0.46,0.49,1.37,1.31,1.11c0.86-0.28,0.52-1.16,0.55-1.8c0.13-2.63,0.27-5.25,0.32-7.88
		c0.04-2.06,0.59-2.83,2.89-3.13c1.72-0.23,3.37,1.17,3.38,2.92c0.01,1.39,0.62,1.54,1.73,1.49c1.66-0.07,3.36,0.23,4.76-1.12
		c0.66-0.64,1.61-0.16,2.44-0.16c0.68,0.96,1.8,1.63,1.9,2.98c0.13,1.8-0.87,2.96-2.8,3.01c-2.15,0.06-4.3,0.01-6.45,0.03
		c-0.5,0-1.06-0.19-1.47,0.31c0.33,0.38,0.45,0.85,0.4,1.32c-0.13,1.44,0.61,1.77,1.9,1.74c0.96-0.02,1.83-0.42,2.76-0.49
		c0.89-0.43,1.43-1.93,2.79-0.89c1.48,1.14,1.92,2.65,1.5,4.13c-0.76,2.67-2.16,5.03-3.36,7.49c-2.77,4.76-6.25,8.95-10.3,12.67
		c-0.92,0.84-1.8,1.75-2.99,2.25c-0.12-0.13-0.18-0.28-0.17-0.46c0.25-0.89,1.07-1.27,1.7-1.81c6.13-5.24,10.63-11.66,13.78-19.05
		c0.41-0.96,0.53-1.95,0.3-2.94c-0.32-1.41-1.32-1.7-2.38-0.74c-1.03,0.94-4.91,1.42-6.15,0.76c-0.52-0.27-0.74-0.72-0.82-1.27
		c-0.07-0.52-0.06-1.05-0.06-1.58c0.03-2.1,0.41-2.5,2.5-2.52c2-0.02,4.01,0,6.01-0.01c0.93-0.01,1.84-0.11,2.13-1.22
		c0.26-0.97-0.09-1.76-0.87-2.37c-0.84-0.66-1.63-0.52-2.45,0.09c-1.94,1.43-4.14,0.9-6.26,0.71c-0.63-0.05-0.92-0.65-1.02-1.27
		c-0.07-0.42-0.05-0.84-0.16-1.25c-0.3-1.12-1.2-1.7-2.4-1.56c-1.12,0.13-1.74,0.72-1.68,1.88c0.13,2.69-0.5,5.36-0.34,8.05
		c0.02,0.37,0,0.74-0.06,1.1c-0.12,0.79-0.5,1.4-1.32,1.6c-0.74,0.18-1.34-0.11-1.82-0.68c-0.17-0.2-0.31-0.43-0.46-0.64
		c-1.07-1.42-2.57-1.79-4.23-1.61c-1.55,0.17-2.18,1.39-2.6,2.67c-0.92,2.79-1.47,5.7-2.99,8.3c-0.96,1.63-2,3.2-3.3,4.9
		c1.9-0.02,3.32-0.74,4.77-1.4C278.98,107.27,279.47,106.71,280.17,107.1z"/>
	<path class="st0" d="M234.87,81.35c0.38-1.82,0.78-4.15,1.37-6.43c0.34-1.34,2.21-2.19,3.61-1.87c1.47,0.34,2.65,1.73,2.48,3.21
		c-0.24,2.08-0.56,4.16-1.01,6.21c-0.42,1.88-2.06,2.96-3.7,2.68C235.96,84.88,234.84,83.54,234.87,81.35z"/>
	<path class="st0" d="M285.9,138.46c1.36-1.05,2.52-2.46,4.44-2.52c0.12,0.16,0.16,0.34,0.1,0.53c-0.36,0.59-1.02,0.71-1.57,0.99
		c-1.73,0.89-2.57,2.31-2.43,4.24c0.6,7.94,0.14,15.88,0.27,23.83c0.05,3.16,0.06,6.32-0.01,9.47c-0.04,1.85,0.74,3.33,1.61,4.86
		c0.63,1.1,1.78,0.96,2.69,1.41c-1.08,0.96-2.13,0.94-3-0.05c-0.27-0.31-0.52-0.62-0.79-0.93c0,0,0,0.02,0,0.02
		c-0.58-0.78-1.01-1.64-1.28-2.57c-0.43-1.54-0.38-3.11-0.39-4.69c-0.07-10.73-0.14-21.47-0.21-32.2
		C285.31,140,285.25,139.15,285.9,138.46z"/>
	<path class="st0" d="M288.74,119.46c0.01,0.12,0.02,0.24,0.02,0.37c-4.45,3.55-9.35,6.07-15.17,6.22
		c-1.44,0.04-2.59-0.79-3.03-2.33c-0.41-1.42-0.48-2.71,1.02-3.59c0.26-0.15,0.47-0.4,0.7-0.61c3.13-0.39,6.22-0.95,9.09-2.31
		c0.45-0.21,0.87-0.32,1.34-0.27c0.02,0.83-0.7,0.97-1.21,1.24c-2.17,1.15-4.57,1.52-6.94,2.02c-0.51,0.11-1.04,0.15-1.54,0.34
		c-1.41,0.53-1.86,1.37-1.54,2.84c0.25,1.11,1.16,1.74,2.52,1.63c3.61-0.3,7.06-1.12,10.12-3.18c1.13-0.76,2.41-1.3,3.46-2.19
		C287.91,119.37,288.3,119.14,288.74,119.46z"/>
	<path class="st0" d="M276.71,102.06c-0.62,2.39-2.09,4.26-3.69,6.05c-0.51,0.57-1.07,1.07-0.42,1.87c-0.93-0.11-1.33-0.95-0.79-1.4
		c2.06-1.72,2.7-4.4,4.51-6.26C276.42,102.21,276.58,102.14,276.71,102.06z"/>
	<path class="st0" d="M287.17,135.01c1.72-1.47,3.4-3,5.39-4.12C291.07,132.67,289.45,134.28,287.17,135.01z"/>
	<path class="st0" d="M285.91,177.73c0.57,0.78,1,1.64,1.28,2.57C286.33,179.66,285.8,178.86,285.91,177.73z"/>
	<path class="st0" d="M277.97,98.89c0,0.61,0.1,1.25-0.63,1.57C277.25,99.82,276.92,99.08,277.97,98.89z"/>
	<path class="st0" d="M317.27,107.76c-2.68,1.48-5.55,2.19-8.62,1.96c-0.43-0.03-1.09,0.2-1.15-0.48c-0.05-0.57,0.49-0.68,0.97-0.84
		c3.28-1.09,5.6-3.43,7.74-6c0.06-0.07,0.05-0.2,0.07-0.31c-1.55-2.33-3.96-3.55-6.28-4.88c-0.23-0.13-0.5-0.18-0.73-0.3
		c-0.29-0.15-0.61-0.37-0.57-0.69c0.06-0.45,0.49-0.48,0.87-0.49c2.07-0.05,4.11,0.11,6.02,0.97c0.43,0.19,0.87,0.36,1.3,0.54
		c2.85,1.17,4.18,0.82,5.93-1.66c0.48-0.69,1.01-1.35,1.38-2.11c0.51-1.06,0.18-1.73-0.99-1.84c-0.73-0.07-1.47,0.05-2.21,0.06
		c-3.27,0.07-6.54,0.08-9.81-0.09c-1.15-0.06-1.54-0.7-1.53-1.77c0.02-1.16,0.65-1.63,1.72-1.54c3.64,0.32,7.28,0.07,10.91,0.14
		c2.77,0.06,5.39-0.39,7.88-1.76c2.45-1.35,5.04,0.1,5.53,2.9c0.36,2.07-0.22,3.84-1.65,5.36c-2.14,2.27-4.51,4.28-6.91,6.26
		c-1.21,0.99-1.16,1.15,0.13,2c3.57,2.35,6.94,4.93,9.7,8.25c1.68,2.02,1.88,4.74,0.37,6.33c-1.62,1.71-5.03,1.88-6.96,0.38
		c-2.46-1.93-3.83-4.73-5.72-7.11c-1.01-1.28-2.06-2.53-3.04-3.83c-0.74-0.98-1.63-1.26-2.7-0.39
		C318.43,107.22,317.82,107.45,317.27,107.76z"/>
	<path class="st0" d="M317.27,107.76c2.98-2.55,3.65-1.86,5.32,0.29c1.97,2.53,3.79,5.18,5.81,7.67c1.31,1.62,2.59,3.26,5.12,3.19
		c1.87-0.06,3.35-0.6,4.23-2.2c0.96-1.74,0.35-3.5-0.8-4.86c-2.86-3.39-6.17-6.31-10.05-8.52c-1.32-0.75-1.38-1.26-0.21-2.17
		c2.46-1.9,4.86-3.88,6.97-6.17c1.44-1.57,2.38-3.37,1.71-5.6c-0.79-2.63-3.01-3.66-5.34-2.35c-2.23,1.25-4.61,1.74-7.1,1.69
		c-3.84-0.07-7.7,0.31-11.53-0.22c-0.8-0.11-1.43,0.21-1.46,1.22c-0.03,1.02,0.27,1.59,1.42,1.59c3.7-0.03,7.39-0.01,11.09,0
		c2.26,0.01,2.79,0.87,1.68,2.74c-0.45,0.77-0.97,1.51-1.55,2.19c-2.01,2.38-3.04,2.63-6.66,0.92c-2.26-1.07-4.51-1.23-7.27-1.04
		c1.48,0.88,2.74,1.53,3.9,2.33c1.44,0.99,3.1,1.8,3.72,3.64c-2.14-2.13-4.57-3.83-7.33-5.08c-1.44-0.65-1.38-0.86,0.13-1.88
		l-0.01-0.01c0.86,0.55,1.86,0.27,2.79,0.38c1.92,0.22,3.67,0.84,5.41,1.62c2.13,0.95,3.2,0.73,4.77-0.99
		c0.67-0.73,1.23-1.58,1.75-2.43c0.74-1.21,0.43-1.83-0.99-1.72c-2.53,0.2-5.06,0.21-7.59,0.18c-1.37-0.02-2.74-0.1-4.1-0.25
		c-1.25-0.13-1.87-0.92-1.77-2.17c0.09-1.19,0.74-1.73,1.99-1.71c3.8,0.06,7.6,0.05,11.4,0.06c2.61,0.01,5.08-0.42,7.42-1.75
		c2.59-1.48,5.61,0.39,5.85,3.37c0.19,2.31-0.45,4.18-2.16,5.8c-2.06,1.96-4.07,3.99-6.36,5.69c-0.93,0.69-1.13,1.15,0.05,1.91
		c3.54,2.3,6.93,4.78,9.6,8.13c1.72,2.16,1.96,5.1,0.4,6.75c-1.72,1.81-5.09,1.92-7.29,0.38c-2.16-1.5-3.22-3.87-4.8-5.82
		c-1.29-1.59-2.55-3.22-3.76-4.88c-0.81-1.11-1.62-1.59-2.85-0.57C318.41,107.48,317.94,107.94,317.27,107.76z"/>
	<path class="st0" d="M298.62,166.72c-1.22,1.3-3.06,1.47-4.48,2.41c-0.37,0.24-0.56-0.25-0.69-0.63c-0.34-1,0.07-1.98,0.01-2.98
		c-0.31-4.89-0.15-9.8-0.24-14.69c-0.03-1.44,0.4-1.94,1.87-1.93c7.54,0.06,15.08,0.07,22.62,0c1.61-0.01,1.82,0.72,1.78,2.03
		c-0.03,1.26,0.01,2.24-1.78,2.21c-6.38-0.08-12.76-0.03-19.14-0.03c-0.47,0-1-0.07-1.4,0.11c-0.93,0.43-1.54,1.22-1.33,2.28
		c0.19,1,0.95,1.41,1.99,1.4c6.33-0.02,12.66,0.03,18.99-0.03c1.37-0.01,2.34,0.41,3.03,1.55c-1.65-1.22-3.57-0.91-5.43-0.91
		c-5.91-0.01-11.82-0.01-17.73-0.01c-1.79-1.43-1.98-2.44-0.88-3.96c0.56-0.77,1.29-0.8,2.09-0.8c6.43,0,12.87-0.04,19.3,0.03
		c1.34,0.01,1.68-0.41,1.68-1.7c0-1.3-0.24-1.84-1.72-1.82c-7.12,0.08-14.24,0.06-21.36,0.01c-1.29-0.01-1.73,0.32-1.71,1.66
		c0.07,5.43,0.06,10.86,0.02,16.29c-0.01,1.29,0.28,1.48,1.36,0.74C296.4,167.31,297.43,166.79,298.62,166.72z"/>
	<path class="st0" d="M312.83,168.3c-2.03-1.79-4.08-3.55-6.08-5.38c-0.5-0.46-1.41-0.87-1.08-1.73c0.38-0.99,1.37-0.4,2.09-0.52
		c4.74,1.3,9.19,3.48,14.02,4.55c1.73,0.39,2.91-0.09,3.83-1.4c1.15-1.63,2.22-3.31,2.98-5.16c0.98-2.36,1.58-2.59,3.93-1.52
		c0.13,0.14,0.13,0.27,0.01,0.42c-0.23,0.15-0.5,0.2-0.76,0.14c-1.29-0.29-1.98,0.37-2.42,1.47c-0.69,1.73-1.72,3.26-2.79,4.77
		c-1.67,2.36-2.88,2.77-5.68,2.09c-3.29-0.8-6.42-2.1-9.61-3.2c-1.23-0.43-2.43-1.01-3.8-0.95c-0.1,0.6,0.38,0.74,0.67,0.99
		c2.93,2.58,5.85,5.16,8.93,7.58c0.48,0.38,1.12,0.69,0.97,1.49c-0.05,0.06-0.1,0.12-0.15,0.18
		C315.99,171.12,314.6,169.46,312.83,168.3z"/>
	<path class="st0" d="M332.48,157.52c0.01-0.13,0.02-0.25,0.03-0.38c4.08,2.44,3.79,6.61-0.67,9.21c-0.9,0.52-1.89,0.88-2.86,1.27
		c-0.32,0.13-0.63,0.25-0.65,0.59c-0.04,0.49,0.42,0.32,0.68,0.4c1.55,0.48,3.09,0.97,4.45,1.89c0.57,0.39,1.12,0.79,1.32,1.5
		c-0.06,0.05-0.12,0.11-0.17,0.16c-2.24-1.14-4.46-2.3-6.89-3c-0.91-0.26-0.94-1.19-0.15-1.84c0.53-0.44,1.23-0.59,1.84-0.88
		c0.71-0.33,1.44-0.64,2.11-1.07c3.19-2.08,3.54-4.11,1.22-7.13C332.57,158.01,332.39,157.81,332.48,157.52z"/>
	<path class="st0" d="M334.77,171.99c1.68,1,1.45,2.78,1.37,4.23c-0.22,3.66-2.29,4.58-6.01,3.35c-4.22-1.4-7.66-4.03-11.26-6.44
		c-0.38-0.26-0.67-0.66-1.01-1c0,0,0.08-0.12,0.08-0.12c0.86-0.49,1.38,0.19,1.93,0.62c3.15,2.48,6.46,4.7,10.29,6.03
		c1.44,0.5,3.01,1.23,4.27-0.13c1.28-1.37,0.87-3.14,0.54-4.8c-0.11-0.54-0.68-0.98-0.32-1.61
		C334.7,172.07,334.74,172.03,334.77,171.99z"/>
	<path class="st0" d="M310.95,134.71c-0.21-0.95,0.77-1.65,0.42-2.72c-0.52-1.59-1.32-2.77-2.92-3.41c-1.87-0.75-3.77-1.23-5.8-1.16
		c-0.36,0.01-1.16,0.01-0.66,0.59c1.61,1.88,2.14,4.22,3.08,6.39c0.04,0.1,0.09,0.19,0.14,0.28c-0.11,0.18-0.23,0.18-0.37,0.02
		c-0.57-0.28-0.51-0.86-0.67-1.35c-0.6-1.79-1.27-3.54-2.61-4.94c-0.33-0.35-0.65-0.74-0.41-1.26c0.26-0.56,0.81-0.36,1.26-0.38
		c2.14-0.1,4.16,0.4,6.11,1.25c2.33,1.02,3.42,2.82,3.32,5.35C311.51,133.79,311.59,134.5,310.95,134.71z"/>
	<path class="st0" d="M300.16,172.07c0.73-1.76,2.44-2.66,3.58-4.06c0.41-0.5,1.35-0.86,1.05-1.58c-0.3-0.74-1.21-0.29-1.85-0.35
		c-0.94-0.09-1.83,0.46-2.79,0.27c1.27-1.09,2.82-1.03,4.31-0.87c1,0.11,1.38,0.91,0.66,1.69
		C303.54,168.87,302.04,170.67,300.16,172.07z"/>
	<path class="st0" d="M69.83,156.71c-0.06-1.56-0.5-2.92-2.02-3.42c-1.39-0.45-2.92-0.62-4.13,0.63c-1.27,1.3-2.83,1.65-4.61,1.65
		c-11.09-0.02-22.18-0.01-33.26,0.05c-1.9,0.01-3.58-0.08-4.97-1.72c-1.06-1.26-2.78-1.12-4.15-0.66c-1.32,0.45-1.75,1.78-1.83,3.23
		c-0.37,6.7-0.15,13.4-0.18,20.1c-0.01,2.73,1.12,3.78,3.89,3.78c7.87,0,15.73,0,23.6,0c7.81,0,15.63,0,23.44,0
		c3.3,0,4.37-1.01,4.39-4.33C70.03,169.58,70.09,163.14,69.83,156.71z M57.56,175.97c-5.54-0.08-11.08-0.03-16.62-0.03
		c-5.49,0-10.98-0.05-16.46,0.03c-1.5,0.02-1.91-0.49-1.88-1.91c0.08-3.9,0.06-7.81,0.01-11.71c-0.02-1.43,0.33-2.06,1.96-2.05
		c11.03,0.07,22.06,0.06,33.09,0.01c1.51-0.01,2.03,0.43,1.99,1.97c-0.1,3.9-0.12,7.81,0.01,11.71
		C59.7,175.67,59.08,175.99,57.56,175.97z"/>
	<path class="st0" d="M62.9,124.82c-0.05-0.97-0.34-1.82-1.16-2.29c-1.98-1.15-5.96-0.83-7.08,0.8c-0.69,1.01-1.73,1.23-2.92,1.22
		c-6.55-0.03-13.1-0.03-19.65,0c-1.41,0.01-2.46-0.38-3.45-1.49c-1.21-1.35-2.93-1.52-4.68-1.03c-1.61,0.46-1.98,1.71-2.09,3.18
		c-0.45,6.22-0.22,12.45-0.21,18.68c0,1.96,1.39,3.2,3.36,3.21c5.76,0.02,11.51,0.01,17.27,0.01c5.81,0,11.62,0.01,17.43-0.01
		c1.9,0,3.12-1.03,3.12-2.8C62.82,137.8,63.23,131.31,62.9,124.82z M52.02,142.37c-3.53-0.1-7.07-0.03-10.61-0.03
		c-3.48,0-6.97-0.04-10.45,0.02c-1.09,0.02-1.5-0.3-1.48-1.43c0.06-3.22,0.05-6.44,0-9.66c-0.02-1.06,0.39-1.35,1.4-1.34
		c7.13,0.03,14.25,0.04,21.38,0c1.23-0.01,1.68,0.41,1.65,1.65c-0.07,2.95-0.08,5.91,0,8.87C53.95,141.87,53.52,142.41,52.02,142.37
		z"/>
	<path class="st0" d="M191.8,110.95c0.9-0.33,1.83-0.38,2.79-0.38c8.38,0.01,16.77,0,25.15,0.01c2.66,0,3.98,1.29,4,3.94
		c0.02,3.32,0.02,6.64,0,9.96c-0.01,2.15-1.17,3.52-2.97,3.57c-1.84,0.05-3.21-1.36-3.28-3.48c-0.06-2-0.08-4.01,0.01-6.01
		c0.06-1.43-0.39-1.94-1.88-1.92c-7.01,0.07-14.03,0.01-21.04,0.04c-1.56,0.01-3-0.13-3.75-1.72
		C190.08,113.4,190.83,112.14,191.8,110.95C191.8,110.96,191.8,110.95,191.8,110.95z"/>
	<path class="st0" d="M128.39,96.04c0.08,0.13,0.17,0.26,0.23,0.4c0.3,0.74,1.52,1.25,1.11,2.01c-0.44,0.82-1.49-0.11-2.27,0.09
		c-1.5-0.5-2.93-1.16-4.27-1.95c-3.12-1.85-4.44-4.78-4.58-8.26c-0.06-1.41,0.66-2.49,2.18-2.9c1.48-0.39,2.68-0.07,3.65,1.15
		c1.18,1.49,1.46,3.35,1.96,5.09C126.86,93.25,127.64,94.62,128.39,96.04z"/>
	<path class="st0" d="M304.85,134.71c0.12-0.01,0.24-0.02,0.37-0.02c0.04,0.45,0.2,0.93-0.25,1.29c-4.69,0.19-9.38,0.29-14.06-0.05
		c0.95-0.49,1.97-0.23,2.96-0.24c3.27-0.04,6.55-0.02,9.82-0.03C304.31,135.65,305.04,135.75,304.85,134.71z"/>
	<path class="st0" d="M290.9,135.93c4.69,0.02,9.38,0.04,14.06,0.05c-0.5,0.42-1.11,0.26-1.67,0.27c-4.32,0.03-8.63,0.04-12.95,0.05
		c0-0.12-0.01-0.24-0.01-0.35C290.52,135.94,290.71,135.93,290.9,135.93z"/>
	<path class="st0" d="M288.74,119.46c-2.83,1.8-5.6,3.71-8.79,4.87c-2.1,0.77-4.31,0.95-6.51,1.1c-1.21,0.08-2.14-0.59-2.41-1.85
		c-0.41-1.92-0.04-2.66,1.48-3.3c1.52-0.64,3.17-0.67,4.74-1.09c1.93-0.51,3.86-0.99,5.47-2.26c0,0,0,0,0,0
		c1.06-0.64,2.14-1.21,3.17-1.9c1.03-0.7,2.07-1.39,3.09-2.46c-0.9-0.1-1.62-0.13-2.31-0.27c-1.75-0.35-2.44-1.51-1.75-3.14
		c0.6-1.41,0.54-2.75,0.07-4.14c-0.15-0.45-0.24-0.92-0.29-1.39c-0.11-1.18,0.52-1.51,1.44-0.95c2.35,1.44,4.62,2.98,5.54,5.81
		c0.12,0.36,0.06,0.95,0.61,0.99c0.39,0.03,0.6-0.38,0.83-0.66c1.99-2.41,3.58-5.07,5.02-7.83c0.55-1.06,0.27-1.46-0.86-1.46
		c-3.32,0.01-6.65,0.03-9.97,0.03c-1.18,0-1.94,0.59-2.53,1.58c-1.29,2.16-2.54,4.37-4.6,5.95c-1.83,0.88-3.59,1.94-5.64,2.28
		c-0.51,0.08-1.12,0.51-1.47,0.03c-0.4-0.55,0.28-0.91,0.6-1.29c2.64-3.2,4.49-6.78,5.31-10.88c0.18-0.91,0.52-1.83,0.96-2.64
		c1.5-2.75,5.84-2.76,7.37-0.01c0.42,0.76,0.85,1.24,1.68,1.05c0.87-0.19,1.03-0.91,1.05-1.72c0.08-2.95,0.19-5.9,0.29-8.85
		c0.05-1.66,0.56-2.15,2.34-2.27c1.49-0.1,2.48,0.67,2.69,2.08c0.33,2.29,0.33,2.29,2.63,2.29c1.68,0.01,3.35,0.16,4.7-1.29
		c0.67-0.72,1.57-0.24,2.3,0.28c1.05,0.75,1.52,1.76,1.2,3.02c-0.22,0.89-0.83,1.46-1.81,1.47c-2.43,0.02-4.86,0.06-7.29,0.01
		c-1.19-0.03-1.71,0.34-1.73,1.62c-0.04,3.19-0.09,3.17,3.16,3.18c1.44,0,2.87,0.11,3.67-1.5c0.22-0.44,0.78-0.66,1.24-0.39
		c0.73,0.43,1.38,0.97,1.53,1.9c0.25,1.58-0.25,3.01-0.91,4.39c-3.62,7.55-8.36,14.23-15.11,19.34
		C288.85,119.27,288.8,119.38,288.74,119.46z"/>
	<path class="st0" d="M285.89,115.04c-0.86,0.96-1.91,1.61-3.17,1.9C283.6,116.01,284.65,115.36,285.89,115.04z"/>
	<path class="st0" d="M326.82,138.93c-0.02-2.31-4.38-5.43-6.33-4.29c-2.85,1.66-5.8,1.09-8.75,1.28c-1.11,0.07-1.08-0.45-0.79-1.21
		c0.97-2.34,0.79-4.12-0.81-5.35c-2.24-1.72-4.88-2.33-7.67-2.24c-0.88,0.03-1.14,0.52-0.57,1.24c0.98,1.23,1.66,2.6,2.21,4.07
		c0.29,0.76,0.2,1.69,0.92,2.28c0.09,0.55,0.1,1.07-0.62,1.21c-3.92,0.07-7.85,0.01-11.78,0.03c-0.78,0-1.57-0.04-2.3,0.34
		c-0.18,0.1-0.35,0.24-0.54,0.29c-2.74,0.78-3.98,2.36-3.87,5.12c0.05,1.31,0.28,2.6,0.28,3.92c-0.02,9.8,0.04,19.61-0.04,29.41
		c-0.02,1.98,0.8,3.53,1.69,5.12c0.68,1.21,1.72,1.77,3.13,1.11c3.54-2.58,6.07-6.18,9.18-9.2c1.28-1.59,2.83-2.92,4.24-4.4
		c0.39-0.41,0.92-0.81,0.64-1.47c-0.26-0.6-0.88-0.42-1.38-0.47c-1.23-0.12-2.36,0.28-3.51,0.61c-0.51,0.12-1.02,0.25-1.53,0.37
		c-1.06,0.69-2.34,0.92-3.41,1.61c-1.03,0.66-1.52,0.39-1.49-0.87c0.1-5.53-0.15-11.06-0.05-16.59c0.03-1.72,0.07-1.77,1.8-1.78
		c7.33,0,14.66,0,21.99,0c1.71,0,1.71,0.01,1.72,1.8c0.01,1.96-0.01,2-1.68,2c-6.28,0-12.55,0-18.83,0c-0.42,0-0.85-0.03-1.26,0.02
		c-1.11,0.14-1.61,1-1.89,1.91c-0.29,0.93,0.32,1.61,1.04,2.12c0.51,0.36,1.12,0.22,1.69,0.22c5.91,0.01,11.82,0.05,17.72-0.02
		c1.49-0.02,2.8,0.16,3.87,1.27c1.65,0.53,3.32,0.51,4.97,0.03c1.23-0.35,2.01-1.14,2.01-2.48
		C326.83,150.29,326.87,144.61,326.82,138.93z M317.26,144.21c-3.63-0.13-7.27-0.04-10.91-0.04c0,0,0,0.01,0,0.01
		c-3.69,0-7.38-0.09-11.06,0.04c-1.97,0.07-1.72-1.1-1.79-2.34c-0.08-1.38,0.29-1.93,1.82-1.92c7.32,0.08,14.65,0.09,21.97,0.01
		c1.65-0.02,1.91,0.65,1.91,2.05C319.21,143.45,319.03,144.27,317.26,144.21z"/>
	<path class="st0" d="M334.66,172.11c0.88,1.33,1.06,2.79,0.99,4.36c-0.12,2.61-1.9,3.85-4.42,3.05c-4.4-1.42-8.22-3.85-11.8-6.7
		c-0.46-0.36-0.86-0.78-1.49-0.81c-0.82-1.41-2.33-2.06-3.48-3.11c-2.36-2.16-4.87-4.15-7.31-6.22c-0.31-0.26-0.76-0.56-0.57-1.02
		c0.25-0.59,0.82-0.35,1.25-0.26c3.03,0.64,5.86,1.91,8.76,2.94c1.89,0.67,3.81,1.17,5.74,1.65c1.72,0.42,2.81-0.75,3.66-1.94
		c1.1-1.53,2.15-3.09,2.88-4.87c0.93-2.26,1.26-2.32,3.59-1.65c3.18,2.61,3.02,5.66-0.39,7.97c-1.18,0.8-2.48,1.37-3.81,1.82
		c-0.57,0.2-0.99,0.5-0.96,1.08c0.04,0.55,0.62,0.4,1,0.53C330.57,169.7,332.91,170.33,334.66,172.11z"/>
</g>
<g>
	<g>
		<path class="st0" d="M228.24,29.91c-1.35,0.15-8.27,2.25-9.62,1.65c-1.35-0.6-3.61-0.9-3.61-0.9c0.15,0.9-0.45,2.25-0.6,3.01
			c-0.15,0.75-0.6,4.66-0.3,5.41c0.3,0.75,2.7,2.55,2.7,2.55l1.2-1.35c0,0,2.3,1.39,3.45,1.01c0.24-0.08,0.14-0.12,1.06-0.41
			c1.19-0.38,2.71-0.45,3.46,0c0.75,0.45,2.86,0.9,4.06,0.75c1.2-0.15,2.1-2.55,2.1-2.55s-1.5-0.3-1.8-1.65
			c-0.3-1.35,1.95-2.55,3.01-3.31c1.05-0.75,0.92-1.79,0.15-2.55C233.2,31.26,229.6,29.76,228.24,29.91z M225.01,37.87
			c-1.8,0.75-5.94,1.05-6.31,0.75c-0.38-0.3-0.98-2.55,0.3-4.21c0,0,2.93-0.23,3.53-0.75c0.6-0.53,2.41-0.6,3.01-0.37
			C226.14,33.52,226.82,37.12,225.01,37.87z"/>
		<path class="st0" d="M224.64,27.05c1.5,0.15,4.81,0.9,5.56,0.45c0.75-0.45,0-1.5-0.6-2.71c-0.6-1.2-3.01-1.2-5.11-0.6
			c-2.1,0.6-3.31,0.15-4.96,0.6c-1.65,0.45-2.56,3.01-2.56,3.01c1.05,1.05,1.95,0.15,3.15,0C221.33,27.65,223.13,26.9,224.64,27.05z
			"/>
		<path class="st0" d="M245.07,25.25c-2.25-0.6-3.3,0.15-6.01-1.65c-1.6-1.07-5.61-3.15-9.17-11.42c-0.14-0.33,3.76-3.91,3.61-5.71
			c-0.15-1.8-2.86-1.35-3.91-0.6c-1.05,0.75-2.41,0.45-2.41,0.45s-2.24,4.06-3.31,4.06c-0.3,0-7.51,10.52-7.51,10.52
			s-1.65,2.1-0.9,3.16c0.75,1.05,3.16,0.15,3.76-0.75c0.6-0.9,5.11-7.06,5.71-7.06c0.6,0,2.4,0,3.15,1.65
			c0.75,1.65,1.65,3.46,2.41,4.51c0.75,1.05,2.1,1.95,2.71,3.01c0.6,1.05,3.3,3.76,7.66,2.4c0.97-0.29,1.5,0.15,2.1,0.15
			c0.6,0,2.55-0.15,2.55-0.15S247.33,25.85,245.07,25.25z"/>
		<path class="st0" d="M214.57,25.4c-0.75,0.75-2.25,0.75-2.4-0.3c-0.15-1.05,2.1-3.31,2.56-4.06c0.45-0.75-1.8-2.71-3.01-2.4
			c-1.2,0.3-4.06,2.1-4.96,2.1c-0.9,0-1.2-0.6-2.4-1.5c-1.2-0.9-2.1,1.05-2.1,1.05s-0.45,5.26-0.6,6.16c-0.15,0.9-2.26,1.8-1.2,3.31
			c1.05,1.5,3.15,3.61,3.61,3c0.45-0.6,1.8-0.15,2.25-0.75c0.45-0.6,1.65-0.75,2.7-0.9c1.05-0.15,2.25-2.7,3.01-2.85
			c0.75-0.15,2.25-1.2,3.01-1.65C215.77,26.15,215.32,24.65,214.57,25.4z M206.75,27.5c-1.8,0.9-1.95,0-2.25-0.9
			c-0.3-0.9,0.75-2.1,0.75-2.1s1.65-2.1,3.01-1.35C209.61,23.9,208.56,26.6,206.75,27.5z"/>
	</g>
	<g>
		<path class="st0" d="M182.86,36.52c-1.2-1.05,1.05-3.46,1.65-4.21c0.6-0.75,0.15-2.1,0.15-2.1l-4.96-2.85c0,0-2.25,1.8-3.91,1.95
			c-3.6,0.33-7.36,1.5-7.36,1.5l-2.56-0.9c-0.9,0-1.2,1.5-1.2,3.01c0,1.5,1.05,1.5,1.05,2.55s0,3.46,0.45,4.21
			c0.45,0.75,1.95,1.05,3.01,0.6c1.05-0.45,0.9-1.65,1.5-1.65c0.6,0,0.75,1.2,1.95,1.2c1.2,0,2.71-1.2,3.91-1.5
			c1.2-0.3,2.55,0.6,1.95,1.35c-0.6,0.75-3.61,2.25-3.01,3.01c0.6,0.75,3.91-0.75,4.96-1.5c1.05-0.75,3.31-0.6,4.66-0.9
			c1.35-0.3,0.75-2.1,0.6-2.86C185.57,36.67,184.06,37.57,182.86,36.52z M177.9,33.37c-0.64,1.27-1.79,3.82-6.91,3.3
			c-1.5-0.15-1.05-1.2-1.05-1.2l0.3-2.55c0,0,3.82-0.52,4.96-1.65C175.35,31.11,178.95,31.26,177.9,33.37z"/>
		<path class="st0" d="M173.39,26.45c0,0,1.35-0.9,4.06-0.9c2.7,0,3.46-0.9,3.61-1.5c0.15-0.6-0.9-1.05-1.35-1.65
			c-0.45-0.6-0.9-1.2-2.25-0.9c-1.35,0.3-2.4,1.5-4.36,1.65c-1.95,0.15-4.21,0.45-4.21,0.45s-3.01,2.1-0.6,3.16
			C170.69,27.8,173.39,26.45,173.39,26.45z"/>
		<path class="st0" d="M195.63,23.45c-1.8-0.6-1.05-0.9-2.85-1.2c-1.8-0.3-4.21-2.1-4.81-2.55c-0.6-0.45-2.02-1.55-3.07-2.15
			c-1.05-0.6-0.62-1.25-2.49-2.81c-1.82-1.52-3.01-4.36-3.01-5.26c0-0.9,0.9-4.21,0.9-5.71c0-1.5-1.8-1.95-2.56-1.8
			c-0.75,0.15-1.35,2.25-1.35,2.25s-1.5,0.6-2.25,1.05c-0.75,0.45-1.8,4.96-2.4,5.41c-0.6,0.45-5.26,8.11-6.46,8.27
			c-1.2,0.15-2.1-1.5-3.31-1.65c-1.2-0.15-5.41,2.86-6.16,2.86c-0.75,0-1.35-1.35-2.25-0.9c-0.9,0.45-2.71,2.55-2.71,2.55
			c1.2,0.9-0.6,7.97-0.6,7.97s3.16,3.3,4.36,3.15c1.2-0.15,1.65-3.31,1.65-3.31s1.05-0.75,1.65-0.9c0.6-0.15,1.8-1.35,1.95-0.75
			c0.15,0.6-0.75,1.2-0.9,2.41c-0.15,1.2,0.6,1.05,0.6,1.05l4.51-4.06c0,0,2.1-0.9,1.5-1.35c-0.6-0.45-1.05,0-2.1-0.9
			c-1.05-0.9,0.6-3.16,1.2-2.86c0.6,0.3,1.35,0.45,2.25,0.3c0.9-0.15,1.5-1.65,2.1-1.8c0.6-0.15,1.35-0.9,2.4-1.65
			c1.05-0.75,1.35-3.31,1.8-4.21c0.45-0.9,1.5-1.8,2.25-1.8c0.75,0,1.95,0.75,2.1,2.1c0.15,1.35,2.4,5.11,3.01,6.01
			c0.6,0.9,1.8,1.5,2.4,1.65c0.6,0.15,0.45,1.2,1.2,1.8c0.75,0.6,2.41,0.6,2.71,0.9c1.2,1.2,3.3,0.15,3.3,0.15s2.07,1.05,4.66,1.05
			c1.2,0,1.8-0.75,1.8-0.75s0.45-0.15,1.8-0.15c1.35,0,0.9,0,0.6-0.6C198.79,24.65,197.44,24.05,195.63,23.45z M158.82,24.8
			c-0.6,0.6-0.6,0.6-0.6,0.6s-0.15,1.65-2.1,1.8c-1.95,0.15-0.9-3.31-0.9-3.31s1.2-0.45,1.8-0.45c0.6,0,1.5-0.9,1.5-0.9
			S159.42,24.2,158.82,24.8z"/>
	</g>
	<path class="st0" d="M145.29,36.07c-0.9,0-2.55,0.45-3.31-0.15c-0.75-0.6-1.65,0-1.65,0s-2.86,1.65-3.61,2.4
		c-0.75,0.75-5.26,1.2-6.01,1.05c-0.75-0.15-0.9-0.9-0.15-1.2c0.75-0.3,3.61-2.4,4.51-3.01c0.9-0.6,3.01-2.85,3.01-2.85
		s0.45,0,1.65-0.15c1.2-0.15,2.71-1.65,2.71-1.65s0.9-1.65,0.15-1.95c-0.75-0.3-1.8-1.8-2.4-1.5c-0.6,0.3-2.86,1.95-3.31,0.6
		c-0.45-1.35,1.2-1.8,2.4-2.71c1.2-0.9,4.06-0.75,4.06-0.75s0.6-0.75,0.15-1.35c-0.45-0.6-2.25-2.4-2.25-2.4s-1.05,0.75-2.1,0.15
		c-1.05-0.6-0.75-0.45-0.45-1.35c0.3-0.9,1.8-2.25,2.85-2.86c1.05-0.6,4.36,0.3,5.26,0c0.9-0.3,1.8-2.1,0.9-2.7
		c-0.9-0.6-2.1-0.15-2.1-0.15s-1.05-0.6-1.65-1.35c-0.6-0.75-0.75-0.6-1.5-0.75c-0.75-0.15-0.75-1.2-0.75-1.2s0.75-1.95,1.2-3.01
		c0.45-1.05,0.45-1.65-0.15-2.85c-0.6-1.2-6.01-4.51-6.91-4.36c-0.9,0.15-1.05,2.55-1.05,3.31c0,0.75,0.9,3.16,0.9,3.16
		s-0.6,2.55-0.6,3.91c0,1.35-0.9,4.21-1.8,4.66c-0.9,0.45-4.96,1.35-5.71,1.5c-0.75,0.15-2.86,1.8-2.86,1.8l-1.35,0.3
		c0,0-0.15-2.55,0-3.31c0.15-0.75-0.3-1.5-0.9-2.25c-0.6-0.75-5.26-2.71-5.26-2.71s0.15,4.06,0.15,7.21c0,3.16-1.65,4.66-2.25,5.26
		c-0.6,0.6-2.25,1.05-2.85,1.05c-0.6,0-1.35-0.75-1.35-0.75s-1.5-3.01-1.35-4.51c0.15-1.5-1.65-3.46-1.65-3.46l-1.05,0.3
		c0,0,0.15,2.7-0.3,5.26c-0.45,2.55,0.6,3.01,0.6,4.06c0,1.05-0.3,1.65-1.2,1.8c-0.9,0.15-5.41,2.25-6.91,4.36
		c-1.5,2.1-0.6,3.91,0.9,4.21c1.5,0.3,6.31,0.3,6.31,0.3s0.9,0.9,1.5,0.75c0.6-0.15,1.95,0,1.95,0s0.45,0.6,1.05,0.6
		c0.6,0,0.75-0.15,1.8-0.15c1.05,0,1.8,2.26,1.8,2.26s0.75,0,1.8-0.75c1.05-0.75-0.23-5.07,0-5.26c4.51-3.49,5.11-10.97,5.26-11.12
		c1.2-1.2,7.81-3.01,7.81-3.01s2.7-0.9,4.21-0.3c1.5,0.6,0.9,1.8,0,3.46c-0.9,1.65-3.01,1.5-3.01,1.5l-1.35,1.5c0,0-1.2,0.15-2.1,0
		c-0.9-0.15-1.95,0.75-1.95,0.75s-0.3,0.45,0.45,1.65c0.75,1.2,1.8,1.2,2.7,1.05c0.9-0.15,1.95-1.05,3.01-1.35
		c1.05-0.3,1.05-1.8,1.65,0.15c0.6,1.95-0.75,2.56-1.35,3.16c-0.6,0.6-3.31,0.15-4.36-0.15c-1.05-0.3-2.1,2.7-2.1,2.7
		s1.2,1.8,2.4,2.4c1.2,0.6,1.8-0.9,1.8-0.9s0.9-1.5,1.35-0.15c0.45,1.35-1.65,3.46-2.25,3.61c-0.6,0.15-1.5,0.45-1.5,0.45
		s-1.95-0.6-2.4,0.45c-0.45,1.05-1.2,3.46-0.3,4.36c0.9,0.9,1.5-0.3,2.56,0.3c1.05,0.6,1.65,0.9,2.86,0.75
		c1.2-0.15,1.8-1.35,1.8-1.35s0.9,0.6,1.65-0.45c0.75-1.05,4.81-1.95,4.81-1.95s1.65-1.2,1.65,0c0,1.2-1.05,1.95-1.95,2.4
		c-0.9,0.45-1.2,1.8-1.2,1.8s3.46-0.75,4.51-0.75c1.05,0,3.46,0.3,3.46,0.3s4.06-3.15,4.66-4.06c0.6-0.9-0.75-3.15-0.75-3.15
		S146.19,36.07,145.29,36.07z M107.42,34.57c-1.5-0.15-3.31-0.75-3.91-2.1c-0.6-1.35,3.01-3.75,3.76-4.36c0,0,1.35-0.3,1.35,0.9
		c0,1.2,0.75,4.51,0.75,4.51S108.93,34.72,107.42,34.57z M114.49,28.86c-0.9,0.3-1.2,0.3-1.95-0.9c-0.75-1.2,0.15-2.4,0.15-2.4
		s1.8-1.8,2.7-1.35C116.29,24.65,115.39,28.56,114.49,28.86z"/>
	<path class="st0" d="M247.39,8.93c0.44,0.22,0.79,0.56,1.07,1.01c0.28,0.45,0.42,0.94,0.42,1.48c0,0.78-0.28,1.44-0.83,2
		c-0.55,0.55-1.22,0.83-1.99,0.83c-0.78,0-1.44-0.28-1.99-0.83c-0.55-0.55-0.83-1.22-0.83-2c0-0.75,0.27-1.41,0.8-1.98
		c0.53-0.57,1.23-0.85,2.09-0.85C246.53,8.6,246.95,8.71,247.39,8.93z M244.44,8.3c-0.54,0.26-1,0.68-1.36,1.25
		c-0.36,0.57-0.54,1.2-0.54,1.88c0,0.97,0.34,1.8,1.03,2.49c0.68,0.69,1.51,1.03,2.48,1.03c0.97,0,1.79-0.34,2.48-1.03
		c0.69-0.69,1.03-1.52,1.03-2.48c0-0.95-0.34-1.77-1.01-2.47c-0.68-0.7-1.54-1.05-2.59-1.05C245.49,7.91,244.98,8.04,244.44,8.3z
		 M245.25,13.3v-1.53h0.2c0.23,0,0.42,0.07,0.56,0.2c0.14,0.13,0.31,0.37,0.49,0.73l0.31,0.6h0.93l-0.44-0.75
		c-0.2-0.33-0.34-0.55-0.43-0.64c-0.09-0.1-0.21-0.18-0.37-0.24c0.34-0.06,0.59-0.18,0.75-0.35c0.17-0.17,0.25-0.41,0.25-0.69
		c0-0.3-0.1-0.55-0.3-0.75c-0.2-0.2-0.52-0.31-0.96-0.31h-1.77v3.73H245.25z M245.25,10.16h0.69c0.26,0,0.45,0.04,0.58,0.13
		c0.13,0.08,0.19,0.21,0.19,0.38c0,0.18-0.07,0.32-0.2,0.4c-0.13,0.08-0.35,0.12-0.66,0.12h-0.62V10.16z"/>
</g>
</svg>
