<!-- Generator: Adobe Illustrator 25.2.1, SVG Export Plug-In  -->
<svg version="1.1" xmlns="http://www.w3.org/2000/svg" xmlns:xlink="http://www.w3.org/1999/xlink" x="0px" y="0px" width="330.5px"
	 height="103.57px" viewBox="0 0 330.5 103.57" style="overflow:visible;enable-background:new 0 0 330.5 103.57;"
	 xml:space="preserve">
<style type="text/css">
	.st0{fill:#5D3E4B;}
</style>
<defs>
</defs>
<g>
	<path class="st0" d="M115.45,62.89c-0.23,0.38-0.46,0.76-0.69,1.14c-0.1,0.23-0.26,0.43-0.42,0.62c-0.59,0.7-0.6,1.1,0.48,1.2
		c2.33,0.22,3.86,1.56,4.36,3.98c0.52,2.55,0.53,5.12,0.21,7.73c-0.36,2.98-0.84,5.93-1.71,8.8c-0.73,2.4-1.65,4.71-2.91,6.88
		c-3.36,6.16-11.62,9.67-14.95,8.08c1.11-1.05,2.55-1.56,3.67-2.55c3.35-2.93,4.7-6.85,5.61-10.99c1.24-5.69,1.29-11.52,2.02-17.27
		c0.05-0.37,0.23-0.92-0.16-1.11c-0.55-0.27-0.72,0.37-0.99,0.67c-3.59,3.96-7.92,6.65-13.2,7.71c-2.63,0.53-4.9-1.16-4.57-3.42
		c0.24-1.69,2.14-3.7,3.86-3.96c2.31-0.35,4.42-1.18,6.36-2.45c3.21-2.22,5.74-5.11,7.96-8.27c1.15-1.63,2.31-3.26,3.22-5.06
		c0.77-1.51,0.7-1.72-1.07-1.72c-6.97-0.01-13.94,0-20.91,0c-0.5,0-1,0.04-1.5-0.06c-1.42-0.28-1.92-0.84-1.84-2.09
		c0.08-1.18,0.73-1.69,2.14-1.77c7.76-0.43,15.52-0.34,23.28-0.25c2.15,0.03,3.4-0.79,4.17-2.67c0.26-0.65,0.65-1.24,0.92-1.89
		c0.39-0.94,0.1-1.45-0.93-1.5c-1.3-0.07-2.61-0.02-3.91-0.02c-3.31,0-6.62,0.03-9.93-0.01c-2.75-0.03-3.54-1.49-2.18-3.88
		c1.86-0.91,3.85-0.65,5.77-0.5c3.87,0.29,7.72-0.04,11.57-0.18c1.12-0.04,1.97-0.61,2.51-1.64c0.73-1.39,1.05-2.92,1.58-4.37
		c0.36-0.99-0.39-0.92-1-0.93c-2.26,0-4.52,0.01-6.77,0.01c-4.67,0-9.33,0.02-14-0.02c-2.23-0.02-3-0.64-3.07-2.24
		c-0.06-1.45,0.56-2.15,2.03-2.15c3.81-0.02,7.63-0.01,11.44-0.01c5.22,0,10.44-0.04,15.65,0.03c1.27,0.02,2.06-0.47,2.77-1.41
		c2.2-2.92,3.42-6.27,4.36-9.75c0.67-2.49,1.41-4.95,3.95-6.25c3.11-1.6,6.85,0.8,6.67,4.28c-0.18,3.52-2.1,6.19-4.34,8.68
		c-1.14,1.28-2.44,2.36-3.94,3.22c-0.45,0.26-0.85,0.6-1.57,1.12c3.22,0,6.06,0.14,8.88-0.06c1.54-0.11,2.76-1.24,3.5-2.6
		c1.65-3.03,4.68-2.29,6.36-0.37c1.33,1.53,1.02,3.35,0.4,5.13c-0.51,1.47-1.66,2.06-3.07,2.27c-0.69,0.1-1.4,0.13-2.1,0.12
		c-5.92-0.06-11.84,0.16-17.76-0.13c-2.69-0.13-3.02,0.15-3.98,2.67c-0.43,1.12-0.78,2.26-1.19,3.38c-0.29,0.81,0.04,1.12,0.83,1.11
		c4.47-0.02,8.93-0.02,13.4-0.08c1.38-0.02,2.01-1.19,2.72-2.14c1.41-1.89,2.29-2.3,4.16-1.79c1.81,0.49,2.74,1.97,2.7,4.31
		c-0.03,2.11-1.01,3.54-2.8,3.93c-0.82,0.18-1.69,0.23-2.54,0.23c-5.77,0.02-11.54,0.05-17.31-0.02c-1.6-0.02-2.48,0.6-3.06,2.06
		c-1.59,4.02-1.63,4.01,2.64,4c8.43-0.01,16.86-0.1,25.29,0c2.36,0.03,4.18-0.67,5.72-2.38c0.77-0.85,1.63-1.65,2.82-1.88
		c1.49-0.28,2.67,0.23,3.44,1.55c0.9,1.55,1.05,3.16-0.05,4.66c-1.05,1.43-2.42,2.31-4.33,2.3c-7.02-0.03-14.05,0.01-21.07,0.04
		c-0.56,0-1.35-0.28-1.61,0.43c-0.25,0.68,0.49,1.04,0.9,1.43c3.76,3.54,7.58,7.04,12.48,8.95c2.83,1.1,5.77,1.94,8.65,2.91
		c1.66,0.56,3.16,1.42,4.58,2.46c2.13,1.57,2.7,5.26,1.71,7.55c-0.51,1.19-1.54,1.76-2.86,1.86c-3.47,0.24-6.44-1.2-9.36-2.75
		c-3.15-1.67-6.05-3.71-8.51-6.33c-0.27-0.29-0.52-0.72-0.98-0.57c-0.51,0.16-0.32,0.67-0.31,1.04c0.11,5.61-0.09,11.23,0.13,16.84
		c0.15,3.7-0.1,7.41-0.19,11.12c-0.02,1.03-0.36,1.96-0.91,2.83c-1.24,1.06-2.53,1.87-4.21,0.92l0,0c-1.24-0.43-1.82-1.45-1.92-2.62
		c-0.27-3.08-0.31-6.18-0.37-9.28c-0.02-1.05-0.06-2.1-0.06-3.14c-0.01-6.25-0.04-12.5,0.38-18.74c0.13-1.97,0.99-2.84,2.87-3.23
		c0.54-0.11,1-0.2,0.9-0.91l0,0c-2.3-3.06-4.67-6.08-6.59-9.42c-0.61-1.07-1.72-1.35-2.83-1.4c-2-0.09-4-0.13-6,0
		c-2.1,0.14-3.76,1.27-5,2.91C118.28,58.08,117.12,60.66,115.45,62.89z"/>
	<path class="st0" d="M50.65,31.24c-1.58-0.89-1.81-2.35-1.8-3.99c0.04-3.78,0-3.78-3.81-3.78c-4.31,0-8.62,0.04-12.92-0.02
		c-1.26-0.02-1.73,0.39-1.62,1.63c0.08,0.79-0.1,1.62,0.03,2.4c0.62,3.71-3.95,5.48-6.69,3.76c-1.36-0.81-1.77-2.1-1.81-3.57
		c-0.02-0.9,0-1.81-0.01-2.71c-0.02-1.68-0.16-1.83-1.8-1.84c-3.86-0.01-7.73,0-11.59,0c-0.4,0-0.8,0.02-1.2-0.01
		C5.79,23,5.01,22.2,5.03,20.66c0.01-1.47,0.9-2.34,2.5-2.36c3.91-0.03,7.83-0.01,11.74-0.01c0.55,0,1.1-0.05,1.65-0.08
		c0.83-0.05,1.15-0.41,1.13-1.22c-0.03-1.25-0.05-2.51,0-3.76c0.09-2.2,1.13-3.5,3.04-3.88c2.42-0.48,4.38,0.31,5.25,2.13
		c0.52,1.1,0.25,2.28,0.26,3.41C30.64,18,30.62,18,33.72,18c4.47,0,8.93,0.01,13.4,0c1.63,0,1.71-0.09,1.72-1.7
		c0.01-1.15-0.02-2.31,0.01-3.46c0.04-1.71,1.14-3.07,2.82-3.42c1.55-0.32,3.07-0.38,4.38,0.78c0.84,0.74,1.31,1.57,1.24,2.75
		c-0.08,1.25-0.04,2.51,0,3.76c0.03,0.91,0.42,1.38,1.4,1.3c1.59-0.13,3.19,0.11,4.79-0.19c1.88-0.35,3-1.55,3.85-3.05
		c1.13-2,2.17-2.7,4.02-2.45c2.11,0.29,3.78,1.81,4.15,3.78c0.78,4.18-1.52,6.93-5.96,7.01c-3.31,0.06-6.62,0.01-9.94,0.01
		c-2.28,0-2.29,0-2.32,2.35c-0.01,0.6,0,1.2,0,1.81C57.27,31.21,54.21,33.04,50.65,31.24z"/>
	<path class="st0" d="M42.37,40.22c-8.48,0-16.96,0.04-25.44-0.04c-1.56-0.02-2.04,0.57-2.08,1.96c-0.06,1.66-0.36,3.27-0.83,4.87
		c-1.3,4.44-4.29,6.34-8.89,5.51c-1.18-0.21-2.34-0.49-3.36-1.23c-2.04-1.48-2.36-3.63-0.75-5.56c0.94-1.14,2.1-2.01,3.43-2.63
		C8,41.46,10,38.65,10.81,34.9c0.03-0.15,0.04-0.3,0.09-0.44c0.27-0.76,0.5-1.71,1.36-1.84c0.99-0.16,1.08,0.91,1.33,1.55
		c0.58,1.5,1.65,1.95,3.18,1.95c17.51-0.02,35.02,0,52.53,0.02c0.86,0,1.52-0.14,2.01-0.97c0.73-1.23,1.97-1.2,3.06-0.72
		c1.96,0.86,3.88,1.84,5.76,2.88c2.04,1.13,2.14,2.44,0.38,3.98c-0.48,0.42-1.03,0.8-1.6,1.1c-2.06,1.08-3.92,2.41-5.64,3.96
		c-0.63,0.57-1.34,1.05-2.06,1.5c-0.63,0.39-1.37,0.42-2.02,0.09c-0.72-0.37-0.59-1.13-0.5-1.75c0.21-1.38,0.49-2.75,0.79-4.12
		c0.4-1.76,0.34-1.86-1.52-1.86C59.43,40.22,50.9,40.22,42.37,40.22z"/>
	<path class="st0" d="M199.72,10.49c1.24,0.15,2.33-0.5,3.44-0.81c2.24-0.62,4.55-0.85,6.79-0.86c2.07-0.01,4.21,0.39,6.31,0.88
		c3.71,0.87,6.98,2.48,10,4.68c4.24,3.09,7.47,7.03,9.56,11.86c1.59,3.69,2.49,7.58,2.37,11.58c-0.16,5.28-1.56,10.28-4.39,14.81
		c-0.15,0.24-0.45,0.38-0.67,0.57c-0.47-0.62-0.08-1.15,0.22-1.65c2.49-4.14,3.75-8.66,3.84-13.44c0.14-7.38-2.28-13.86-7.32-19.32
		c-4.23-4.58-9.43-7.6-15.53-8.56c-5.01-0.79-10.09-0.55-14.92,1.54c-7.49,3.24-12.66,8.64-15.59,16.25
		c-1.22,3.17-0.85,3.66,2.53,3.39c1.23-0.1,1.72-0.85,2.07-1.86c1.54-4.35,4.3-7.82,7.97-10.52c7.43-5.47,17.08-6,24.98-0.96
		c6.16,3.93,9.85,9.53,10.83,16.74c0.8,5.87-0.86,11.27-4.28,16.05c-4.31,6.04-10.39,9.24-17.7,9.32
		c-8.9,0.1-15.82-3.84-20.34-11.66c-1.1-1.91-3.3-2.75-5.32-2.03c-0.91,0.33-0.53,0.96-0.3,1.48c1.06,2.39,2.31,4.69,3.98,6.71
		c4.02,4.84,8.91,8.34,15.19,9.64c1.82,0.37,2.37,1.06,2.4,2.88c0.02,1.55,0.03,3.11,0,4.66c-0.04,1.8-0.45,2.23-2.25,2.24
		c-5.22,0.04-10.44,0.01-15.65,0.01c-3.61,0-7.22,0-10.84,0c-0.45,0-0.91-0.03-1.35,0.05c-1.02,0.19-1.61,0.84-1.69,1.84
		c-0.07,0.98,0.55,1.57,1.42,1.9c0.62,0.24,1.29,0.16,1.94,0.17c8.38,0,16.76,0,25.13,0c0.6,0,1.2-0.02,1.8,0.05
		c0.87,0.11,1.38,0.6,1.44,1.47c0.11,1.65,0.13,3.31-0.02,4.96c-0.03,0.29,0.09,1.31-0.79,0.52c0-1.51-0.06-3.01,0.02-4.51
		c0.06-1.13-0.37-1.49-1.47-1.48c-3.16,0.04-6.32,0.02-9.48,0.02c-5.92,0-11.83,0-17.75,0c-0.64,0-1.31,0.1-1.9-0.3
		c-1.09-0.92-1.64-3.29-1.02-4.44c0.47-0.87,1.28-0.97,2.19-0.97c8.9,0.02,17.8,0.01,26.7,0c0.65,0,1.3-0.02,1.95-0.04
		c0.6-0.96,0.23-2.02,0.29-3.03c0.06-1.13,0.01-2.27,0.02-3.4c0-0.56,0-1.1-0.61-1.38c-9.83-2.58-16.96-8.31-20.76-17.87
		c-0.73-1.84-0.41-2.26,1.51-2.27c0.5,0,1.02,0.08,1.5-0.01c2.41-0.47,3.63,0.82,4.68,2.78c3.08,5.78,8.04,9.43,14.33,10.62
		c11.15,2.1,21.2-3.49,25.03-14.09c3.08-8.53,0.54-18.22-6.95-24.18c-3.99-3.18-8.5-4.83-13.54-4.89
		c-9.05-0.11-17.35,5.75-20.45,14.24c-0.83,2.28-1.24,2.58-3.58,2.58c-4.28,0-4.34-0.03-2.94-4.06c2.86-8.25,8.28-14.11,16.42-17.41
		C199.38,10.89,199.54,10.66,199.72,10.49z"/>
	<path class="st0" d="M174.42,78.81c9.61,0.01,19.23,0.04,28.84-0.01c1.46-0.01,1.94,0.43,1.86,1.87c-0.09,1.59,0.04,3.2,0.08,4.79
		c0.51,0.6,0.39,1.32,0.4,2.01c0.02,3.06,0.01,6.12,0.01,9.17c0,0.75,0.01,1.5,0.17,2.24c0.45,2.09,1.84,3.22,3.93,3.2
		c2.4-0.02,3.46-0.93,3.88-3.32c0.14-0.8,0.14-1.6,0.14-2.4c0-5.06,0-10.13,0-15.19c0-2.84,0.28-3.13,3.07-3.13
		c7.72-0.01,15.45-0.01,23.17,0.01c1.37,0,2.7-0.19,3.99-0.62c1.38-0.46,2.17-1.41,2.26-2.87c0.09-1.42-0.17-2.8-0.73-4.11
		c-0.63-1.46-1.81-2.23-3.32-2.53c-1.29-0.25-2.26,0.18-2.88,1.36c-0.45,0.84-0.8,1.74-1.43,2.47c-0.58,0.67-1.15,1.46-2.25,1.08
		c0,0-0.06-0.07-0.06-0.07c0.14-0.72,0.46-1.42,1.08-1.73c1.16-0.58,1.48-1.7,1.91-2.71c0.74-1.71,2.08-2.4,3.92-1.83
		c3.76,1.17,4.63,2.5,5.23,6.45c0.34,2.22,0.02,4.03-1.64,5.4c-1.24,1.02-2.93,1.3-4.5,1.33c-8.31,0.16-16.62-0.46-24.93-0.3
		c-1.41,0.03-1.88,0.34-1.86,1.82c0.08,5.81-0.04,11.63,0.07,17.44c0.05,2.35-2.32,4.58-5.17,4.63c-2.69,0.04-4.88-2.34-4.84-4.58
		c0.1-5.81-0.01-11.63,0.06-17.44c0.02-1.42-0.33-1.87-1.81-1.86c-8.92,0.07-17.85,0.04-26.77,0.03
		C175.61,79.4,174.83,79.65,174.42,78.81z"/>
	<path class="st0" d="M50.65,31.24c1.87,0.41,3.73,0.9,5.37-0.66c0.66-0.62,1.02-1.3,0.99-2.24c-0.04-1.25,0-2.51,0.04-3.76
		c0.04-1.26,0.59-1.8,1.98-1.77c3.66,0.1,7.32,0.06,10.98-0.01c2.26-0.04,4.1-0.92,5-3.15c0.73-1.83,0.55-3.65-0.53-5.27
		c-1.02-1.52-2.62-1.95-4.37-1.79c-1.31,0.12-2.05,1.1-2.54,2.11c-1.21,2.52-3.2,3.6-5.89,3.6c-0.85,0-1.71,0.01-2.56,0.01
		c-1.8-0.01-2.05-0.24-2.12-2.08c-0.04-1,0-2.01-0.01-3.01c-0.01-2.5-1.23-3.69-3.81-3.7c-2.76-0.02-4.01,1.12-4.04,3.66
		c-0.01,1.15-0.02,2.31,0,3.46c0.03,1.13-0.46,1.65-1.62,1.64c-5.27-0.02-10.53-0.02-15.8,0c-1.01,0.01-1.33-0.45-1.31-1.37
		c0.03-1.3,0.03-2.61-0.01-3.91c-0.05-1.99-1.43-3.39-3.38-3.48c-3.08-0.14-4.34,0.64-4.59,3.02c-0.15,1.44-0.09,2.9-0.06,4.36
		c0.02,0.91-0.3,1.43-1.26,1.48c-0.65,0.03-1.29,0.16-1.94,0.17c-3.81,0.03-7.62,0.03-11.44,0.05c-1.73,0.01-2.55,0.68-2.57,2.04
		c-0.02,1.43,0.83,2.17,2.62,2.18c4.16,0.02,8.33,0,12.49,0.01c1.87,0,2.07,0.21,2.09,2.07c0,0.65,0.03,1.31-0.01,1.96
		c-0.1,1.66,0.14,3.19,1.47,4.36c-1.59-0.44-1.89-1.78-2.06-3.13c-0.1-0.84-0.02-1.7-0.02-2.56c0-2.11,0-2.11-2.04-2.11
		c-3.76,0-7.53,0.01-11.29-0.01c-0.55,0-1.11-0.02-1.64-0.15c-1.65-0.4-2.19-1.32-1.9-3.32c0.2-1.37,1.24-1.91,2.47-1.93
		c4.22-0.06,8.43-0.1,12.65-0.03c1.35,0.02,1.93-0.31,1.78-1.74c-0.11-1.04-0.06-2.11-0.01-3.16c0.11-2.29,1.36-3.61,3.92-4.21
		c1.62-0.38,3.94,0.79,4.81,2.36c0.24,0.43,0.24,0.86,0.25,1.31c0.01,1.15,0.09,2.32-0.02,3.46c-0.12,1.31,0.31,1.72,1.66,1.7
		c4.87-0.08,9.74-0.08,14.6,0c1.29,0.02,1.58-0.43,1.59-1.63c0.02-1.72-0.45-3.49,0.51-5.14c0.79-1.35,3.11-2.41,4.64-2.01
		c2.8,0.73,3.79,1.77,3.8,4.02c0,0.4,0,0.8,0,1.2c0,3.59,0,3.5,3.52,3.58c2.96,0.07,5.08-0.98,6.39-3.71
		c0.73-1.53,2.35-2.26,3.83-2.03c2.05,0.32,3.94,1.9,4.35,3.64c1.06,4.53-1.43,7.66-6.27,7.77c-3.46,0.08-6.93,0.07-10.39,0.01
		c-1.13-0.02-1.53,0.33-1.45,1.45c0.08,1.2-0.03,2.41,0.03,3.61c0.08,1.71-1.15,2.68-2.34,3.19C53.79,32.28,52.05,32.67,50.65,31.24
		z"/>
	<path class="st0" d="M101.86,38.79c-0.1,0.44-0.22,0.87-0.29,1.31c-0.25,1.49,0.39,2.25,1.91,2.25c4.71,0.01,9.42,0.01,14.13,0.02
		c1.75,0.01,2.07,0.53,1.31,2.07c-0.44,0.89-0.96,1.75-1.34,2.66c-0.64,1.55-1.87,1.92-3.39,1.92c-6.01-0.01-12.03-0.04-18.04,0.02
		c-2.04,0.02-4.08,0.32-6.14,0.26c-0.9-0.03-1.39,0.47-1.43,1.38c-0.04,0.85-0.01,1.58,1.14,1.72c0.69,0.08,1.38,0.21,2.08,0.21
		c6.97,0,13.93,0.01,20.9,0.02c0.57,0,1.27-0.22,1.64,0.43c0.37,0.65-0.17,1.07-0.47,1.6c-2.1,3.71-4.46,7.23-7.51,10.23
		c-1.18,1.16-2.16,2.65-3.93,3.08c3.89-3.35,7.26-7.15,9.89-11.57c0.55-0.93,1.73-1.97,1.32-2.82c-0.4-0.85-1.91-0.31-2.92-0.32
		c-6.37-0.05-12.73-0.04-19.1-0.06c-0.5,0-1.01,0.02-1.5-0.03c-1.43-0.14-2.23-1.02-2.17-2.36c0.06-1.17,0.99-2.09,2.26-2.12
		c3.65-0.09,7.31-0.2,10.96-0.23c4.21-0.04,8.42-0.08,12.63,0.02c1.95,0.05,3.06-0.75,3.86-2.44c1.46-3.07,1.5-3.05-1.96-3.05
		c-3.91-0.01-7.82,0.01-11.73-0.05c-2.34-0.03-3.14-0.83-3.02-2.73C101,39.54,101.22,39.05,101.86,38.79z"/>
	<path class="st0" d="M182.27,36.08c0.27-0.77,0.93-0.65,1.52-0.65c8.67-0.01,17.35-0.01,26.02,0c1.98,0,3.37,1.43,3.42,3.6
		c0.07,3.41,0.05,6.82,0.01,10.22c-0.03,2.01-1.77,3.72-3.63,3.68c-1.88-0.04-3.28-1.61-3.29-3.73c-0.01-1.9-0.07-3.81,0.02-5.71
		c0.05-1.14-0.35-1.44-1.46-1.43c-6.77,0.05-13.54,0.02-20.31,0.02c-2.72,0-4.05-1.44-3.85-4.1
		C180.79,36.96,181.21,36.27,182.27,36.08c0.13,0.6-0.27,1.05-0.45,1.56c-0.58,1.69,0.21,3.03,1.97,3.3c0.6,0.09,1.2,0.06,1.8,0.06
		c6.21,0,12.43-0.01,18.64,0.01c2.49,0.01,2.85,0.38,2.87,2.89c0.01,1.4,0,2.81,0.01,4.21c0,0.55,0.03,1.1,0.19,1.64
		c0.39,1.26,1.4,2.08,2.48,2.03c1.2-0.06,2.11-0.96,2.32-2.37c0.17-1.14,0.07-2.3,0.08-3.45c0.01-2.05,0.04-4.11-0.01-6.16
		c-0.07-2.49-1.14-3.55-3.64-3.55c-8.37,0-16.74-0.07-25.11,0.04C183.03,36.29,182.62,36.36,182.27,36.08z"/>
	<path class="st0" d="M140.37,63.77c0.66,0.91,0.05,1.06-0.69,1.16c-2,0.27-2.96,1.24-2.9,3.24c0.08,2.85-0.27,5.68-0.09,8.54
		c0.14,2.29-0.18,4.6-0.16,6.9c0.03,4.89,0.16,9.79,0.22,14.68c0.02,1.47,0.76,2.52,1.83,3.41c-1.44-0.11-1.82-1.22-2.11-2.34
		c-0.68-2.64-0.4-5.38-0.5-8.05c-0.21-5.7-0.14-11.42-0.03-17.12c0.04-2.13,0.07-4.28,0.4-6.41c0.3-1.91,1.27-3.09,3.19-3.42
		C139.93,64.27,140.19,64.09,140.37,63.77z"/>
	<path class="st0" d="M114.78,93.25c0.78-2.41,2.06-4.61,2.72-7.07c1.4-5.2,2.29-10.43,1.51-15.83c-0.4-2.75-1.93-4.14-4.63-4.2
		c-0.33-0.01-0.76,0.17-0.93-0.25c-0.15-0.36,0.12-0.68,0.34-0.93c0.29-0.34,0.64-0.62,0.96-0.93c0.16,0.52-0.42,0.77-0.46,1.35
		c1.77-0.03,3.09,0.85,4.15,2.17c1.09,1.36,1.32,3.05,1.38,4.67c0.26,7.12-1.12,13.91-4.36,20.3
		C115.3,92.83,115.16,93.14,114.78,93.25z"/>
	<path class="st0" d="M115.45,62.89c1.9-3.17,3.24-6.71,6.36-9.03c1.13-0.84,2.4-1.22,3.75-1.23c2.09-0.02,4.18-0.12,6.28,0.21
		c0.89,0.14,1.54,0.54,1.95,1.21c1.97,3.18,4.17,6.19,6.44,9.16c0.11,0.14,0.1,0.37,0.15,0.56c-1.71-1.36-2.72-3.28-3.97-4.99
		c-0.82-1.12-1.67-2.26-2.3-3.49c-0.76-1.48-1.87-2.1-3.49-2.06c-1.4,0.03-2.8,0.01-4.2-0.05c-3.31-0.15-5.53,1.51-7.22,4.18
		C118,59.23,117.22,61.4,115.45,62.89z"/>
	<path class="st0" d="M121.11,24.64c-4.07-0.92-7.09-3.13-8.48-7.17c-0.53-1.54-1.09-3.2,0.06-4.72c0.9-1.18,2.11-1.88,3.65-1.58
		c1.68,0.33,2.66,1.54,3.24,3.03c0.52,1.34,0.83,2.77,1.31,4.13c0.43,1.21,0.96,2.38,1.45,3.57c-0.13,0.1-0.27,0.12-0.43,0.07
		c-1.69-1.54-2.06-3.71-2.66-5.75c-0.31-1.07-0.66-2.1-1.34-2.99c-0.83-1.08-1.94-1.39-3.2-0.93c-1.23,0.45-1.68,1.45-1.58,2.62
		c0.26,3.24,1.62,5.81,4.58,7.44c1.17,0.64,2.54,0.89,3.53,1.87C121.26,24.38,121.21,24.52,121.11,24.64z"/>
	<path class="st0" d="M203.93,65.55c0.49-0.01,0.91,0.07,0.91,0.71c-0.01,2.2,0,4.4-0.01,6.59c0,0.37-0.25,0.51-0.59,0.52
		c0-2.03,0-4.06,0-6.09C204.24,66.68,204.25,66.09,203.93,65.55z"/>
	<path class="st0" d="M121.11,24.64c0-0.12,0.01-0.24,0.01-0.36c0.42-0.49,1.05-0.13,1.57-0.37c0.08-0.77-0.96-1.17-0.68-2
		c0.11,0,0.22,0,0.33-0.01c0.2,0.21,0.47,0.39,0.58,0.64c0.33,0.74,1.78,1.27,0.94,2.16C123.25,25.35,122.03,25.11,121.11,24.64z"/>
	<path class="st0" d="M138.58,101.69c1.57,0.47,2.91-0.12,4.21-0.92C141.75,102.41,139.94,102.81,138.58,101.69z"/>
	<path class="st0" d="M235.59,72.84c1.64-0.44,2.27-1.82,2.93-3.17c0.58-1.17,1.11-2.37,2.76-2.33c1.89,0.05,3.46,0.74,4.4,2.38
		c0.97,1.7,1.16,3.62,0.94,5.54c-0.15,1.32-1.05,2.24-2.23,2.6c-1.37,0.42-2.78,0.72-4.27,0.71c-8.02-0.04-16.04-0.01-24.06,0
		c-1.9,0-1.9,0.01-1.9,1.95c0,5.41-0.01,10.82-0.02,16.24c0,0.45,0.01,0.9-0.02,1.35c-0.17,3.18-1.51,4.49-4.57,4.46
		c-2.75-0.03-4.3-1.64-4.34-4.63c-0.05-4.16-0.02-8.32-0.03-12.48c0.51-2.07,0.23-4.17,0.17-6.25c-0.03-0.91-0.93-0.73-1.56-0.73
		c-4.57-0.01-9.13-0.01-13.7-0.01c-4.67,0-9.33-0.02-14,0.01c-1.3,0.01-2.11-0.66-2.47-1.79c-0.34-1.06,0.17-1.92,1.01-2.63
		c0.54-0.45,1.14-0.32,1.72-0.32c8.98-0.01,17.96-0.01,26.94-0.01c2.1,0,2.1-0.01,2.1-2.06c0-1.55-0.1-3.12,0.03-4.66
		c0.12-1.45-0.67-2.04-1.84-2.27c-8.13-1.6-13.85-6.48-18.12-13.3c-0.74-1.17-1.28-2.47-1.86-3.74c-0.53-1.18-0.19-1.58,1.05-1.73
		c2.81-0.33,4.76,0.28,6.2,3.19c2.28,4.6,6.39,7.56,11.14,9.29c3.36,1.22,6.92,1.68,10.61,1.13c6.74-1.01,11.94-4.31,15.66-9.92
		c6.73-10.18,3.86-23.81-6.25-30.66c-3.85-2.61-8.05-4.04-12.64-3.96c-9.14,0.16-17.44,5.98-20.57,14.8
		c-0.52,1.45-1.26,2.22-2.83,2.01c-0.3-0.04-0.6-0.01-0.9-0.01c-2.77,0-2.91-0.17-2.05-2.76c2.9-8.75,8.61-15.02,17.28-18.04
		c8.98-3.13,17.61-1.96,25.5,3.64c3.75,2.66,6.7,6,8.79,10.07c2.39,4.67,3.28,9.61,2.89,14.87c-0.34,4.68-1.73,8.93-4.23,12.86
		c-0.12,0.19-0.09,0.48-0.13,0.72c-3.05,4.33-6.87,7.75-11.71,9.97c-1.95,0.9-4,1.52-6.09,2c-0.85,0.2-1.15,0.6-1.13,1.44
		c0.04,1.85,0.03,3.7,0.01,5.56c-0.01,0.99,0.38,1.46,1.42,1.46c5.81-0.02,11.62-0.01,17.42-0.03
		C233.95,73.61,234.84,73.41,235.59,72.84z"/>
	<path class="st0" d="M262.94,64.92c-2.04,0.67-3.95,1.74-6.07,2.12c-2.38,0.42-4.79,1.1-7.35,0.05c0.92-1.19,2.3-1.28,3.41-1.82
		c4.99-2.43,9.39-5.73,13.52-9.38c4.89-4.33,9.36-9.07,13.89-13.76c2.36-2.45,4.85-4.82,8.06-6.17c3.49-1.47,6.6,0.21,6.39,3.91
		c-0.09,1.5,0.54,2.41,1.68,3.25c2.97,2.19,6.4,3.29,9.87,4.22c5.75,1.55,11.48,3.23,17.37,4.2c0.99,0.16,1.99,0.44,2.97,0.4
		c3.37-0.13,4.31,3.06,3.59,5.68c-0.74,2.67-3.36,4.48-6.2,4.65c-5.37,0.32-9.96-1.82-14.3-4.57c-6.16-3.9-11.93-8.32-16.67-13.92
		c-0.98-1.16-1.67-0.62-2.49,0.05c-3.21,2.64-6.44,5.26-9.64,7.92c-5.12,4.26-10.37,8.34-15.94,12
		C264.31,64.08,263.54,64.36,262.94,64.92z"/>
	<path class="st0" d="M243.05,9.26c1.91-0.09,2.78,0.81,3.23,2.05c0.47,1.29,0.1,2.57-1.03,3.35c-2.02,1.39-4.09,2.71-6.23,3.89
		c-1.41,0.78-3.08,0.14-3.93-1.21c-0.78-1.25-0.62-2.85,0.6-3.8c2.02-1.56,4.22-2.85,6.46-4.08C242.52,9.25,243.01,9.27,243.05,9.26
		z"/>
	<path class="st0" d="M266.25,32.42c-0.2,0.31-0.41,0.61-0.61,0.92c-2.01,1.29-4.17,2-6.59,1.81c-0.74-0.48-0.73-1.1-0.15-1.62
		c1.86-1.63,2.7-3.94,4.05-5.91c0.4-0.43,0.13-1.12,0.6-1.52c0.4-0.42,0.13-1.1,0.59-1.49c0.17-1.62,0.76-3.09,1.58-4.46
		c1.67-2.79,5.49-2.94,7.49-0.32c0.33,0.44,0.47,1.3,1.24,1.05c0.82-0.26,0.5-1.1,0.53-1.71c0.12-2.5,0.26-4.99,0.31-7.49
		c0.04-1.96,0.56-2.69,2.74-2.98c1.63-0.22,3.2,1.11,3.21,2.78c0.01,1.33,0.59,1.46,1.64,1.42c1.58-0.06,3.19,0.22,4.52-1.07
		c0.63-0.61,1.53-0.15,2.32-0.16c0.65,0.92,1.71,1.55,1.81,2.83c0.13,1.71-0.82,2.81-2.66,2.86c-2.04,0.06-4.09,0.01-6.13,0.03
		c-0.48,0-1.01-0.18-1.4,0.29c0.32,0.36,0.42,0.8,0.38,1.25c-0.13,1.37,0.58,1.68,1.8,1.65c0.92-0.02,1.74-0.4,2.62-0.47
		c0.84-0.41,1.36-1.84,2.65-0.84c1.41,1.08,1.82,2.52,1.42,3.93c-0.72,2.54-2.05,4.78-3.19,7.12c-2.63,4.53-5.94,8.51-9.79,12.04
		c-0.87,0.8-1.71,1.67-2.84,2.14c-0.11-0.12-0.17-0.27-0.16-0.43c0.24-0.85,1.02-1.21,1.61-1.72c5.83-4.98,10.1-11.08,13.1-18.1
		c0.39-0.91,0.5-1.85,0.28-2.8c-0.3-1.34-1.25-1.62-2.26-0.7c-0.98,0.9-4.67,1.35-5.84,0.72c-0.49-0.26-0.7-0.69-0.78-1.21
		c-0.07-0.5-0.06-1-0.05-1.5c0.03-2,0.39-2.37,2.38-2.4c1.91-0.02,3.81,0,5.72-0.01c0.89-0.01,1.75-0.11,2.03-1.16
		c0.24-0.92-0.09-1.67-0.83-2.25c-0.8-0.63-1.55-0.5-2.33,0.08c-1.84,1.36-3.93,0.85-5.95,0.68c-0.6-0.05-0.87-0.62-0.96-1.21
		c-0.06-0.4-0.05-0.8-0.15-1.19c-0.28-1.07-1.14-1.61-2.28-1.48c-1.06,0.12-1.65,0.68-1.6,1.79c0.12,2.56-0.48,5.09-0.32,7.65
		c0.02,0.35,0,0.7-0.06,1.05c-0.12,0.75-0.48,1.33-1.26,1.52c-0.7,0.17-1.28-0.1-1.73-0.65c-0.16-0.19-0.29-0.41-0.44-0.61
		c-1.02-1.35-2.44-1.7-4.02-1.53c-1.47,0.17-2.07,1.32-2.47,2.54c-0.87,2.66-1.4,5.42-2.85,7.89c-0.91,1.55-1.9,3.04-3.13,4.66
		c1.8-0.02,3.16-0.71,4.54-1.33C265.12,32.58,265.57,32.04,266.25,32.42z"/>
	<path class="st0" d="M223.19,7.95c0.36-1.73,0.74-3.94,1.3-6.11c0.33-1.27,2.1-2.08,3.43-1.78c1.39,0.32,2.51,1.64,2.35,3.05
		c-0.22,1.98-0.53,3.96-0.96,5.9c-0.4,1.78-1.96,2.81-3.52,2.55C224.23,11.3,223.17,10.03,223.19,7.95z"/>
	<path class="st0" d="M271.68,62.22c1.29-1,2.39-2.34,4.22-2.4c0.12,0.15,0.15,0.32,0.09,0.51c-0.34,0.56-0.97,0.67-1.5,0.94
		c-1.64,0.85-2.45,2.19-2.31,4.03c0.57,7.54,0.13,15.09,0.25,22.64c0.05,3,0.06,6-0.01,9c-0.04,1.76,0.71,3.17,1.53,4.62
		c0.6,1.05,1.7,0.91,2.55,1.34c-1.03,0.91-2.02,0.9-2.85-0.05c-0.25-0.29-0.5-0.59-0.75-0.88c0,0,0,0.01,0,0.01
		c-0.55-0.74-0.96-1.55-1.22-2.44c-0.41-1.46-0.36-2.96-0.37-4.46c-0.06-10.2-0.13-20.4-0.2-30.6
		C271.13,63.68,271.07,62.87,271.68,62.22z"/>
	<path class="st0" d="M274.39,44.17c0.01,0.12,0.02,0.23,0.02,0.35c-4.23,3.37-8.88,5.77-14.41,5.91c-1.37,0.03-2.46-0.75-2.88-2.21
		c-0.39-1.35-0.46-2.58,0.97-3.41c0.25-0.15,0.45-0.38,0.67-0.58c2.97-0.37,5.91-0.9,8.64-2.2c0.43-0.2,0.82-0.31,1.28-0.26
		c0.02,0.79-0.66,0.92-1.15,1.18c-2.06,1.09-4.35,1.44-6.59,1.92c-0.49,0.1-0.99,0.14-1.46,0.32c-1.34,0.51-1.77,1.3-1.46,2.69
		c0.24,1.06,1.11,1.66,2.39,1.55c3.43-0.29,6.71-1.07,9.61-3.02c1.08-0.72,2.29-1.23,3.29-2.08
		C273.6,44.08,273.97,43.86,274.39,44.17z"/>
	<path class="st0" d="M262.95,27.63c-0.59,2.27-1.99,4.05-3.51,5.74c-0.49,0.54-1.01,1.02-0.4,1.78c-0.88-0.1-1.26-0.9-0.75-1.33
		c1.96-1.64,2.57-4.19,4.29-5.95C262.68,27.77,262.83,27.71,262.95,27.63z"/>
	<path class="st0" d="M272.89,58.94c1.63-1.4,3.23-2.85,5.12-3.91C276.6,56.72,275.06,58.25,272.89,58.94z"/>
	<path class="st0" d="M271.7,99.54c0.54,0.75,0.95,1.56,1.22,2.44C272.09,101.38,271.59,100.61,271.7,99.54z"/>
	<path class="st0" d="M264.15,24.62c0,0.58,0.1,1.19-0.59,1.49C263.46,25.5,263.15,24.8,264.15,24.62z"/>
	<path class="st0" d="M301.5,33.05c-2.55,1.41-5.27,2.08-8.19,1.86c-0.4-0.03-1.03,0.19-1.09-0.46c-0.05-0.54,0.47-0.64,0.92-0.79
		c3.12-1.03,5.32-3.26,7.36-5.7c0.06-0.07,0.04-0.19,0.06-0.29c-1.47-2.22-3.76-3.37-5.97-4.64c-0.21-0.12-0.47-0.17-0.69-0.29
		c-0.27-0.14-0.58-0.35-0.54-0.66c0.06-0.43,0.46-0.46,0.83-0.47c1.97-0.05,3.9,0.1,5.72,0.92c0.41,0.18,0.83,0.34,1.24,0.52
		c2.71,1.12,3.97,0.78,5.63-1.58c0.46-0.65,0.96-1.28,1.31-2.01c0.49-1,0.17-1.64-0.94-1.75c-0.7-0.07-1.4,0.05-2.1,0.06
		c-3.11,0.07-6.22,0.08-9.32-0.08c-1.09-0.06-1.47-0.67-1.45-1.68c0.02-1.1,0.61-1.55,1.63-1.46c3.45,0.3,6.91,0.06,10.37,0.14
		c2.63,0.06,5.12-0.37,7.49-1.68c2.33-1.29,4.79,0.1,5.25,2.76c0.34,1.97-0.21,3.65-1.57,5.1c-2.03,2.16-4.28,4.07-6.57,5.95
		c-1.15,0.94-1.1,1.09,0.13,1.9c3.39,2.23,6.6,4.68,9.21,7.84c1.59,1.92,1.78,4.5,0.35,6.02c-1.54,1.62-4.78,1.79-6.61,0.36
		c-2.34-1.83-3.64-4.49-5.43-6.76c-0.96-1.21-1.95-2.4-2.89-3.63c-0.71-0.93-1.55-1.2-2.57-0.38
		C302.6,32.53,302.02,32.75,301.5,33.05z"/>
	<path class="st0" d="M301.5,33.05c2.83-2.43,3.47-1.76,5.06,0.27c1.87,2.41,3.6,4.92,5.52,7.29c1.25,1.54,2.46,3.1,4.86,3.03
		c1.78-0.05,3.19-0.57,4.02-2.09c0.92-1.66,0.33-3.33-0.76-4.62c-2.72-3.23-5.86-6-9.55-8.1c-1.25-0.71-1.32-1.2-0.2-2.06
		c2.34-1.81,4.62-3.68,6.63-5.86c1.37-1.49,2.26-3.2,1.62-5.32c-0.75-2.5-2.86-3.48-5.08-2.24c-2.12,1.19-4.38,1.65-6.74,1.61
		c-3.65-0.07-7.31,0.29-10.96-0.21c-0.76-0.11-1.36,0.2-1.38,1.16c-0.03,0.97,0.26,1.51,1.35,1.51c3.51-0.03,7.02-0.01,10.54,0
		c2.14,0.01,2.65,0.82,1.6,2.61c-0.43,0.73-0.92,1.43-1.47,2.08c-1.91,2.26-2.89,2.5-6.33,0.88c-2.14-1.01-4.29-1.17-6.91-0.99
		c1.41,0.83,2.61,1.46,3.71,2.21c1.37,0.94,2.95,1.71,3.54,3.46c-2.04-2.02-4.34-3.64-6.97-4.83c-1.37-0.62-1.31-0.82,0.13-1.79
		l-0.01-0.01c0.82,0.53,1.77,0.26,2.65,0.36c1.82,0.21,3.49,0.8,5.14,1.54c2.02,0.91,3.04,0.7,4.53-0.94
		c0.64-0.7,1.17-1.5,1.67-2.31c0.71-1.15,0.41-1.74-0.94-1.63c-2.4,0.19-4.81,0.2-7.21,0.17c-1.3-0.02-2.6-0.1-3.89-0.24
		c-1.19-0.13-1.78-0.87-1.69-2.06c0.09-1.13,0.7-1.64,1.9-1.62c3.61,0.06,7.22,0.05,10.84,0.06c2.48,0.01,4.83-0.4,7.05-1.67
		c2.46-1.4,5.33,0.37,5.56,3.2c0.18,2.2-0.43,3.97-2.05,5.52c-1.96,1.87-3.87,3.79-6.04,5.41c-0.88,0.66-1.07,1.09,0.05,1.82
		c3.36,2.19,6.59,4.55,9.13,7.73c1.64,2.05,1.87,4.85,0.38,6.42c-1.63,1.72-4.83,1.82-6.93,0.36c-2.05-1.43-3.06-3.67-4.56-5.53
		c-1.23-1.51-2.43-3.06-3.58-4.64c-0.77-1.06-1.54-1.51-2.71-0.54C302.58,32.78,302.13,33.21,301.5,33.05z"/>
	<path class="st0" d="M283.77,89.08c-1.16,1.24-2.9,1.39-4.26,2.29c-0.35,0.23-0.53-0.23-0.65-0.59c-0.33-0.95,0.07-1.89,0.01-2.83
		c-0.29-4.65-0.14-9.31-0.23-13.96c-0.03-1.37,0.38-1.84,1.78-1.83c7.17,0.06,14.33,0.06,21.5,0c1.53-0.01,1.73,0.68,1.69,1.93
		c-0.03,1.2,0.01,2.13-1.69,2.1c-6.06-0.08-12.13-0.03-18.19-0.02c-0.45,0-0.95-0.07-1.33,0.11c-0.88,0.41-1.46,1.16-1.26,2.16
		c0.19,0.95,0.9,1.34,1.89,1.33c6.01-0.02,12.03,0.03,18.04-0.03c1.3-0.01,2.22,0.39,2.88,1.47c-1.57-1.16-3.39-0.86-5.16-0.87
		c-5.62-0.01-11.24-0.01-16.85-0.01c-1.7-1.36-1.88-2.32-0.83-3.77c0.53-0.73,1.22-0.76,1.99-0.76c6.11,0,12.23-0.04,18.34,0.03
		c1.28,0.01,1.6-0.39,1.6-1.61c0-1.24-0.23-1.75-1.64-1.73c-6.77,0.08-13.53,0.06-20.3,0.01c-1.22-0.01-1.64,0.3-1.62,1.58
		c0.07,5.16,0.05,10.32,0.02,15.48c-0.01,1.23,0.27,1.41,1.3,0.71C281.66,89.64,282.65,89.14,283.77,89.08z"/>
	<path class="st0" d="M297.27,90.58c-1.93-1.7-3.88-3.38-5.78-5.11c-0.48-0.44-1.34-0.83-1.03-1.64c0.36-0.94,1.3-0.38,1.98-0.5
		c4.51,1.24,8.74,3.3,13.32,4.32c1.65,0.37,2.76-0.09,3.64-1.33c1.09-1.55,2.11-3.15,2.84-4.91c0.93-2.25,1.5-2.46,3.74-1.45
		c0.12,0.13,0.13,0.26,0.01,0.4c-0.22,0.14-0.47,0.19-0.72,0.14c-1.23-0.28-1.88,0.35-2.3,1.4c-0.65,1.65-1.64,3.1-2.65,4.53
		c-1.59,2.24-2.73,2.64-5.4,1.99c-3.13-0.76-6.1-1.99-9.13-3.04c-1.17-0.41-2.31-0.96-3.61-0.9c-0.1,0.57,0.37,0.7,0.64,0.94
		c2.78,2.46,5.56,4.91,8.48,7.2c0.46,0.36,1.06,0.65,0.92,1.41c-0.05,0.06-0.1,0.11-0.15,0.17
		C300.28,93.25,298.96,91.68,297.27,90.58z"/>
	<path class="st0" d="M315.95,80.33c0.01-0.12,0.02-0.24,0.03-0.36c3.88,2.32,3.6,6.28-0.64,8.75c-0.85,0.49-1.8,0.84-2.72,1.2
		c-0.3,0.12-0.6,0.24-0.62,0.56c-0.03,0.46,0.4,0.3,0.65,0.38c1.47,0.46,2.94,0.92,4.23,1.8c0.54,0.37,1.07,0.75,1.26,1.43
		c-0.05,0.05-0.11,0.1-0.16,0.15c-2.13-1.08-4.23-2.19-6.55-2.85c-0.87-0.25-0.9-1.13-0.14-1.75c0.51-0.42,1.16-0.56,1.75-0.84
		c0.68-0.32,1.37-0.61,2-1.02c3.03-1.98,3.36-3.91,1.16-6.78C316.03,80.8,315.87,80.61,315.95,80.33z"/>
	<path class="st0" d="M318.13,94.08c1.6,0.95,1.38,2.64,1.3,4.02c-0.21,3.48-2.17,4.36-5.71,3.18c-4.01-1.33-7.28-3.83-10.7-6.12
		c-0.37-0.25-0.64-0.63-0.96-0.95c0,0,0.07-0.12,0.07-0.12c0.82-0.47,1.31,0.18,1.83,0.59c3,2.36,6.14,4.46,9.78,5.73
		c1.37,0.48,2.86,1.17,4.06-0.12c1.22-1.31,0.82-2.99,0.51-4.56c-0.1-0.51-0.65-0.93-0.3-1.53
		C318.06,94.16,318.1,94.12,318.13,94.08z"/>
	<path class="st0" d="M295.49,58.66c-0.2-0.9,0.73-1.57,0.4-2.58c-0.5-1.51-1.26-2.63-2.77-3.24c-1.78-0.71-3.59-1.17-5.51-1.1
		c-0.34,0.01-1.1,0.01-0.63,0.56c1.53,1.78,2.04,4.01,2.93,6.08c0.04,0.09,0.09,0.18,0.13,0.27c-0.11,0.17-0.22,0.18-0.35,0.02
		c-0.54-0.27-0.48-0.82-0.64-1.28c-0.57-1.7-1.2-3.37-2.48-4.7c-0.32-0.33-0.62-0.71-0.39-1.2c0.25-0.53,0.77-0.34,1.2-0.36
		c2.03-0.09,3.96,0.38,5.81,1.19c2.22,0.97,3.25,2.68,3.16,5.08C296.03,57.78,296.1,58.45,295.49,58.66z"/>
	<path class="st0" d="M285.23,94.16c0.69-1.67,2.32-2.53,3.4-3.86c0.39-0.48,1.28-0.82,1-1.5c-0.29-0.71-1.15-0.27-1.76-0.33
		c-0.89-0.09-1.74,0.44-2.65,0.26c1.21-1.04,2.68-0.98,4.1-0.82c0.95,0.1,1.31,0.87,0.63,1.6
		C288.45,91.12,287.02,92.82,285.23,94.16z"/>
	<path class="st0" d="M66.36,79.56c-0.06-1.48-0.47-2.78-1.92-3.25c-1.32-0.43-2.77-0.59-3.93,0.6c-1.2,1.23-2.69,1.57-4.38,1.57
		c-10.54-0.02-21.07-0.01-31.61,0.05c-1.81,0.01-3.41-0.07-4.72-1.64c-1.01-1.2-2.65-1.07-3.94-0.62c-1.26,0.43-1.66,1.69-1.74,3.07
		c-0.35,6.37-0.14,12.73-0.17,19.1c-0.01,2.6,1.06,3.59,3.7,3.59c7.48,0,14.95,0,22.43,0c7.43,0,14.85,0,22.28,0
		c3.14,0,4.15-0.96,4.17-4.11C66.55,91.79,66.6,85.67,66.36,79.56z M54.7,97.86c-5.26-0.07-10.53-0.03-15.8-0.03
		c-5.22,0-10.43-0.05-15.65,0.03c-1.42,0.02-1.81-0.46-1.79-1.82c0.07-3.71,0.06-7.42,0-11.13c-0.02-1.36,0.32-1.96,1.86-1.95
		c10.48,0.06,20.96,0.06,31.44,0.01c1.43-0.01,1.93,0.41,1.89,1.87c-0.09,3.71-0.12,7.42,0.01,11.13
		C56.73,97.58,56.15,97.89,54.7,97.86z"/>
	<path class="st0" d="M59.77,49.25c-0.05-0.93-0.33-1.73-1.11-2.18c-1.88-1.09-5.66-0.79-6.73,0.76c-0.66,0.96-1.65,1.17-2.78,1.16
		c-6.22-0.03-12.45-0.03-18.67,0c-1.34,0.01-2.33-0.36-3.28-1.42c-1.15-1.28-2.79-1.45-4.44-0.98c-1.53,0.43-1.89,1.63-1.99,3.02
		c-0.42,5.91-0.21,11.83-0.2,17.75c0,1.86,1.32,3.04,3.19,3.05c5.47,0.02,10.94,0.01,16.41,0.01c5.52,0,11.04,0.01,16.56-0.01
		c1.8,0,2.97-0.98,2.96-2.66C59.7,61.59,60.09,55.42,59.77,49.25z M49.44,65.93c-3.36-0.09-6.72-0.03-10.08-0.03
		c-3.31,0-6.62-0.04-9.93,0.02c-1.03,0.02-1.43-0.29-1.41-1.36c0.05-3.06,0.05-6.12,0-9.18c-0.02-1.01,0.37-1.28,1.33-1.28
		c6.77,0.03,13.55,0.03,20.32,0c1.17-0.01,1.59,0.39,1.57,1.57c-0.06,2.81-0.08,5.62,0,8.42C51.27,65.46,50.86,65.97,49.44,65.93z"
		/>
	<path class="st0" d="M182.27,36.08c0.86-0.32,1.74-0.36,2.65-0.36c7.97,0.01,15.94,0,23.9,0.01c2.53,0,3.79,1.23,3.8,3.75
		c0.02,3.16,0.02,6.31,0,9.47c-0.01,2.04-1.11,3.34-2.82,3.39c-1.75,0.05-3.05-1.29-3.11-3.31c-0.06-1.9-0.08-3.81,0.01-5.71
		c0.06-1.36-0.37-1.84-1.79-1.83c-6.66,0.07-13.33,0.01-19.99,0.04c-1.48,0.01-2.85-0.13-3.57-1.64
		C180.63,38.41,181.34,37.21,182.27,36.08C182.26,36.08,182.27,36.08,182.27,36.08z"/>
	<path class="st0" d="M122.01,21.91c0.07,0.13,0.16,0.25,0.22,0.38c0.29,0.7,1.44,1.19,1.06,1.91c-0.42,0.78-1.42-0.1-2.16,0.08
		c-1.42-0.47-2.78-1.1-4.06-1.86c-2.97-1.76-4.21-4.54-4.35-7.85c-0.05-1.34,0.63-2.37,2.07-2.75c1.41-0.37,2.55-0.07,3.47,1.09
		c1.12,1.42,1.39,3.19,1.87,4.83C120.55,19.26,121.3,20.56,122.01,21.91z"/>
	<path class="st0" d="M289.7,58.66c0.12-0.01,0.23-0.02,0.35-0.02c0.04,0.43,0.19,0.88-0.24,1.22c-4.46,0.18-8.91,0.28-13.36-0.05
		c0.9-0.46,1.87-0.21,2.81-0.23c3.11-0.04,6.22-0.02,9.33-0.03C289.18,59.55,289.87,59.65,289.7,58.66z"/>
	<path class="st0" d="M276.44,59.81c4.45,0.02,8.91,0.03,13.36,0.05c-0.48,0.4-1.05,0.25-1.59,0.25c-4.1,0.02-8.2,0.03-12.3,0.05
		c0-0.11-0.01-0.22-0.01-0.34C276.08,59.82,276.26,59.82,276.44,59.81z"/>
	<path class="st0" d="M274.39,44.17c-2.69,1.71-5.32,3.53-8.35,4.63c-2,0.73-4.1,0.9-6.18,1.05c-1.15,0.08-2.04-0.56-2.29-1.75
		c-0.39-1.82-0.04-2.53,1.4-3.14c1.44-0.61,3.01-0.64,4.51-1.03c1.83-0.49,3.66-0.94,5.19-2.15c0,0,0,0,0,0
		c1-0.6,2.04-1.15,3.01-1.8c0.98-0.67,1.97-1.32,2.93-2.34c-0.86-0.09-1.54-0.12-2.2-0.25c-1.66-0.34-2.32-1.44-1.66-2.98
		c0.57-1.34,0.51-2.61,0.07-3.94c-0.14-0.42-0.23-0.88-0.27-1.32c-0.1-1.12,0.5-1.43,1.37-0.9c2.23,1.36,4.39,2.83,5.26,5.52
		c0.11,0.35,0.06,0.9,0.58,0.94c0.37,0.03,0.57-0.36,0.79-0.63c1.89-2.29,3.4-4.82,4.78-7.44c0.53-1,0.25-1.39-0.82-1.38
		c-3.16,0.01-6.32,0.02-9.48,0.03c-1.12,0-1.84,0.56-2.41,1.5c-1.23,2.05-2.42,4.16-4.37,5.66c-1.74,0.84-3.41,1.84-5.36,2.16
		c-0.48,0.08-1.07,0.49-1.4,0.03c-0.38-0.53,0.27-0.87,0.57-1.23c2.51-3.04,4.27-6.44,5.05-10.34c0.17-0.87,0.49-1.74,0.91-2.51
		c1.43-2.61,5.55-2.63,7-0.01c0.4,0.72,0.81,1.17,1.6,1c0.83-0.18,0.98-0.87,1-1.63c0.07-2.8,0.18-5.6,0.27-8.41
		c0.05-1.57,0.53-2.04,2.22-2.16c1.42-0.09,2.36,0.64,2.55,1.98c0.31,2.18,0.31,2.17,2.5,2.18c1.6,0.01,3.18,0.15,4.46-1.23
		c0.64-0.69,1.5-0.23,2.18,0.26c1,0.71,1.44,1.67,1.14,2.87c-0.21,0.85-0.79,1.39-1.72,1.4c-2.31,0.02-4.62,0.06-6.92,0.01
		c-1.13-0.02-1.63,0.33-1.64,1.54c-0.04,3.03-0.09,3.01,3,3.02c1.37,0,2.73,0.11,3.49-1.42c0.21-0.42,0.74-0.63,1.18-0.37
		c0.69,0.41,1.31,0.92,1.45,1.81c0.24,1.5-0.23,2.86-0.86,4.17c-3.44,7.17-7.94,13.52-14.36,18.38
		C274.49,43.98,274.45,44.09,274.39,44.17z"/>
	<path class="st0" d="M271.68,39.97c-0.82,0.91-1.81,1.53-3.01,1.8C269.51,40.89,270.5,40.27,271.68,39.97z"/>
	<path class="st0" d="M310.57,62.67c-0.02-2.2-4.16-5.16-6.01-4.07c-2.71,1.58-5.51,1.04-8.31,1.21c-1.05,0.07-1.03-0.43-0.75-1.15
		c0.92-2.23,0.75-3.91-0.77-5.09c-2.12-1.64-4.64-2.21-7.29-2.13c-0.84,0.03-1.08,0.49-0.54,1.18c0.93,1.17,1.57,2.47,2.1,3.87
		c0.27,0.72,0.19,1.61,0.88,2.17c0.08,0.53,0.09,1.02-0.59,1.15c-3.73,0.07-7.46,0.01-11.19,0.03c-0.74,0-1.49-0.04-2.18,0.32
		c-0.17,0.09-0.33,0.22-0.51,0.28c-2.61,0.74-3.79,2.24-3.68,4.87c0.05,1.24,0.26,2.47,0.26,3.73c-0.02,9.32,0.04,18.63-0.04,27.95
		c-0.02,1.88,0.76,3.36,1.61,4.86c0.65,1.15,1.63,1.68,2.97,1.06c3.37-2.46,5.77-5.88,8.72-8.74c1.22-1.51,2.69-2.78,4.03-4.18
		c0.37-0.39,0.88-0.77,0.61-1.39c-0.24-0.57-0.84-0.4-1.31-0.45c-1.17-0.11-2.24,0.27-3.33,0.58c-0.48,0.12-0.97,0.24-1.45,0.35
		c-1.01,0.66-2.23,0.88-3.24,1.53c-0.98,0.63-1.44,0.37-1.42-0.82c0.1-5.26-0.15-10.51-0.05-15.76c0.03-1.63,0.07-1.69,1.71-1.69
		c6.97,0,13.93,0,20.9,0c1.63,0,1.63,0.01,1.64,1.71c0.01,1.87-0.01,1.9-1.6,1.9c-5.96,0-11.93,0-17.89,0c-0.4,0-0.8-0.03-1.2,0.02
		c-1.06,0.14-1.53,0.95-1.8,1.81c-0.28,0.89,0.31,1.53,0.99,2.01c0.48,0.34,1.07,0.21,1.61,0.21c5.61,0.01,11.23,0.04,16.84-0.02
		c1.42-0.02,2.67,0.15,3.68,1.21c1.57,0.5,3.15,0.48,4.72,0.03c1.17-0.33,1.91-1.08,1.91-2.36
		C310.59,73.47,310.62,68.07,310.57,62.67z M301.48,67.68c-3.45-0.12-6.91-0.04-10.36-0.04c0,0,0,0.01,0,0.01
		c-3.51,0-7.01-0.09-10.51,0.04c-1.87,0.07-1.63-1.04-1.7-2.22c-0.08-1.32,0.27-1.84,1.73-1.82c6.96,0.08,13.92,0.09,20.88,0.01
		c1.56-0.02,1.82,0.62,1.82,1.95C303.34,66.96,303.17,67.74,301.48,67.68z"/>
	<path class="st0" d="M318.03,94.19c0.84,1.26,1.01,2.65,0.94,4.14c-0.12,2.48-1.81,3.66-4.2,2.89c-4.18-1.35-7.81-3.66-11.21-6.37
		c-0.44-0.35-0.82-0.74-1.41-0.77c-0.78-1.34-2.22-1.95-3.31-2.95c-2.24-2.05-4.63-3.95-6.95-5.91c-0.3-0.25-0.72-0.53-0.54-0.97
		c0.23-0.56,0.78-0.33,1.19-0.24c2.88,0.61,5.57,1.82,8.32,2.79c1.79,0.63,3.62,1.11,5.46,1.56c1.63,0.4,2.67-0.71,3.48-1.85
		c1.04-1.45,2.04-2.93,2.74-4.62c0.89-2.15,1.2-2.21,3.41-1.57c3.02,2.48,2.87,5.37-0.37,7.57c-1.13,0.76-2.35,1.3-3.62,1.73
		c-0.54,0.19-0.94,0.47-0.91,1.02c0.03,0.53,0.59,0.38,0.95,0.5C314.14,91.91,316.36,92.51,318.03,94.19z"/>
</g>
</svg>
