<!-- Generator: Adobe Illustrator 25.2.1, SVG Export Plug-In  -->
<svg version="1.1" xmlns="http://www.w3.org/2000/svg" xmlns:xlink="http://www.w3.org/1999/xlink" x="0px" y="0px"
	 width="913.44px" height="541.58px" viewBox="0 0 913.44 541.58"
	 style="overflow:visible;enable-background:new 0 0 913.44 541.58;" xml:space="preserve">
<style type="text/css">
	.st0{fill:#FFE7CD;}
	.st1{fill:#5D3E4B;}
</style>
<defs>
</defs>
<g>
	<path class="st0" d="M861.1,541.58H52.34C23.43,541.58,0,518.15,0,489.24V52.34C0,23.43,23.43,0,52.34,0H861.1
		c28.91,0,52.34,23.43,52.34,52.34v436.9C913.44,518.15,890,541.58,861.1,541.58z"/>
	<path class="st1" d="M664.63,510.49H269.56c-10.05,0-18.2-8.15-18.2-18.2v-33.63c0-10.05,8.15-18.2,18.2-18.2h395.07
		c10.05,0,18.2,8.15,18.2,18.2v33.63C682.82,502.35,674.68,510.49,664.63,510.49z"/>
</g>
</svg>
