<!-- Generator: Adobe Illustrator 25.2.1, SVG Export Plug-In  -->
<svg version="1.1" xmlns="http://www.w3.org/2000/svg" xmlns:xlink="http://www.w3.org/1999/xlink" x="0px" y="0px"
	 width="145.67px" height="149.03px" viewBox="0 0 145.67 149.03"
	 style="overflow:visible;enable-background:new 0 0 145.67 149.03;" xml:space="preserve">
<style type="text/css">
	.st0{fill:#5D3E4B;}
</style>
<defs>
</defs>
<path class="st0" d="M144.65,52.02c0.6-1.44,0.95-3.01,1.01-4.63c0-0.18,0-0.35,0.02-0.53v-0.17l-0.28-30.55
	c-0.07-7.52-6.19-13.58-13.7-13.58h-0.13c-6.81,0.07-12.4,5.06-13.41,11.59c-1.63-1.18-3.3-2.29-5.03-3.34
	C96.1,0.5,76.08-2.57,56.75,2.18C37.44,6.89,21.12,18.88,10.81,35.9S-2.57,72.94,2.18,92.26s16.72,35.65,33.74,45.96
	c11.79,7.14,25.02,10.81,38.47,10.81c5.96,0,11.95-0.71,17.9-2.17c19.33-4.75,35.65-16.74,45.96-33.75
	c3.92-6.47,1.86-14.91-4.62-18.83c-6.47-3.92-14.91-1.86-18.83,4.62c-13.45,22.2-42.45,29.32-64.67,15.87
	c-10.76-6.51-18.33-16.83-21.33-29.04c-3.01-12.22-1.06-24.85,5.46-35.61c13.3-21.93,41.77-29.15,63.87-16.34
	c-6.03,1.49-10.48,6.96-10.41,13.43c0.07,7.52,6.19,13.58,13.7,13.58h0.13l30.55-0.28c5.2-0.05,9.71-2.99,11.99-7.29
	c0.2-0.37,0.37-0.75,0.53-1.13C144.63,52.07,144.65,52.04,144.65,52.02L144.65,52.02z"/>
</svg>
