<!-- Generator: Adobe Illustrator 25.2.1, SVG Export Plug-In  -->
<svg version="1.1" xmlns="http://www.w3.org/2000/svg" xmlns:xlink="http://www.w3.org/1999/xlink" x="0px" y="0px"
	 width="899.64px" height="423.85px" viewBox="0 0 899.64 423.85"
	 style="overflow:visible;enable-background:new 0 0 899.64 423.85;" xml:space="preserve">
<style type="text/css">
	.st0{fill:#FEC9DB;}
	.st1{fill:#FDFDFD;}
	.st2{fill:#49372C;}
</style>
<defs>
</defs>
<g>
	<path class="st0" d="M0.24,423.85c-1.5-10.42,4.4-18.77,8.06-27.64c10.94-26.54,24.99-51.44,39.58-76.15
		c12.85-21.76,29.11-40.74,44.69-60.33c4.62-5.81,9.6-11.35,14.63-16.82c1.75-1.9,1.74-3.33,0.74-5.55
		c-13.45-29.7-21.3-61-27.66-92.87c-4.12-20.64-6.7-41.33-6.42-62.27c0.29-21.57,4.69-42.45,14.95-61.63
		c6.57-12.29,16.3-20.59,31.24-20.46c12.06,0.1,19.92,7.15,25.67,16.65c8.16,13.47,11.35,28.63,12.99,44.08
		c0.94,8.9,1.78,17.86,1.17,26.84c-1.43,21.25-3.24,42.44-6.39,63.53c-2.74,18.36-6.21,36.58-9.72,56.25
		c88.48-75.69,189-116.54,304.87-116.58c115.88-0.04,216.14,41.37,304.44,115.87c-0.22-6.67-2.34-12.49-3.49-18.46
		c-3.97-20.54-7.27-41.16-9.81-61.94c-2.37-19.42-2.76-38.87-1.96-58.3c0.75-18.18,3.97-36.12,14.07-51.82
		c17.07-26.57,45.07-16.95,55.82,3.06c8.08,15.05,12.1,31.02,14.01,47.92c2.64,23.38-0.43,46.33-3.36,69.37
		c-2.26,17.81-6.21,35.26-11.97,52.17c-4.17,12.24-6.44,25.1-12.04,36.85c-2.03,4.27-4.14,8.5-6.31,12.7
		c-1.01,1.96-1.04,3.44,0.86,4.98c11.06,8.96,19.05,20.7,28.08,31.49c9.99,11.93,17.45,25.65,26.53,38.22
		c24,33.22,40.62,70.18,55.41,108.1c0.34,0.88,0.48,1.83,0.71,2.75C599.84,423.85,300.04,423.85,0.24,423.85z M635.34,303.19
		c-1.96-0.3-3.72,0.44-5.58,0.89c-9.61,2.34-19.3,2.19-28.85-0.08c-6.75-1.6-7.65-3.82-5.86-10.63c0.12-0.44-0.78-1.14-1.2-1.72
		c0.51-2.55,2.83-3.02,4.69-3.74c7.81-3.04,15.89-3.83,24.18-2.51c2.87,0.46,5.68,1.68,8.87,1.22c-2.16-6.53-5.37-12.11-8.99-17.46
		c-14.94-22.04-36.44-35.77-60.29-45.83c-41.48-17.49-84.88-23.5-129.78-20.11c-19.25,1.45-38.21,4.16-56.73,9.43
		c-31.85,9.05-61.2,22.63-83.96,47.74c-6.94,7.66-11.94,16.38-15.79,26.45c2.52-0.08,4.47-1.71,6.03,0.3
		c-2.15,2-4.78,2.54-7.61,2.94c-3.92,0.56-7.14,2.83-8.3,6.59c-1.01,3.28,1.28,5.5,4.18,7.03c0.95,0.5,1.62,1.54,2.42,2.34
		c-0.98,19.32,6.9,35.38,19.25,49.31c19.15,21.61,43.86,34.76,70.89,43.57c34.71,11.31,70.27,15.9,106.92,13.71
		c28.02-1.67,55.12-6.56,81.46-16.09c23.26-8.42,44.41-20.24,61.75-38.18c12.28-12.7,20.08-27.67,22.27-45.35
		c0.46-3.73-0.08-6.15-4.88-4.43c-7.39,2.63-15.11,1.65-22.74,1.62c-1.61-0.01-3.09-0.24-3.54-2.16c3.96-0.05,7.92-0.14,11.87-0.14
		c6.85,0,13.68-0.04,19.45-4.6c4.3-1.69,5.01-4.51,2.92-8.24C638.58,298.19,635.77,300.28,635.34,303.19z M690.24,282.68
		c13.38-0.07,25.6-12.39,25.55-25.76c-0.05-13.87-11.8-25.41-25.83-25.37c-14.14,0.04-25.4,11.44-25.34,25.67
		C664.66,271.28,676.2,282.75,690.24,282.68z M206.94,231.72c-12.86,0.2-25.71,9.6-25.17,25.5c0.53,15.6,9.68,24.71,25.38,25.21
		c13.75,0.44,25.23-11.41,25.28-25.17C232.48,243.05,221.11,231.66,206.94,231.72z M611.86,288.88c3.2,0.63,5.24,1.49,7.31-0.74
		C616.78,287.3,614.88,286.96,611.86,288.88z M609.9,288.42c-2.24,0.22-3.89-0.83-5.94,1.34
		C606.14,289.37,607.77,290.29,609.9,288.42z M625.49,289.1c-0.76-1.14-1.74-1.37-2.88-0.74c-0.18,0.1-0.26,0.85-0.16,0.9
		C623.46,289.81,624.49,289.99,625.49,289.1z M635.7,292.17c-0.58-0.07-1.04-0.12-1.5-0.17c-0.01,0.27-0.12,0.7-0.01,0.77
		c0.26,0.16,0.65,0.23,0.95,0.17C635.33,292.9,635.45,292.54,635.7,292.17z"/>
	<path class="st1" d="M282.07,287.14c-1.57-2-3.51-0.37-6.04-0.3c3.85-10.08,8.84-18.8,15.79-26.45
		c22.77-25.11,52.12-38.69,83.96-47.74c18.53-5.26,37.48-7.97,56.73-9.43c44.9-3.38,88.3,2.62,129.78,20.11
		c23.85,10.06,45.35,23.8,60.29,45.83c3.62,5.34,6.83,10.93,8.99,17.46c-3.18,0.45-5.99-0.77-8.87-1.22
		c-8.29-1.31-16.37-0.52-24.18,2.51c-1.85,0.72-4.18,1.19-4.68,3.74c-5.02,5.89-4.41,9.94,2.33,13.46c2.48,1.3,5.3,1.97,7.96,2.93
		c0.45,1.92,1.93,2.15,3.54,2.16c7.62,0.03,15.35,1.02,22.74-1.62c4.8-1.71,5.35,0.71,4.88,4.43c-2.2,17.68-9.99,32.65-22.27,45.35
		c-17.34,17.94-38.49,29.77-61.75,38.18c-26.34,9.53-53.44,14.42-81.46,16.09c-36.65,2.19-72.21-2.41-106.92-13.71
		c-27.03-8.81-51.74-21.95-70.89-43.57c-12.35-13.93-20.23-29.99-19.26-49.31c11.72,3.44,23.46,4.58,35.2,0.16
		c3.78-1.42,7.54-3.19,8.37-7.7c0.83-4.53-3.17-5.84-5.88-7.94c-0.04-1.94-1.56-2.52-2.97-3.03c-6.92-2.47-14.08-3.07-21.37-2.57
		c-1.29,0.09-2.1,0.76-2.46,1.99C283.12,287.02,282.6,287.08,282.07,287.14z M449.06,321.08c0,10.33-0.09,20.67,0.05,31
		c0.04,3.38-0.62,4.8-4.53,4.24c-20.52-2.97-35.4-17.92-37.53-38.22c-0.34-3.23-1.43-5.89-4.97-5.79c-3.94,0.1-4.85,3.07-4.69,6.51
		c0.36,7.4,2.36,14.32,6.12,20.71c15.72,26.69,53.97,35.42,81.32,18.42c14.53-9.03,23.39-21.76,24.49-39.24
		c0.22-3.51-0.95-6.36-4.8-6.42c-3.55-0.05-4.75,2.68-4.82,5.91c-0.47,19.2-17.15,34.29-35.9,37.8c-3.69,0.69-5.17,0.12-5.14-4.06
		c0.17-20.28,0.17-40.56-0.01-60.84c-0.03-3.97,1.33-5.29,5.16-5.64c10.23-0.95,19.9-3.84,28.56-9.57
		c16.48-10.91,16.79-27.55-0.21-37.6c-23.49-13.89-48.06-13.39-72.64-2.48c-3.09,1.37-5.97,3.5-8.54,5.73
		c-10.62,9.24-10.77,21.29-0.35,30.7c9.18,8.29,20.47,11.9,32.47,13.03c5.08,0.48,6.24,2.36,6.06,7.11
		C448.8,301.94,449.06,311.52,449.06,321.08z"/>
	<path class="st2" d="M690.24,282.68c-14.03,0.07-25.57-11.39-25.63-25.46c-0.06-14.23,11.2-25.64,25.34-25.67
		c14.03-0.04,25.79,11.5,25.83,25.37C715.83,270.29,703.61,282.61,690.24,282.68z"/>
	<path class="st2" d="M206.94,231.72c14.17-0.06,25.54,11.33,25.49,25.54c-0.05,13.76-11.53,25.61-25.28,25.17
		c-15.7-0.5-24.85-9.61-25.38-25.21C181.23,241.32,194.08,231.92,206.94,231.72z"/>
	<path class="st2" d="M310.44,290.57c2.71,2.1,6.72,3.41,5.88,7.94c-0.83,4.51-4.59,6.28-8.37,7.7c-11.74,4.42-23.49,3.28-35.2-0.16
		c-0.79-0.8-1.46-1.84-2.41-2.34c-2.9-1.53-5.18-3.75-4.18-7.03c1.16-3.76,4.38-6.03,8.3-6.59c2.83-0.41,5.46-0.94,7.61-2.94
		c0.52-0.06,1.05-0.12,1.57-0.18c8.28,1.01,16.93-0.39,24.7,3.95C308.83,291.18,309.73,290.7,310.44,290.57z"/>
	<path class="st2" d="M604.14,308.04c-2.66-0.96-5.48-1.63-7.96-2.93c-6.74-3.53-7.35-7.57-2.33-13.46c0.42,0.58,1.31,1.29,1.2,1.73
		c-1.79,6.81-0.89,9.03,5.86,10.63c9.55,2.27,19.24,2.42,28.85,0.08c1.86-0.45,3.62-1.19,5.58-0.89l0.13,0.11
		c-5.77,4.56-12.6,4.6-19.45,4.6C612.06,307.9,608.1,307.99,604.14,308.04z"/>
	<path class="st2" d="M635.34,303.19c0.43-2.91,3.25-5.01,3.05-8.13c2.09,3.73,1.37,6.56-2.92,8.24
		C635.46,303.3,635.34,303.19,635.34,303.19z"/>
	<path class="st2" d="M611.86,288.88c3.01-1.92,4.92-1.59,7.31-0.74C617.11,290.38,615.07,289.51,611.86,288.88z"/>
	<path class="st2" d="M609.9,288.42c-2.12,1.87-3.76,0.95-5.94,1.34C606.01,287.59,607.65,288.64,609.9,288.42z"/>
	<path class="st2" d="M625.49,289.1c-1.01,0.9-2.04,0.71-3.04,0.16c-0.09-0.05-0.01-0.8,0.16-0.9
		C623.75,287.72,624.73,287.96,625.49,289.1z"/>
	<path class="st2" d="M635.7,292.17c-0.26,0.37-0.37,0.73-0.56,0.77c-0.3,0.07-0.69-0.01-0.95-0.17c-0.11-0.07,0-0.5,0.01-0.77
		C634.66,292.05,635.12,292.1,635.7,292.17z"/>
	<path class="st2" d="M449.06,321.08c0-9.57-0.26-19.14,0.11-28.7c0.18-4.75-0.97-6.63-6.06-7.11c-12-1.13-23.29-4.73-32.47-13.03
		c-10.42-9.41-10.27-21.46,0.35-30.7c2.57-2.24,5.45-4.36,8.54-5.73c24.58-10.91,49.15-11.41,72.64,2.48
		c16.99,10.05,16.69,26.69,0.21,37.6c-8.66,5.73-18.33,8.62-28.56,9.57c-3.83,0.35-5.2,1.68-5.16,5.64
		c0.18,20.28,0.18,40.56,0.01,60.84c-0.04,4.18,1.44,4.75,5.14,4.06c18.76-3.51,35.43-18.61,35.9-37.8
		c0.08-3.23,1.27-5.96,4.82-5.91c3.85,0.06,5.03,2.9,4.8,6.42c-1.11,17.48-9.96,30.21-24.49,39.24
		c-27.34,16.99-65.6,8.27-81.32-18.42c-3.76-6.39-5.77-13.3-6.12-20.71c-0.17-3.44,0.75-6.41,4.69-6.51
		c3.54-0.09,4.63,2.56,4.97,5.79c2.13,20.29,17.01,35.24,37.53,38.22c3.91,0.57,4.57-0.86,4.53-4.24
		C448.97,341.75,449.06,331.42,449.06,321.08z"/>
	<path class="st0" d="M310.44,290.57c-0.71,0.13-1.61,0.62-2.1,0.35c-7.76-4.34-16.42-2.94-24.7-3.95c0.36-1.23,1.18-1.9,2.46-1.99
		c7.29-0.5,14.45,0.1,21.37,2.57C308.88,288.04,310.4,288.63,310.44,290.57z"/>
	<ellipse class="st2" cx="289.98" cy="296.64" rx="30.52" ry="12.8"/>
	<ellipse class="st2" cx="613" cy="298.03" rx="30.52" ry="12.8"/>
</g>
</svg>
