<?xml version="1.0" encoding="utf-8"?>
<svg version="1.1" xmlns:xlink="http://www.w3.org/1999/xlink" width="355px" height="700px" xmlns="http://www.w3.org/2000/svg">
  <g transform="matrix(1 0 0 1 -230 -828 )">
    <path d="M 350 49  C 351.335616364688 49  352.668964942906 49.0083152170528  354 49.0246556028496  L 354 0.0214128806427425  C 352.66897459859 0.00714943615969332  351.335462222408 0  350 0  C 154 0  0 154  0 350  C 0 546  154 700  350 700  C 351.335462222408 700  352.66897459859 699.99285056384  354 699.978586978056  L 354 650.975102266777  C 352.668964942905 650.991684782947  351.335616364687 651  350 651  C 181.44 651  49 518.56  49 350  C 49 181.44  181.44 49  350 49  Z " fill-rule="nonzero" fill="#996f7b" stroke="none" transform="matrix(1 0 0 1 230 828 )" />
  </g>
</svg>