<!-- Generator: Adobe Illustrator 25.2.1, SVG Export Plug-In  -->
<svg version="1.1" xmlns="http://www.w3.org/2000/svg" xmlns:xlink="http://www.w3.org/1999/xlink" x="0px" y="0px"
	 width="290.88px" height="237.29px" viewBox="0 0 290.88 237.29"
	 style="overflow:visible;enable-background:new 0 0 290.88 237.29;" xml:space="preserve">
<style type="text/css">
	.st0{fill:#434F57;}
	.st1{fill:none;}
	.st2{font-family:'OPPOSans-B';}
	.st3{font-size:28px;}
</style>
<defs>
</defs>
<g>
	<path class="st0" d="M101.6,102.07c-0.2,0.34-0.4,0.67-0.61,1.01c-0.09,0.2-0.23,0.38-0.37,0.55c-0.52,0.62-0.53,0.97,0.43,1.06
		c2.05,0.19,3.4,1.38,3.84,3.51c0.46,2.24,0.47,4.5,0.19,6.8c-0.32,2.63-0.74,5.21-1.51,7.75c-0.64,2.11-1.45,4.14-2.56,6.06
		c-2.96,5.42-10.23,8.51-13.16,7.11c0.98-0.92,2.24-1.37,3.23-2.24c2.94-2.58,4.14-6.03,4.94-9.67c1.09-5.01,1.14-10.14,1.78-15.2
		c0.04-0.33,0.2-0.81-0.14-0.98c-0.48-0.24-0.63,0.33-0.87,0.59c-3.16,3.48-6.97,5.85-11.62,6.79c-2.32,0.47-4.31-1.02-4.02-3.01
		c0.21-1.49,1.88-3.25,3.4-3.48c2.03-0.31,3.89-1.04,5.6-2.16c2.82-1.96,5.05-4.5,7.01-7.28c1.01-1.44,2.03-2.87,2.83-4.45
		c0.67-1.33,0.61-1.51-0.94-1.51c-6.13-0.01-12.27,0-18.4,0c-0.44,0-0.88,0.03-1.32-0.05c-1.25-0.25-1.69-0.74-1.62-1.84
		c0.07-1.04,0.65-1.49,1.88-1.56c6.83-0.38,13.66-0.3,20.49-0.22c1.89,0.02,2.99-0.69,3.67-2.35c0.23-0.57,0.57-1.09,0.81-1.66
		c0.34-0.83,0.08-1.27-0.82-1.32c-1.14-0.06-2.29-0.02-3.44-0.02c-2.91,0-5.82,0.03-8.74-0.01c-2.42-0.03-3.12-1.31-1.92-3.42
		c1.63-0.8,3.39-0.57,5.08-0.44c3.41,0.25,6.79-0.03,10.18-0.16c0.99-0.04,1.73-0.54,2.21-1.44c0.64-1.22,0.92-2.57,1.39-3.85
		c0.32-0.87-0.34-0.81-0.88-0.81c-1.99,0-3.97,0.01-5.96,0.01c-4.11,0-8.21,0.02-12.32-0.02c-1.96-0.02-2.64-0.57-2.7-1.97
		c-0.05-1.27,0.5-1.89,1.79-1.9c3.36-0.02,6.71-0.01,10.07-0.01c4.59,0,9.19-0.04,13.78,0.03c1.12,0.02,1.81-0.41,2.44-1.24
		c1.93-2.57,3.01-5.52,3.83-8.58c0.59-2.19,1.24-4.36,3.47-5.51c2.74-1.41,6.03,0.7,5.87,3.77c-0.16,3.09-1.85,5.44-3.82,7.64
		c-1.01,1.12-2.15,2.08-3.47,2.83c-0.4,0.23-0.75,0.53-1.39,0.99c2.83,0,5.33,0.13,7.81-0.05c1.35-0.1,2.43-1.09,3.08-2.29
		c1.45-2.66,4.12-2.02,5.59-0.33c1.17,1.35,0.9,2.95,0.35,4.51c-0.45,1.29-1.46,1.82-2.71,2c-0.61,0.09-1.23,0.11-1.85,0.11
		c-5.21-0.05-10.42,0.14-15.63-0.11c-2.36-0.12-2.65,0.13-3.5,2.35c-0.37,0.98-0.69,1.99-1.04,2.98c-0.26,0.71,0.04,0.98,0.73,0.98
		c3.93-0.02,7.86-0.02,11.79-0.07c1.21-0.02,1.77-1.05,2.39-1.88c1.24-1.67,2.02-2.02,3.66-1.58c1.59,0.43,2.41,1.73,2.38,3.79
		c-0.03,1.86-0.89,3.12-2.47,3.46c-0.73,0.16-1.49,0.2-2.23,0.2c-5.08,0.01-10.16,0.04-15.23-0.02c-1.41-0.02-2.19,0.53-2.69,1.81
		c-1.4,3.54-1.43,3.53,2.32,3.52c7.42-0.01,14.84-0.09,22.26,0c2.08,0.03,3.68-0.59,5.03-2.09c0.68-0.75,1.43-1.46,2.49-1.65
		c1.31-0.25,2.35,0.2,3.03,1.37c0.8,1.37,0.92,2.78-0.05,4.1c-0.93,1.25-2.13,2.03-3.81,2.02c-6.18-0.02-12.36,0.01-18.55,0.04
		c-0.49,0-1.19-0.24-1.42,0.38c-0.22,0.6,0.43,0.91,0.79,1.25c3.31,3.12,6.67,6.2,10.99,7.88c2.49,0.97,5.08,1.7,7.61,2.56
		c1.46,0.5,2.78,1.25,4.03,2.17c1.87,1.39,2.38,4.63,1.51,6.65c-0.45,1.04-1.36,1.55-2.52,1.63c-3.05,0.21-5.67-1.06-8.24-2.42
		c-2.77-1.47-5.32-3.27-7.49-5.57c-0.24-0.25-0.46-0.63-0.86-0.5c-0.45,0.14-0.28,0.59-0.28,0.92c0.1,4.94-0.08,9.88,0.12,14.82
		c0.13,3.25-0.09,6.52-0.16,9.79c-0.02,0.9-0.32,1.73-0.8,2.49c-1.09,0.93-2.22,1.65-3.7,0.81l0,0c-1.09-0.38-1.6-1.27-1.69-2.3
		c-0.24-2.71-0.27-5.44-0.33-8.17c-0.02-0.92-0.06-1.85-0.06-2.77c-0.01-5.5-0.03-11,0.33-16.5c0.12-1.74,0.87-2.5,2.53-2.85
		c0.47-0.1,0.88-0.18,0.79-0.8l0,0c-2.03-2.7-4.11-5.35-5.8-8.29c-0.54-0.94-1.51-1.19-2.49-1.23c-1.76-0.08-3.52-0.11-5.28,0
		c-1.85,0.12-3.31,1.11-4.4,2.56C104.1,97.84,103.08,100.1,101.6,102.07z"/>
	<path class="st0" d="M44.58,74.21c-1.39-0.78-1.59-2.07-1.58-3.51c0.03-3.32,0-3.33-3.35-3.33c-3.79,0-7.58,0.04-11.37-0.02
		c-1.1-0.02-1.53,0.34-1.42,1.44c0.07,0.7-0.09,1.43,0.03,2.11c0.55,3.26-3.48,4.82-5.89,3.31c-1.2-0.71-1.56-1.85-1.59-3.14
		c-0.02-0.79,0-1.59-0.01-2.38c-0.01-1.48-0.14-1.61-1.58-1.62c-3.4-0.01-6.8,0-10.2,0c-0.35,0-0.71,0.02-1.06-0.01
		c-1.45-0.1-2.14-0.79-2.12-2.15c0.01-1.29,0.79-2.06,2.2-2.07c3.44-0.02,6.89-0.01,10.34-0.01c0.48,0,0.97-0.04,1.45-0.07
		c0.73-0.05,1.01-0.36,0.99-1.07c-0.02-1.1-0.04-2.21,0-3.31c0.08-1.94,1-3.08,2.68-3.41c2.13-0.42,3.86,0.28,4.62,1.88
		c0.46,0.97,0.22,2,0.23,3c0.03,2.72,0.01,2.72,2.74,2.72c3.93,0,7.86,0.01,11.79,0c1.43,0,1.5-0.08,1.52-1.5
		c0.01-1.02-0.02-2.03,0.01-3.05c0.04-1.5,1-2.7,2.48-3.01c1.36-0.29,2.7-0.34,3.86,0.69c0.74,0.65,1.15,1.38,1.09,2.42
		c-0.07,1.1-0.04,2.21,0,3.31c0.03,0.8,0.37,1.21,1.23,1.15c1.4-0.11,2.8,0.09,4.22-0.17c1.65-0.31,2.64-1.37,3.39-2.69
		c1-1.76,1.91-2.38,3.53-2.16c1.86,0.25,3.33,1.59,3.65,3.33c0.68,3.68-1.34,6.1-5.25,6.17c-2.91,0.05-5.83,0.01-8.75,0.01
		c-2.01,0-2.01,0-2.04,2.07c-0.01,0.53,0,1.06,0,1.59C50.4,74.19,47.71,75.8,44.58,74.21z"/>
	<path class="st0" d="M37.29,82.12c-7.46,0-14.93,0.04-22.39-0.03c-1.37-0.01-1.79,0.5-1.83,1.72c-0.05,1.46-0.31,2.88-0.73,4.29
		c-1.15,3.91-3.77,5.58-7.83,4.85c-1.04-0.19-2.06-0.44-2.95-1.08c-1.8-1.3-2.07-3.19-0.66-4.89c0.83-1,1.85-1.77,3.02-2.31
		c3.13-1.44,4.88-3.92,5.59-7.22c0.03-0.13,0.04-0.27,0.08-0.39c0.23-0.67,0.44-1.5,1.19-1.62c0.87-0.14,0.95,0.8,1.17,1.37
		c0.51,1.32,1.45,1.72,2.8,1.72c15.41-0.01,30.82,0,46.24,0.02c0.76,0,1.33-0.13,1.77-0.86c0.64-1.08,1.73-1.06,2.7-0.63
		c1.73,0.76,3.41,1.62,5.07,2.53c1.8,0.99,1.89,2.14,0.33,3.5c-0.43,0.37-0.91,0.71-1.41,0.97c-1.81,0.95-3.45,2.12-4.96,3.49
		c-0.55,0.5-1.18,0.92-1.82,1.32c-0.55,0.35-1.2,0.37-1.78,0.08c-0.63-0.32-0.52-0.99-0.44-1.54c0.19-1.21,0.43-2.42,0.7-3.62
		c0.35-1.55,0.3-1.64-1.34-1.64C52.31,82.12,44.8,82.12,37.29,82.12z"/>
	<path class="st0" d="M175.78,55.96c1.09,0.13,2.05-0.44,3.03-0.71c1.97-0.54,4-0.75,5.97-0.76c1.82-0.01,3.7,0.35,5.55,0.78
		c3.26,0.76,6.14,2.18,8.8,4.12c3.73,2.72,6.57,6.19,8.41,10.43c1.4,3.25,2.19,6.67,2.09,10.19c-0.14,4.65-1.37,9.05-3.86,13.04
		c-0.13,0.21-0.39,0.34-0.59,0.5c-0.42-0.55-0.07-1.01,0.19-1.45c2.19-3.64,3.3-7.62,3.38-11.83c0.12-6.49-2-12.2-6.44-17
		c-3.72-4.03-8.3-6.69-13.67-7.53c-4.41-0.7-8.88-0.48-13.13,1.35c-6.59,2.85-11.14,7.61-13.72,14.3c-1.07,2.79-0.75,3.22,2.22,2.98
		c1.08-0.09,1.51-0.75,1.83-1.63c1.36-3.83,3.78-6.88,7.01-9.26c6.54-4.81,15.03-5.28,21.99-0.85c5.42,3.46,8.67,8.39,9.53,14.73
		c0.7,5.17-0.76,9.92-3.76,14.12c-3.8,5.31-9.14,8.13-15.58,8.2c-7.83,0.09-13.92-3.38-17.9-10.26c-0.97-1.68-2.91-2.42-4.68-1.78
		c-0.8,0.29-0.47,0.84-0.27,1.3c0.94,2.1,2.03,4.12,3.51,5.9c3.54,4.26,7.84,7.34,13.37,8.48c1.6,0.33,2.09,0.93,2.12,2.54
		c0.02,1.37,0.03,2.74,0,4.1c-0.04,1.58-0.4,1.96-1.98,1.97c-4.59,0.03-9.18,0.01-13.78,0.01c-3.18,0-6.36,0-9.54,0
		c-0.4,0-0.8-0.03-1.19,0.05c-0.9,0.17-1.42,0.74-1.49,1.62c-0.06,0.86,0.49,1.39,1.25,1.67c0.55,0.21,1.13,0.15,1.71,0.15
		c7.37,0,14.75,0,22.12,0c0.53,0,1.06-0.02,1.59,0.05c0.77,0.09,1.22,0.53,1.26,1.29c0.09,1.45,0.11,2.91-0.02,4.36
		c-0.02,0.26,0.08,1.15-0.7,0.46c0-1.33-0.05-2.65,0.02-3.97c0.06-1-0.33-1.31-1.29-1.3c-2.78,0.04-5.56,0.01-8.34,0.01
		c-5.21,0-10.41,0-15.62,0c-0.57,0-1.16,0.09-1.67-0.26c-0.96-0.81-1.45-2.9-0.9-3.91c0.42-0.76,1.13-0.85,1.92-0.85
		c7.83,0.01,15.66,0.01,23.5,0c0.57,0,1.14-0.02,1.71-0.03c0.53-0.85,0.21-1.78,0.25-2.67c0.05-1,0.01-2,0.01-3
		c0-0.49,0-0.97-0.54-1.22c-8.65-2.27-14.93-7.31-18.28-15.73c-0.64-1.62-0.36-1.99,1.33-2c0.44,0,0.9,0.07,1.32-0.01
		c2.12-0.42,3.2,0.72,4.12,2.44c2.71,5.09,7.07,8.3,12.62,9.35c9.81,1.85,18.65-3.07,22.03-12.4c2.71-7.51,0.47-16.03-6.12-21.28
		c-3.51-2.8-7.48-4.25-11.92-4.31c-7.96-0.09-15.27,5.06-18,12.53c-0.73,2.01-1.1,2.27-3.15,2.27c-3.76,0-3.82-0.03-2.59-3.57
		c2.52-7.26,7.29-12.42,14.45-15.32C175.48,56.31,175.61,56.1,175.78,55.96z"/>
	<path class="st0" d="M153.51,116.08c8.46,0,16.92,0.04,25.38-0.01c1.29-0.01,1.71,0.38,1.63,1.65c-0.08,1.4,0.04,2.81,0.07,4.22
		c0.45,0.52,0.35,1.17,0.35,1.77c0.02,2.69,0.01,5.38,0.01,8.07c0,0.66,0.01,1.32,0.15,1.98c0.4,1.84,1.62,2.83,3.46,2.82
		c2.11-0.02,3.04-0.82,3.41-2.93c0.12-0.7,0.12-1.41,0.12-2.11c0-4.46,0-8.91,0-13.37c0-2.5,0.25-2.75,2.71-2.75
		c6.8-0.01,13.59-0.01,20.39,0.01c1.21,0,2.37-0.16,3.51-0.55c1.21-0.41,1.91-1.24,1.99-2.53c0.08-1.25-0.15-2.46-0.64-3.62
		c-0.55-1.29-1.59-1.96-2.93-2.23c-1.13-0.22-1.99,0.16-2.54,1.2c-0.39,0.74-0.7,1.54-1.26,2.17c-0.51,0.59-1.01,1.28-1.98,0.95
		c0,0-0.06-0.06-0.06-0.06c0.12-0.63,0.4-1.25,0.95-1.53c1.02-0.51,1.3-1.49,1.69-2.38c0.65-1.5,1.83-2.11,3.45-1.61
		c3.31,1.03,4.07,2.2,4.61,5.68c0.3,1.95,0.02,3.55-1.44,4.75c-1.09,0.9-2.58,1.15-3.96,1.17c-7.32,0.14-14.62-0.4-21.94-0.27
		c-1.24,0.02-1.65,0.3-1.64,1.6c0.07,5.12-0.04,10.24,0.06,15.35c0.04,2.07-2.04,4.03-4.55,4.07c-2.36,0.04-4.29-2.06-4.26-4.03
		c0.09-5.12-0.01-10.23,0.06-15.35c0.02-1.25-0.29-1.65-1.59-1.64c-7.85,0.06-15.71,0.03-23.56,0.02
		C154.56,116.6,153.87,116.82,153.51,116.08z"/>
	<path class="st0" d="M44.58,74.21c1.64,0.36,3.28,0.79,4.73-0.58c0.58-0.55,0.9-1.15,0.87-1.97c-0.04-1.1,0-2.21,0.04-3.31
		c0.04-1.11,0.52-1.59,1.74-1.56c3.22,0.08,6.45,0.05,9.67-0.01c1.99-0.03,3.61-0.81,4.4-2.78c0.64-1.61,0.49-3.21-0.47-4.64
		c-0.89-1.34-2.3-1.71-3.84-1.58c-1.15,0.1-1.81,0.97-2.24,1.86c-1.07,2.21-2.81,3.16-5.18,3.17c-0.75,0-1.5,0.01-2.25,0.01
		c-1.58-0.01-1.81-0.22-1.87-1.83c-0.03-0.88,0-1.77-0.01-2.65c-0.01-2.2-1.08-3.25-3.35-3.26c-2.43-0.01-3.53,0.99-3.55,3.22
		c-0.01,1.02-0.02,2.03,0,3.05c0.02,0.99-0.4,1.45-1.42,1.45c-4.64-0.02-9.27-0.02-13.91,0c-0.89,0-1.17-0.39-1.15-1.2
		c0.02-1.15,0.02-2.3-0.01-3.44c-0.04-1.75-1.26-2.98-2.98-3.06c-2.71-0.12-3.82,0.56-4.04,2.66c-0.13,1.27-0.08,2.56-0.05,3.84
		c0.01,0.8-0.26,1.26-1.11,1.3c-0.57,0.03-1.14,0.14-1.7,0.15c-3.36,0.03-6.71,0.02-10.07,0.05c-1.52,0.01-2.24,0.6-2.26,1.8
		c-0.02,1.26,0.73,1.91,2.3,1.92c3.66,0.02,7.33,0,10.99,0.01c1.65,0,1.83,0.19,1.84,1.83c0,0.57,0.03,1.15-0.01,1.72
		c-0.09,1.46,0.13,2.81,1.3,3.84c-1.4-0.39-1.67-1.56-1.81-2.75c-0.09-0.74-0.02-1.5-0.02-2.25c0-1.85,0-1.86-1.8-1.86
		c-3.31,0-6.63,0.01-9.94-0.01c-0.48,0-0.98-0.02-1.44-0.13c-1.45-0.35-1.93-1.16-1.67-2.92c0.18-1.21,1.09-1.68,2.17-1.7
		c3.71-0.05,7.42-0.09,11.13-0.03c1.19,0.02,1.7-0.27,1.57-1.53c-0.1-0.92-0.05-1.85-0.01-2.78c0.1-2.02,1.2-3.18,3.45-3.7
		c1.43-0.33,3.47,0.7,4.23,2.08c0.21,0.38,0.22,0.76,0.22,1.15c0.01,1.02,0.08,2.04-0.01,3.05c-0.11,1.16,0.27,1.52,1.46,1.5
		c4.28-0.07,8.57-0.07,12.85,0c1.14,0.02,1.39-0.37,1.4-1.44c0.02-1.51-0.39-3.08,0.45-4.53c0.69-1.19,2.74-2.12,4.08-1.77
		c2.47,0.64,3.34,1.56,3.35,3.54c0,0.35,0,0.71,0,1.06c0,3.16,0,3.08,3.1,3.16c2.6,0.06,4.47-0.86,5.62-3.27
		c0.65-1.35,2.07-1.99,3.37-1.79c1.81,0.28,3.47,1.67,3.82,3.2c0.93,3.99-1.26,6.74-5.52,6.84c-3.05,0.07-6.1,0.06-9.14,0.01
		c-0.99-0.02-1.34,0.29-1.27,1.28c0.07,1.05-0.02,2.12,0.02,3.18c0.07,1.5-1.01,2.36-2.06,2.81C47.34,75.14,45.81,75.47,44.58,74.21
		z"/>
	<path class="st0" d="M89.65,80.86c-0.09,0.38-0.19,0.76-0.25,1.15c-0.22,1.31,0.34,1.98,1.68,1.98c4.15,0.01,8.29,0.01,12.44,0.02
		c1.54,0,1.82,0.46,1.15,1.82c-0.39,0.78-0.84,1.54-1.18,2.34c-0.56,1.37-1.65,1.69-2.98,1.69c-5.29-0.01-10.59-0.03-15.88,0.02
		c-1.8,0.02-3.59,0.28-5.4,0.23c-0.79-0.02-1.22,0.41-1.26,1.21c-0.04,0.75-0.01,1.39,1.01,1.51c0.61,0.07,1.21,0.18,1.83,0.18
		c6.13,0,12.26,0.01,18.39,0.02c0.5,0,1.12-0.2,1.44,0.38c0.33,0.58-0.15,0.95-0.41,1.4c-1.85,3.26-3.93,6.37-6.61,9
		c-1.04,1.02-1.9,2.33-3.46,2.71c3.42-2.95,6.39-6.29,8.7-10.19c0.48-0.81,1.52-1.74,1.17-2.49c-0.35-0.74-1.68-0.28-2.57-0.28
		c-5.6-0.04-11.21-0.04-16.81-0.05c-0.44,0-0.89,0.02-1.32-0.03c-1.26-0.12-1.97-0.9-1.91-2.08c0.05-1.03,0.87-1.84,1.99-1.87
		c3.22-0.08,6.43-0.17,9.65-0.2c3.71-0.03,7.41-0.07,11.12,0.02c1.71,0.04,2.69-0.66,3.4-2.15c1.28-2.7,1.32-2.68-1.72-2.69
		c-3.44-0.01-6.88,0-10.32-0.04c-2.06-0.03-2.77-0.73-2.66-2.4C88.9,81.52,89.08,81.09,89.65,80.86z"/>
	<path class="st0" d="M160.42,78.48c0.24-0.67,0.82-0.57,1.33-0.57c7.63-0.01,15.27-0.01,22.9,0c1.74,0,2.97,1.26,3.01,3.16
		c0.06,3,0.05,6,0.01,9c-0.02,1.77-1.56,3.27-3.19,3.24c-1.66-0.03-2.88-1.42-2.9-3.28c-0.01-1.68-0.06-3.36,0.02-5.03
		c0.04-1-0.3-1.27-1.28-1.26c-5.96,0.04-11.92,0.02-17.87,0.02c-2.39,0-3.57-1.27-3.39-3.61C159.12,79.25,159.49,78.65,160.42,78.48
		c0.11,0.53-0.24,0.92-0.39,1.37c-0.51,1.49,0.19,2.67,1.73,2.91c0.52,0.08,1.06,0.06,1.59,0.06c5.47,0,10.94-0.01,16.41,0
		c2.19,0,2.51,0.33,2.53,2.55c0.01,1.23,0,2.47,0.01,3.7c0,0.49,0.02,0.97,0.17,1.44c0.35,1.11,1.23,1.83,2.19,1.78
		c1.05-0.05,1.86-0.85,2.04-2.09c0.15-1.01,0.07-2.03,0.07-3.04c0.01-1.81,0.04-3.62-0.01-5.42c-0.06-2.19-1.01-3.13-3.21-3.13
		c-7.37,0-14.73-0.07-22.1,0.03C161.08,78.66,160.72,78.72,160.42,78.48z"/>
	<path class="st0" d="M123.54,102.84c0.58,0.8,0.04,0.94-0.6,1.02c-1.76,0.24-2.61,1.09-2.56,2.85c0.07,2.51-0.23,5-0.08,7.51
		c0.13,2.01-0.15,4.05-0.14,6.07c0.03,4.31,0.14,8.61,0.2,12.92c0.02,1.29,0.67,2.22,1.61,3c-1.27-0.1-1.6-1.08-1.85-2.06
		c-0.6-2.33-0.35-4.73-0.44-7.09c-0.19-5.02-0.12-10.05-0.02-15.07c0.04-1.88,0.06-3.77,0.35-5.64c0.26-1.68,1.12-2.72,2.81-3.01
		C123.15,103.29,123.38,103.13,123.54,102.84z"/>
	<path class="st0" d="M101.02,128.79c0.69-2.12,1.81-4.06,2.4-6.23c1.23-4.57,2.02-9.18,1.33-13.93c-0.35-2.42-1.7-3.64-4.07-3.7
		c-0.29-0.01-0.67,0.15-0.82-0.22c-0.14-0.32,0.11-0.6,0.3-0.82c0.25-0.3,0.56-0.55,0.84-0.82c0.14,0.45-0.37,0.68-0.4,1.19
		c1.56-0.03,2.72,0.74,3.65,1.91c0.96,1.2,1.17,2.68,1.22,4.11c0.23,6.27-0.98,12.25-3.84,17.86
		C101.48,128.42,101.35,128.7,101.02,128.79z"/>
	<path class="st0" d="M101.6,102.07c1.67-2.79,2.85-5.91,5.59-7.95c1-0.74,2.11-1.08,3.3-1.09c1.84-0.02,3.68-0.11,5.53,0.18
		c0.79,0.12,1.35,0.47,1.72,1.07c1.73,2.8,3.67,5.45,5.67,8.07c0.1,0.13,0.09,0.33,0.13,0.49c-1.5-1.2-2.39-2.88-3.5-4.39
		c-0.72-0.99-1.47-1.99-2.03-3.07c-0.67-1.3-1.65-1.85-3.07-1.81c-1.23,0.03-2.46,0.01-3.69-0.05c-2.92-0.14-4.87,1.33-6.35,3.68
		C103.85,98.85,103.17,100.76,101.6,102.07z"/>
	<path class="st0" d="M106.59,68.41c-3.59-0.81-6.24-2.76-7.47-6.31c-0.47-1.35-0.96-2.81,0.06-4.15c0.79-1.04,1.86-1.65,3.21-1.39
		c1.48,0.29,2.34,1.35,2.85,2.67c0.46,1.18,0.73,2.44,1.15,3.64c0.38,1.07,0.84,2.1,1.27,3.15c-0.11,0.08-0.24,0.1-0.38,0.06
		c-1.49-1.36-1.81-3.26-2.34-5.06c-0.28-0.94-0.58-1.85-1.18-2.63c-0.73-0.95-1.71-1.22-2.82-0.82c-1.08,0.4-1.48,1.27-1.39,2.3
		c0.23,2.85,1.43,5.12,4.03,6.55c1.03,0.56,2.23,0.79,3.1,1.64C106.72,68.18,106.68,68.3,106.59,68.41z"/>
	<path class="st0" d="M179.48,104.41c0.43-0.01,0.8,0.07,0.8,0.62c0,1.93,0,3.87-0.01,5.8c0,0.33-0.22,0.45-0.52,0.45
		c0-1.79,0-3.57,0-5.36C179.75,105.41,179.76,104.88,179.48,104.41z"/>
	<path class="st0" d="M106.59,68.41c0-0.11,0.01-0.21,0.01-0.32c0.37-0.43,0.93-0.11,1.38-0.33c0.07-0.68-0.85-1.03-0.6-1.76
		c0.1,0,0.19,0,0.29-0.01c0.17,0.18,0.41,0.34,0.51,0.56c0.29,0.66,1.57,1.11,0.83,1.9C108.47,69.03,107.4,68.82,106.59,68.41z"/>
	<path class="st0" d="M121.96,136.22c1.38,0.41,2.56-0.11,3.7-0.81C124.75,136.85,123.16,137.2,121.96,136.22z"/>
	<path class="st0" d="M207.34,110.83c1.44-0.39,2-1.6,2.58-2.79c0.51-1.03,0.98-2.09,2.43-2.05c1.66,0.04,3.04,0.65,3.87,2.09
		c0.86,1.49,1.02,3.19,0.83,4.88c-0.13,1.16-0.93,1.97-1.96,2.29c-1.2,0.37-2.45,0.63-3.76,0.63c-7.06-0.04-14.12-0.01-21.18,0
		c-1.67,0-1.67,0.01-1.67,1.72c0,4.76-0.01,9.53-0.02,14.29c0,0.4,0.01,0.79-0.02,1.19c-0.15,2.8-1.33,3.95-4.02,3.92
		c-2.42-0.02-3.79-1.44-3.82-4.07c-0.04-3.66-0.02-7.32-0.02-10.98c0.45-1.82,0.2-3.67,0.15-5.5c-0.02-0.8-0.82-0.65-1.37-0.65
		c-4.02-0.01-8.04,0-12.05-0.01c-4.11,0-8.21-0.02-12.32,0.01c-1.15,0.01-1.86-0.58-2.18-1.57c-0.3-0.93,0.15-1.69,0.89-2.31
		c0.47-0.4,1-0.28,1.51-0.28c7.9-0.01,15.81-0.01,23.71-0.01c1.85,0,1.85-0.01,1.85-1.82c0-1.37-0.09-2.74,0.03-4.1
		c0.11-1.28-0.59-1.79-1.62-2c-7.16-1.41-12.19-5.7-15.95-11.71c-0.65-1.03-1.13-2.17-1.63-3.29c-0.47-1.04-0.17-1.39,0.93-1.52
		c2.47-0.29,4.19,0.25,5.45,2.8c2.01,4.05,5.62,6.66,9.81,8.18c2.96,1.08,6.09,1.48,9.33,0.99c5.93-0.89,10.51-3.79,13.78-8.73
		c5.92-8.96,3.4-20.96-5.5-26.98c-3.39-2.3-7.09-3.55-11.12-3.48c-8.05,0.14-15.35,5.26-18.11,13.02c-0.45,1.28-1.11,1.95-2.49,1.77
		c-0.26-0.03-0.53,0-0.79,0c-2.44,0-2.56-0.15-1.8-2.43c2.55-7.7,7.58-13.22,15.21-15.88c7.9-2.76,15.5-1.72,22.44,3.21
		c3.3,2.34,5.89,5.28,7.73,8.87c2.1,4.11,2.88,8.46,2.55,13.09c-0.3,4.12-1.52,7.86-3.72,11.32c-0.11,0.17-0.08,0.42-0.12,0.64
		c-2.68,3.81-6.04,6.82-10.31,8.78c-1.72,0.79-3.52,1.34-5.36,1.76c-0.75,0.17-1.01,0.53-1,1.27c0.04,1.63,0.03,3.26,0.01,4.89
		c-0.01,0.87,0.33,1.29,1.25,1.28c5.11-0.02,10.22-0.01,15.33-0.03C205.9,111.5,206.68,111.33,207.34,110.83z"/>
	<path class="st0" d="M231.41,103.86c-1.79,0.59-3.47,1.53-5.34,1.86c-2.1,0.37-4.22,0.97-6.47,0.05c0.81-1.05,2.02-1.12,3-1.6
		c4.4-2.14,8.27-5.04,11.9-8.26c4.3-3.81,8.24-7.98,12.23-12.11c2.08-2.15,4.27-4.24,7.09-5.43c3.07-1.3,5.81,0.18,5.62,3.45
		c-0.08,1.32,0.47,2.12,1.48,2.86c2.61,1.93,5.63,2.9,8.68,3.72c5.06,1.36,10.1,2.84,15.29,3.7c0.87,0.14,1.75,0.39,2.62,0.35
		c2.97-0.11,3.8,2.69,3.16,5c-0.65,2.35-2.96,3.94-5.46,4.09c-4.72,0.28-8.77-1.6-12.59-4.02c-5.42-3.43-10.5-7.32-14.67-12.25
		c-0.86-1.02-1.47-0.55-2.19,0.05c-2.83,2.32-5.67,4.63-8.49,6.97c-4.51,3.75-9.13,7.34-14.03,10.56
		C232.62,103.12,231.95,103.36,231.41,103.86z"/>
	<path class="st0" d="M213.91,54.87c1.68-0.08,2.45,0.72,2.84,1.8c0.42,1.14,0.09,2.27-0.91,2.95c-1.77,1.22-3.6,2.38-5.49,3.43
		c-1.24,0.68-2.71,0.13-3.46-1.07c-0.69-1.1-0.54-2.51,0.53-3.34c1.77-1.38,3.72-2.51,5.68-3.59
		C213.44,54.87,213.88,54.88,213.91,54.87z"/>
	<path class="st0" d="M234.33,75.26c-0.18,0.27-0.36,0.54-0.54,0.81c-1.77,1.13-3.67,1.76-5.8,1.6c-0.65-0.42-0.64-0.97-0.13-1.42
		c1.64-1.44,2.37-3.47,3.57-5.2c0.36-0.38,0.12-0.99,0.53-1.34c0.35-0.37,0.11-0.97,0.52-1.31c0.15-1.42,0.67-2.72,1.39-3.93
		c1.47-2.46,4.83-2.58,6.59-0.28c0.29,0.38,0.41,1.15,1.09,0.93c0.72-0.23,0.44-0.97,0.46-1.51c0.11-2.2,0.23-4.39,0.27-6.59
		c0.04-1.73,0.49-2.37,2.41-2.62c1.44-0.19,2.81,0.98,2.83,2.45c0.01,1.17,0.52,1.29,1.44,1.25c1.39-0.06,2.81,0.19,3.98-0.94
		c0.55-0.54,1.35-0.13,2.04-0.14c0.57,0.81,1.51,1.37,1.59,2.49c0.11,1.51-0.73,2.47-2.34,2.52c-1.8,0.05-3.6,0-5.4,0.02
		c-0.42,0-0.89-0.16-1.23,0.26c0.28,0.32,0.37,0.71,0.34,1.1c-0.11,1.2,0.51,1.48,1.59,1.45c0.81-0.02,1.53-0.35,2.31-0.41
		c0.74-0.36,1.2-1.62,2.33-0.74c1.24,0.95,1.6,2.22,1.25,3.46c-0.63,2.23-1.81,4.21-2.81,6.26c-2.31,3.99-5.22,7.49-8.61,10.6
		c-0.77,0.7-1.51,1.47-2.5,1.88c-0.1-0.11-0.15-0.23-0.14-0.38c0.21-0.75,0.89-1.06,1.42-1.51c5.13-4.38,8.89-9.75,11.53-15.93
		c0.34-0.8,0.44-1.63,0.25-2.46c-0.27-1.18-1.1-1.42-1.99-0.62c-0.86,0.79-4.11,1.19-5.14,0.64c-0.43-0.23-0.62-0.61-0.68-1.07
		c-0.06-0.44-0.05-0.88-0.05-1.32c0.03-1.76,0.34-2.09,2.09-2.11c1.68-0.02,3.35,0,5.03-0.01c0.78-0.01,1.54-0.1,1.78-1.02
		c0.21-0.81-0.08-1.47-0.73-1.98c-0.71-0.56-1.36-0.44-2.05,0.07c-1.62,1.2-3.46,0.75-5.24,0.6c-0.53-0.05-0.77-0.54-0.85-1.06
		c-0.06-0.35-0.04-0.71-0.13-1.05c-0.25-0.94-1-1.42-2.01-1.3c-0.94,0.11-1.45,0.6-1.41,1.57c0.1,2.25-0.42,4.48-0.28,6.73
		c0.02,0.31,0,0.62-0.05,0.92c-0.1,0.66-0.42,1.17-1.1,1.34c-0.62,0.15-1.12-0.09-1.52-0.57c-0.14-0.17-0.26-0.36-0.39-0.54
		c-0.9-1.18-2.15-1.5-3.54-1.34c-1.29,0.15-1.82,1.16-2.18,2.23c-0.77,2.34-1.23,4.77-2.5,6.94c-0.8,1.37-1.68,2.68-2.76,4.1
		c1.59-0.02,2.78-0.62,3.99-1.17C233.33,75.4,233.73,74.92,234.33,75.26z"/>
	<path class="st0" d="M196.43,53.72c0.32-1.52,0.65-3.47,1.14-5.38c0.29-1.12,1.85-1.83,3.02-1.56c1.23,0.28,2.21,1.45,2.07,2.69
		c-0.2,1.74-0.46,3.48-0.85,5.19c-0.35,1.57-1.72,2.47-3.1,2.24C197.35,56.67,196.41,55.55,196.43,53.72z"/>
	<path class="st0" d="M239.11,101.49c1.14-0.88,2.11-2.06,3.71-2.11c0.1,0.13,0.13,0.28,0.08,0.45c-0.3,0.49-0.86,0.59-1.32,0.83
		c-1.45,0.75-2.15,1.93-2.03,3.54c0.5,6.64,0.11,13.28,0.22,19.93c0.04,2.64,0.05,5.28-0.01,7.92c-0.04,1.55,0.62,2.79,1.35,4.06
		c0.52,0.92,1.49,0.8,2.25,1.18c-0.91,0.8-1.78,0.79-2.51-0.05c-0.22-0.26-0.44-0.52-0.66-0.78c0,0,0,0.01,0,0.01
		c-0.48-0.65-0.84-1.37-1.07-2.15c-0.36-1.29-0.31-2.6-0.32-3.92c-0.05-8.98-0.12-17.96-0.18-26.93
		C238.62,102.77,238.57,102.06,239.11,101.49z"/>
	<path class="st0" d="M241.49,85.59c0.01,0.1,0.01,0.2,0.02,0.31c-3.72,2.97-7.82,5.08-12.68,5.2c-1.2,0.03-2.17-0.66-2.54-1.95
		c-0.34-1.19-0.4-2.27,0.85-3c0.22-0.13,0.39-0.34,0.59-0.51c2.62-0.33,5.2-0.79,7.61-1.93c0.38-0.18,0.73-0.27,1.12-0.23
		c0.02,0.69-0.58,0.81-1.02,1.04c-1.81,0.96-3.83,1.27-5.8,1.69c-0.43,0.09-0.87,0.12-1.28,0.28c-1.18,0.45-1.56,1.14-1.28,2.37
		c0.21,0.93,0.97,1.46,2.11,1.36c3.02-0.25,5.9-0.94,8.46-2.66c0.95-0.64,2.01-1.09,2.89-1.83
		C240.8,85.52,241.13,85.33,241.49,85.59z"/>
	<path class="st0" d="M231.43,71.04c-0.52,2-1.75,3.56-3.09,5.06c-0.43,0.48-0.89,0.89-0.35,1.56c-0.78-0.09-1.11-0.79-0.66-1.17
		c1.72-1.44,2.26-3.68,3.77-5.24C231.19,71.16,231.32,71.11,231.43,71.04z"/>
	<path class="st0" d="M240.17,98.59c1.44-1.23,2.84-2.51,4.51-3.44C243.44,96.64,242.09,97.98,240.17,98.59z"/>
	<path class="st0" d="M239.13,134.33c0.48,0.66,0.83,1.37,1.07,2.15C239.47,135.94,239.03,135.27,239.13,134.33z"/>
	<path class="st0" d="M232.48,68.39c0,0.51,0.09,1.05-0.52,1.31C231.88,69.16,231.6,68.55,232.48,68.39z"/>
	<path class="st0" d="M265.35,75.81c-2.25,1.24-4.64,1.83-7.21,1.64c-0.36-0.03-0.91,0.17-0.96-0.41c-0.04-0.48,0.41-0.57,0.81-0.7
		c2.75-0.91,4.69-2.87,6.48-5.02c0.05-0.06,0.04-0.17,0.05-0.26c-1.29-1.95-3.31-2.97-5.26-4.09c-0.19-0.11-0.42-0.15-0.61-0.25
		c-0.24-0.13-0.51-0.31-0.48-0.58c0.05-0.37,0.41-0.4,0.73-0.41c1.73-0.04,3.43,0.09,5.04,0.81c0.36,0.16,0.73,0.3,1.09,0.45
		c2.38,0.98,3.5,0.68,4.96-1.39c0.4-0.57,0.84-1.13,1.15-1.77c0.43-0.88,0.15-1.45-0.83-1.54c-0.61-0.06-1.23,0.04-1.85,0.05
		c-2.73,0.06-5.47,0.07-8.2-0.07c-0.96-0.05-1.29-0.59-1.28-1.48c0.02-0.97,0.54-1.37,1.44-1.29c3.04,0.27,6.09,0.05,9.13,0.12
		c2.31,0.05,4.5-0.32,6.59-1.48c2.05-1.13,4.21,0.09,4.62,2.43c0.3,1.73-0.19,3.22-1.38,4.49c-1.79,1.9-3.77,3.58-5.78,5.23
		c-1.01,0.83-0.97,0.96,0.11,1.67c2.98,1.97,5.81,4.12,8.11,6.9c1.4,1.69,1.57,3.96,0.31,5.29c-1.35,1.43-4.21,1.58-5.82,0.32
		c-2.06-1.61-3.2-3.95-4.78-5.95c-0.85-1.07-1.72-2.11-2.54-3.2c-0.62-0.82-1.36-1.05-2.26-0.33
		C266.32,75.35,265.81,75.55,265.35,75.81z"/>
	<path class="st0" d="M265.35,75.81c2.49-2.13,3.05-1.55,4.45,0.24c1.65,2.12,3.17,4.33,4.86,6.42c1.1,1.35,2.17,2.73,4.28,2.67
		c1.57-0.05,2.8-0.51,3.54-1.84c0.81-1.46,0.29-2.93-0.67-4.07c-2.39-2.84-5.16-5.28-8.4-7.13c-1.1-0.63-1.16-1.06-0.18-1.82
		c2.06-1.59,4.07-3.24,5.83-5.16c1.2-1.31,1.99-2.81,1.43-4.68c-0.66-2.2-2.52-3.06-4.47-1.97c-1.87,1.04-3.85,1.46-5.94,1.42
		c-3.21-0.06-6.44,0.26-9.65-0.19c-0.67-0.09-1.2,0.17-1.22,1.02c-0.02,0.86,0.23,1.33,1.19,1.33c3.09-0.02,6.18-0.01,9.27,0
		c1.89,0.01,2.33,0.72,1.41,2.3c-0.38,0.64-0.81,1.26-1.29,1.83c-1.68,1.99-2.55,2.2-5.57,0.77c-1.89-0.89-3.78-1.03-6.08-0.87
		c1.24,0.73,2.29,1.28,3.27,1.95c1.21,0.83,2.59,1.5,3.11,3.05c-1.79-1.78-3.82-3.2-6.13-4.25c-1.2-0.55-1.16-0.72,0.11-1.58
		l-0.01-0.01c0.72,0.46,1.56,0.23,2.33,0.32c1.6,0.19,3.07,0.7,4.52,1.35c1.78,0.8,2.68,0.61,3.99-0.82
		c0.56-0.61,1.03-1.32,1.47-2.03c0.62-1.02,0.36-1.53-0.83-1.43c-2.12,0.17-4.23,0.17-6.35,0.15c-1.14-0.01-2.29-0.09-3.43-0.21
		c-1.04-0.11-1.57-0.77-1.48-1.82c0.08-1,0.62-1.44,1.67-1.43c3.18,0.05,6.36,0.04,9.54,0.05c2.18,0.01,4.25-0.35,6.21-1.47
		c2.17-1.23,4.69,0.33,4.89,2.81c0.16,1.93-0.38,3.49-1.81,4.85c-1.73,1.64-3.4,3.33-5.32,4.76c-0.78,0.58-0.95,0.96,0.04,1.6
		c2.96,1.92,5.8,4,8.03,6.8c1.44,1.8,1.64,4.27,0.33,5.65c-1.44,1.51-4.26,1.6-6.1,0.32c-1.81-1.26-2.69-3.23-4.01-4.86
		c-1.08-1.33-2.14-2.69-3.15-4.08c-0.68-0.93-1.35-1.33-2.39-0.47C266.31,75.57,265.91,75.95,265.35,75.81z"/>
	<path class="st0" d="M249.75,125.12c-1.02,1.09-2.56,1.23-3.75,2.01c-0.31,0.2-0.47-0.21-0.57-0.52c-0.29-0.84,0.06-1.66,0.01-2.49
		c-0.26-4.09-0.13-8.19-0.2-12.29c-0.02-1.21,0.33-1.62,1.56-1.61c6.31,0.05,12.62,0.06,18.92,0c1.34-0.01,1.52,0.6,1.49,1.7
		c-0.03,1.06,0.01,1.87-1.49,1.85c-5.34-0.07-10.67-0.03-16.01-0.02c-0.39,0-0.84-0.06-1.17,0.09c-0.78,0.36-1.28,1.02-1.11,1.9
		c0.16,0.83,0.8,1.18,1.67,1.17c5.29-0.01,10.59,0.03,15.88-0.03c1.15-0.01,1.95,0.34,2.53,1.29c-1.38-1.02-2.99-0.76-4.54-0.76
		c-4.94-0.01-9.89-0.01-14.83-0.01c-1.5-1.19-1.66-2.04-0.73-3.32c0.47-0.64,1.08-0.67,1.75-0.67c5.38,0,10.76-0.03,16.15,0.02
		c1.12,0.01,1.41-0.34,1.41-1.42c0-1.09-0.2-1.54-1.44-1.52c-5.95,0.07-11.91,0.05-17.87,0c-1.08-0.01-1.44,0.26-1.43,1.39
		c0.06,4.54,0.05,9.08,0.01,13.63c-0.01,1.08,0.24,1.24,1.14,0.62C247.9,125.61,248.76,125.17,249.75,125.12z"/>
	<path class="st0" d="M261.63,126.44c-1.7-1.49-3.41-2.97-5.09-4.5c-0.42-0.38-1.18-0.73-0.91-1.45c0.32-0.83,1.15-0.33,1.74-0.44
		c3.97,1.09,7.69,2.91,11.73,3.8c1.45,0.32,2.43-0.08,3.2-1.17c0.96-1.36,1.85-2.77,2.5-4.32c0.82-1.98,1.32-2.17,3.29-1.27
		c0.11,0.11,0.11,0.23,0.01,0.35c-0.19,0.13-0.42,0.17-0.63,0.12c-1.08-0.25-1.66,0.31-2.03,1.23c-0.57,1.45-1.44,2.73-2.33,3.99
		c-1.4,1.97-2.41,2.32-4.75,1.75c-2.75-0.67-5.37-1.75-8.03-2.68c-1.03-0.36-2.03-0.84-3.18-0.79c-0.08,0.5,0.32,0.62,0.56,0.83
		c2.45,2.16,4.9,4.32,7.47,6.34c0.4,0.31,0.93,0.57,0.81,1.24c-0.04,0.05-0.09,0.1-0.13,0.15
		C264.28,128.79,263.12,127.41,261.63,126.44z"/>
	<path class="st0" d="M278.07,117.42c0.01-0.1,0.02-0.21,0.03-0.31c3.41,2.04,3.17,5.53-0.56,7.7c-0.75,0.44-1.58,0.74-2.39,1.06
		c-0.27,0.11-0.53,0.21-0.55,0.49c-0.03,0.41,0.35,0.27,0.57,0.33c1.29,0.4,2.58,0.81,3.72,1.58c0.48,0.32,0.94,0.66,1.11,1.25
		c-0.05,0.05-0.1,0.09-0.14,0.14c-1.87-0.95-3.73-1.92-5.77-2.51c-0.77-0.22-0.79-0.99-0.12-1.54c0.45-0.37,1.03-0.5,1.54-0.74
		c0.6-0.28,1.21-0.53,1.76-0.9c2.66-1.74,2.96-3.44,1.02-5.97C278.14,117.83,278,117.67,278.07,117.42z"/>
	<path class="st0" d="M279.99,129.52c1.4,0.84,1.22,2.33,1.14,3.54c-0.18,3.06-1.91,3.83-5.02,2.8c-3.53-1.17-6.41-3.37-9.41-5.39
		c-0.32-0.22-0.56-0.55-0.84-0.83c0,0,0.06-0.1,0.06-0.1c0.72-0.41,1.15,0.16,1.61,0.52c2.64,2.07,5.4,3.93,8.6,5.04
		c1.21,0.42,2.52,1.03,3.57-0.11c1.07-1.15,0.72-2.63,0.45-4.01c-0.09-0.45-0.57-0.82-0.26-1.35
		C279.93,129.59,279.96,129.56,279.99,129.52z"/>
	<path class="st0" d="M260.07,98.34c-0.18-0.79,0.64-1.38,0.35-2.27c-0.44-1.33-1.1-2.31-2.44-2.85c-1.56-0.63-3.16-1.03-4.85-0.97
		c-0.3,0.01-0.97,0.01-0.55,0.5c1.34,1.57,1.79,3.53,2.58,5.35c0.03,0.08,0.08,0.16,0.12,0.23c-0.09,0.15-0.2,0.15-0.31,0.02
		c-0.47-0.24-0.42-0.72-0.56-1.13c-0.5-1.5-1.06-2.96-2.18-4.13c-0.28-0.29-0.54-0.62-0.34-1.05c0.22-0.47,0.68-0.3,1.06-0.32
		c1.79-0.08,3.48,0.34,5.11,1.05c1.95,0.85,2.86,2.35,2.78,4.47C260.54,97.58,260.6,98.17,260.07,98.34z"/>
	<path class="st0" d="M251.04,129.59c0.61-1.47,2.04-2.22,2.99-3.4c0.34-0.42,1.13-0.72,0.88-1.32c-0.25-0.62-1.01-0.24-1.55-0.29
		c-0.79-0.08-1.53,0.39-2.33,0.23c1.07-0.91,2.36-0.86,3.61-0.73c0.84,0.09,1.16,0.76,0.55,1.41
		C253.87,126.92,252.61,128.42,251.04,129.59z"/>
	<path class="st0" d="M58.41,116.74c-0.05-1.3-0.42-2.45-1.69-2.86c-1.16-0.38-2.44-0.51-3.46,0.53c-1.06,1.08-2.36,1.38-3.85,1.38
		c-9.27-0.02-18.55-0.01-27.82,0.04c-1.59,0.01-3-0.07-4.15-1.44c-0.89-1.06-2.33-0.94-3.47-0.55c-1.11,0.38-1.46,1.49-1.53,2.7
		c-0.31,5.6-0.12,11.21-0.15,16.81c-0.01,2.29,0.93,3.16,3.25,3.16c6.58,0,13.16,0,19.74,0c6.54,0,13.07,0,19.61,0
		c2.76,0,3.66-0.85,3.67-3.62C58.57,127.51,58.62,122.12,58.41,116.74z M48.14,132.85c-4.63-0.06-9.27-0.03-13.9-0.03
		c-4.59,0-9.18-0.04-13.77,0.03c-1.25,0.02-1.6-0.41-1.57-1.6c0.06-3.26,0.05-6.53,0-9.79c-0.02-1.2,0.28-1.73,1.64-1.72
		c9.22,0.06,18.45,0.05,27.67,0c1.26-0.01,1.7,0.36,1.67,1.65c-0.08,3.26-0.1,6.53,0.01,9.79C49.93,132.6,49.41,132.87,48.14,132.85
		z"/>
	<path class="st0" d="M52.6,90.07c-0.04-0.81-0.29-1.52-0.97-1.92c-1.66-0.96-4.98-0.7-5.92,0.67c-0.58,0.84-1.45,1.03-2.44,1.02
		c-5.48-0.03-10.95-0.03-16.43,0c-1.18,0.01-2.05-0.32-2.89-1.25c-1.01-1.13-2.45-1.27-3.91-0.86c-1.34,0.38-1.66,1.43-1.75,2.66
		c-0.37,5.2-0.18,10.41-0.18,15.62c0,1.64,1.16,2.68,2.81,2.68c4.81,0.02,9.63,0.01,14.44,0.01c4.86,0,9.72,0.01,14.58,0
		c1.59,0,2.61-0.86,2.61-2.34C52.54,100.93,52.89,95.5,52.6,90.07z M43.51,104.75c-2.96-0.08-5.92-0.03-8.87-0.03
		c-2.91,0-5.83-0.03-8.74,0.02c-0.91,0.01-1.26-0.25-1.24-1.19c0.05-2.69,0.04-5.39,0-8.08c-0.01-0.88,0.33-1.13,1.17-1.12
		c5.96,0.03,11.92,0.03,17.88,0c1.03-0.01,1.4,0.34,1.38,1.38c-0.06,2.47-0.07,4.94,0,7.41C45.12,104.33,44.76,104.78,43.51,104.75z
		"/>
	<path class="st0" d="M160.42,78.48c0.75-0.28,1.53-0.32,2.33-0.32c7.01,0.01,14.03,0,21.04,0.01c2.23,0,3.33,1.08,3.35,3.3
		c0.02,2.78,0.02,5.56,0,8.33c-0.01,1.8-0.98,2.94-2.48,2.99c-1.54,0.05-2.69-1.13-2.74-2.91c-0.05-1.67-0.07-3.35,0.01-5.03
		c0.05-1.19-0.33-1.62-1.58-1.61c-5.87,0.06-11.73,0.01-17.6,0.04c-1.3,0.01-2.51-0.11-3.14-1.44
		C158.98,80.53,159.6,79.47,160.42,78.48C160.41,78.48,160.42,78.48,160.42,78.48z"/>
	<path class="st0" d="M107.38,66.01c0.06,0.11,0.14,0.22,0.19,0.34c0.25,0.62,1.27,1.05,0.93,1.68c-0.37,0.69-1.25-0.09-1.9,0.07
		c-1.25-0.42-2.45-0.97-3.57-1.63c-2.61-1.55-3.71-4-3.83-6.91c-0.05-1.18,0.55-2.09,1.82-2.42c1.24-0.33,2.24-0.06,3.05,0.96
		c0.99,1.25,1.22,2.8,1.64,4.25C106.1,63.67,106.75,64.82,107.38,66.01z"/>
	<path class="st0" d="M254.96,98.35c0.1-0.01,0.2-0.01,0.31-0.02c0.03,0.38,0.16,0.78-0.21,1.08c-3.92,0.16-7.84,0.24-11.76-0.04
		c0.8-0.41,1.65-0.19,2.47-0.2c2.74-0.04,5.48-0.02,8.21-0.03C254.51,99.13,255.12,99.22,254.96,98.35z"/>
	<path class="st0" d="M243.3,99.36c3.92,0.01,7.84,0.03,11.76,0.04c-0.42,0.35-0.93,0.22-1.4,0.22c-3.61,0.02-7.22,0.03-10.83,0.04
		c0-0.1,0-0.2-0.01-0.3C242.98,99.37,243.14,99.37,243.3,99.36z"/>
	<path class="st0" d="M241.49,85.59c-2.37,1.51-4.68,3.1-7.35,4.07c-1.76,0.64-3.61,0.79-5.44,0.92c-1.02,0.07-1.79-0.5-2.01-1.54
		c-0.34-1.6-0.03-2.22,1.23-2.76c1.27-0.54,2.65-0.56,3.97-0.91c1.61-0.43,3.22-0.83,4.57-1.89c0,0,0,0,0,0
		c0.88-0.53,1.79-1.01,2.65-1.59c0.86-0.59,1.73-1.16,2.58-2.06c-0.75-0.08-1.35-0.1-1.93-0.22c-1.46-0.3-2.04-1.27-1.46-2.63
		c0.5-1.18,0.45-2.3,0.06-3.47c-0.12-0.37-0.2-0.77-0.24-1.16c-0.09-0.98,0.44-1.26,1.2-0.8c1.96,1.2,3.86,2.49,4.63,4.86
		c0.1,0.3,0.05,0.79,0.51,0.83c0.32,0.03,0.5-0.32,0.69-0.55c1.66-2.01,2.99-4.24,4.2-6.55c0.46-0.88,0.22-1.22-0.72-1.22
		c-2.78,0.01-5.56,0.02-8.34,0.03c-0.98,0-1.62,0.49-2.12,1.32c-1.08,1.81-2.13,3.66-3.85,4.98c-1.53,0.74-3,1.62-4.72,1.9
		c-0.42,0.07-0.94,0.43-1.23,0.03c-0.34-0.46,0.24-0.76,0.5-1.08c2.21-2.68,3.75-5.67,4.44-9.1c0.15-0.76,0.43-1.53,0.8-2.21
		c1.25-2.3,4.89-2.31,6.16-0.01c0.35,0.63,0.71,1.03,1.4,0.88c0.73-0.16,0.86-0.76,0.88-1.44c0.06-2.47,0.16-4.93,0.24-7.4
		c0.04-1.39,0.46-1.8,1.95-1.9c1.25-0.08,2.08,0.56,2.25,1.74c0.28,1.92,0.28,1.91,2.2,1.92c1.41,0.01,2.8,0.13,3.93-1.08
		c0.56-0.6,1.32-0.2,1.92,0.23c0.88,0.63,1.27,1.47,1.01,2.52c-0.19,0.74-0.7,1.22-1.52,1.23c-2.03,0.02-4.06,0.05-6.09,0
		c-1-0.02-1.43,0.29-1.44,1.35c-0.04,2.67-0.08,2.65,2.64,2.66c1.2,0,2.4,0.1,3.07-1.25c0.18-0.37,0.65-0.55,1.04-0.33
		c0.61,0.36,1.15,0.81,1.28,1.59c0.21,1.32-0.21,2.52-0.76,3.67c-3.03,6.31-6.99,11.9-12.63,16.18
		C241.58,85.43,241.54,85.52,241.49,85.59z"/>
	<path class="st0" d="M239.11,81.9c-0.72,0.8-1.6,1.34-2.65,1.59C237.19,82.71,238.07,82.17,239.11,81.9z"/>
	<path class="st0" d="M273.34,101.88c-0.02-1.93-3.66-4.54-5.29-3.58c-2.38,1.39-4.85,0.92-7.32,1.07c-0.93,0.06-0.9-0.38-0.66-1.01
		c0.81-1.96,0.66-3.44-0.68-4.48c-1.87-1.44-4.08-1.95-6.42-1.87c-0.74,0.02-0.95,0.43-0.47,1.04c0.82,1.03,1.39,2.18,1.85,3.41
		c0.24,0.64,0.17,1.42,0.77,1.91c0.07,0.46,0.08,0.89-0.52,1.02c-3.28,0.06-6.57,0.01-9.85,0.03c-0.65,0-1.31-0.04-1.92,0.28
		c-0.15,0.08-0.29,0.2-0.45,0.24c-2.3,0.65-3.33,1.97-3.24,4.28c0.04,1.09,0.23,2.18,0.23,3.28c-0.02,8.2,0.04,16.4-0.04,24.6
		c-0.01,1.66,0.67,2.96,1.41,4.28c0.57,1.02,1.44,1.48,2.62,0.93c2.96-2.16,5.07-5.17,7.67-7.69c1.07-1.33,2.37-2.44,3.54-3.68
		c0.33-0.34,0.77-0.68,0.54-1.23c-0.22-0.5-0.74-0.35-1.16-0.39c-1.03-0.1-1.97,0.23-2.93,0.51c-0.43,0.1-0.85,0.21-1.28,0.31
		c-0.89,0.58-1.96,0.77-2.86,1.35c-0.86,0.55-1.27,0.33-1.25-0.72c0.09-4.63-0.13-9.25-0.04-13.87c0.03-1.43,0.06-1.48,1.5-1.48
		c6.13,0,12.26,0,18.4,0c1.43,0,1.43,0.01,1.44,1.51c0.01,1.64-0.01,1.67-1.41,1.67c-5.25,0-10.5,0-15.75,0
		c-0.35,0-0.71-0.03-1.06,0.02c-0.93,0.12-1.35,0.84-1.58,1.59c-0.24,0.78,0.27,1.35,0.87,1.77c0.42,0.3,0.94,0.19,1.42,0.19
		c4.94,0.01,9.88,0.04,14.82-0.02c1.25-0.01,2.35,0.13,3.24,1.07c1.38,0.44,2.78,0.42,4.16,0.03c1.03-0.29,1.68-0.95,1.68-2.08
		C273.35,111.38,273.38,106.63,273.34,101.88z M265.34,106.29c-3.04-0.11-6.08-0.03-9.12-0.03c0,0,0,0,0,0.01
		c-3.08,0-6.17-0.08-9.25,0.03c-1.65,0.06-1.44-0.92-1.5-1.96c-0.07-1.16,0.24-1.62,1.53-1.6c6.12,0.07,12.25,0.08,18.38,0.01
		c1.38-0.02,1.6,0.54,1.6,1.72C266.97,105.66,266.82,106.34,265.34,106.29z"/>
	<path class="st0" d="M279.9,129.62c0.74,1.11,0.89,2.34,0.83,3.64c-0.1,2.18-1.59,3.22-3.69,2.55c-3.68-1.18-6.87-3.22-9.87-5.6
		c-0.38-0.3-0.72-0.65-1.24-0.68c-0.68-1.18-1.95-1.72-2.91-2.6c-1.97-1.81-4.07-3.47-6.12-5.2c-0.26-0.22-0.64-0.46-0.47-0.86
		c0.21-0.49,0.69-0.29,1.05-0.22c2.54,0.53,4.9,1.6,7.33,2.46c1.58,0.56,3.19,0.98,4.8,1.38c1.44,0.35,2.35-0.63,3.06-1.62
		c0.92-1.28,1.79-2.58,2.41-4.07c0.78-1.89,1.05-1.94,3-1.38c2.66,2.18,2.53,4.73-0.32,6.67c-0.99,0.67-2.07,1.14-3.19,1.53
		c-0.48,0.16-0.83,0.42-0.8,0.9c0.03,0.46,0.52,0.33,0.84,0.44C276.48,127.61,278.43,128.14,279.9,129.62z"/>
</g>
<g>
	<g>
		<path class="st0" d="M190.89,25.01c-1.13,0.13-6.91,1.88-8.04,1.38c-1.13-0.5-3.02-0.75-3.02-0.75c0.13,0.75-0.38,1.89-0.5,2.51
			c-0.13,0.63-0.5,3.9-0.25,4.52c0.25,0.63,2.26,2.14,2.26,2.14l1.01-1.13c0,0,1.92,1.16,2.89,0.84c0.2-0.07,0.12-0.1,0.88-0.34
			c0.99-0.32,2.26-0.38,2.89,0c0.63,0.38,2.39,0.75,3.39,0.63c1.01-0.13,1.76-2.14,1.76-2.14s-1.26-0.25-1.51-1.38
			c-0.25-1.13,1.63-2.14,2.51-2.77c0.88-0.63,0.77-1.5,0.13-2.14C195.04,26.15,192.02,24.89,190.89,25.01z M188.19,31.68
			c-1.51,0.63-4.96,0.88-5.28,0.63c-0.31-0.25-0.82-2.14,0.25-3.52c0,0,2.45-0.19,2.95-0.63c0.5-0.44,2.01-0.5,2.51-0.31
			C189.13,28.03,189.7,31.05,188.19,31.68z"/>
		<path class="st0" d="M187.88,22.63c1.26,0.13,4.02,0.75,4.65,0.38c0.63-0.38,0-1.26-0.5-2.26c-0.5-1.01-2.51-1.01-4.27-0.5
			c-1.76,0.5-2.77,0.12-4.15,0.5c-1.38,0.38-2.14,2.51-2.14,2.51c0.88,0.88,1.63,0.13,2.64,0C185.11,23.13,186.62,22.5,187.88,22.63
			z"/>
		<path class="st0" d="M204.97,21.12c-1.88-0.5-2.76,0.13-5.03-1.38c-1.34-0.9-4.69-2.63-7.67-9.55c-0.12-0.28,3.14-3.27,3.02-4.78
			c-0.13-1.51-2.39-1.13-3.27-0.5c-0.88,0.63-2.01,0.38-2.01,0.38s-1.88,3.39-2.76,3.39c-0.25,0-6.28,8.8-6.28,8.8
			s-1.38,1.76-0.75,2.64c0.63,0.88,2.64,0.13,3.14-0.63c0.5-0.75,4.27-5.91,4.78-5.91c0.5,0,2.01,0,2.64,1.38
			c0.63,1.38,1.38,2.89,2.01,3.77c0.63,0.88,1.76,1.63,2.26,2.51c0.5,0.88,2.76,3.14,6.41,2.01c0.81-0.24,1.26,0.13,1.76,0.13
			c0.5,0,2.14-0.13,2.14-0.13S206.85,21.62,204.97,21.12z"/>
		<path class="st0" d="M179.46,21.24c-0.63,0.63-1.88,0.63-2.01-0.25c-0.13-0.88,1.76-2.77,2.14-3.39c0.38-0.63-1.51-2.26-2.51-2.01
			c-1.01,0.25-3.39,1.76-4.15,1.76c-0.75,0-1.01-0.5-2.01-1.26c-1.01-0.75-1.76,0.88-1.76,0.88s-0.38,4.4-0.5,5.15
			c-0.13,0.75-1.89,1.51-1.01,2.77c0.88,1.26,2.64,3.02,3.02,2.51c0.38-0.5,1.51-0.13,1.89-0.63c0.38-0.5,1.38-0.63,2.26-0.75
			c0.88-0.13,1.89-2.26,2.51-2.39c0.63-0.13,1.88-1.01,2.51-1.38C180.46,21.87,180.08,20.62,179.46,21.24z M172.92,23
			c-1.51,0.75-1.63,0-1.89-0.75c-0.25-0.75,0.63-1.76,0.63-1.76s1.38-1.76,2.51-1.13C175.31,19.99,174.43,22.25,172.92,23z"/>
	</g>
	<g>
		<path class="st0" d="M152.94,30.54c-1.01-0.88,0.88-2.89,1.38-3.52c0.5-0.63,0.13-1.76,0.13-1.76l-4.15-2.39
			c0,0-1.89,1.51-3.27,1.63c-3.01,0.28-6.16,1.26-6.16,1.26l-2.14-0.75c-0.75,0-1,1.26-1,2.51c0,1.26,0.88,1.26,0.88,2.14
			s0,2.89,0.38,3.52c0.38,0.63,1.63,0.88,2.51,0.5c0.88-0.38,0.75-1.38,1.26-1.38c0.5,0,0.63,1.01,1.63,1.01
			c1.01,0,2.26-1.01,3.27-1.26c1-0.25,2.14,0.5,1.63,1.13c-0.5,0.63-3.02,1.89-2.51,2.51c0.5,0.63,3.27-0.63,4.15-1.26
			c0.88-0.63,2.77-0.5,3.9-0.75c1.13-0.25,0.63-1.76,0.5-2.39C155.2,30.67,153.94,31.42,152.94,30.54z M148.79,27.91
			c-0.53,1.06-1.5,3.2-5.78,2.76c-1.26-0.13-0.88-1-0.88-1l0.25-2.14c0,0,3.2-0.43,4.15-1.38
			C146.65,26.02,149.67,26.15,148.79,27.91z"/>
		<path class="st0" d="M145.02,22.12c0,0,1.13-0.75,3.39-0.75c2.26,0,2.89-0.75,3.02-1.26c0.13-0.5-0.75-0.88-1.13-1.38
			c-0.38-0.5-0.75-1-1.89-0.75c-1.13,0.25-2.01,1.26-3.64,1.38c-1.63,0.12-3.52,0.38-3.52,0.38s-2.51,1.76-0.5,2.64
			C142.76,23.25,145.02,22.12,145.02,22.12z"/>
		<path class="st0" d="M163.62,19.61c-1.51-0.5-0.88-0.75-2.39-1.01c-1.51-0.25-3.52-1.76-4.02-2.14c-0.5-0.38-1.69-1.29-2.57-1.8
			c-0.88-0.5-0.52-1.05-2.08-2.35c-1.52-1.27-2.51-3.64-2.51-4.4c0-0.75,0.75-3.52,0.75-4.78c0-1.26-1.51-1.63-2.14-1.51
			c-0.63,0.13-1.13,1.89-1.13,1.89s-1.26,0.5-1.89,0.88c-0.63,0.38-1.51,4.15-2.01,4.52c-0.5,0.38-4.4,6.79-5.4,6.91
			c-1.01,0.13-1.76-1.26-2.76-1.38c-1.01-0.13-4.52,2.39-5.15,2.39c-0.63,0-1.13-1.13-1.89-0.75c-0.75,0.38-2.26,2.14-2.26,2.14
			c1.01,0.75-0.5,6.66-0.5,6.66s2.64,2.76,3.64,2.64c1.01-0.13,1.38-2.77,1.38-2.77s0.88-0.63,1.38-0.75
			c0.5-0.13,1.51-1.13,1.63-0.63c0.13,0.5-0.63,1.01-0.75,2.01c-0.13,1,0.5,0.88,0.5,0.88l3.77-3.39c0,0,1.76-0.75,1.26-1.13
			c-0.5-0.38-0.88,0-1.76-0.75c-0.88-0.75,0.5-2.64,1.01-2.39c0.5,0.25,1.13,0.38,1.89,0.25c0.75-0.13,1.26-1.38,1.76-1.51
			c0.5-0.13,1.13-0.75,2.01-1.38c0.88-0.63,1.13-2.77,1.51-3.52c0.38-0.75,1.26-1.51,1.89-1.51c0.63,0,1.63,0.63,1.76,1.76
			c0.13,1.13,2.01,4.27,2.51,5.03c0.5,0.75,1.51,1.26,2.01,1.38c0.5,0.13,0.38,1.01,1.01,1.51c0.63,0.5,2.01,0.5,2.26,0.75
			c1,1.01,2.76,0.13,2.76,0.13s1.73,0.88,3.9,0.88c1.01,0,1.51-0.63,1.51-0.63s0.38-0.13,1.51-0.13c1.13,0,0.75,0,0.5-0.5
			C166.26,20.62,165.13,20.11,163.62,19.61z M132.83,20.74c-0.5,0.5-0.5,0.5-0.5,0.5s-0.13,1.38-1.76,1.51
			c-1.63,0.13-0.75-2.76-0.75-2.76s1.01-0.38,1.51-0.38c0.5,0,1.26-0.75,1.26-0.75S133.33,20.24,132.83,20.74z"/>
	</g>
	<path class="st0" d="M121.52,30.17c-0.75,0-2.14,0.38-2.77-0.13c-0.63-0.5-1.38,0-1.38,0s-2.39,1.38-3.02,2.01
		c-0.63,0.63-4.4,1.01-5.03,0.88c-0.63-0.13-0.75-0.75-0.13-1.01c0.63-0.25,3.02-2.01,3.77-2.51c0.75-0.5,2.51-2.39,2.51-2.39
		s0.38,0,1.38-0.13c1.01-0.13,2.26-1.38,2.26-1.38s0.75-1.38,0.13-1.63c-0.63-0.25-1.51-1.51-2.01-1.26
		c-0.5,0.25-2.39,1.63-2.77,0.5c-0.38-1.13,1.01-1.51,2.01-2.26c1.01-0.75,3.39-0.63,3.39-0.63s0.5-0.63,0.13-1.13
		c-0.38-0.5-1.89-2.01-1.89-2.01s-0.88,0.63-1.76,0.13c-0.88-0.5-0.63-0.38-0.38-1.13c0.25-0.75,1.51-1.89,2.39-2.39
		c0.88-0.5,3.64,0.25,4.4,0c0.75-0.25,1.51-1.76,0.75-2.26c-0.75-0.5-1.76-0.13-1.76-0.13s-0.88-0.5-1.38-1.13
		c-0.5-0.63-0.63-0.5-1.26-0.63c-0.63-0.13-0.63-1.01-0.63-1.01s0.63-1.63,1-2.51c0.38-0.88,0.38-1.38-0.13-2.39
		c-0.5-1.01-5.03-3.77-5.78-3.65c-0.75,0.13-0.88,2.14-0.88,2.77c0,0.63,0.75,2.64,0.75,2.64s-0.5,2.14-0.5,3.27
		c0,1.13-0.75,3.52-1.51,3.9c-0.75,0.38-4.15,1.13-4.78,1.26c-0.63,0.13-2.39,1.51-2.39,1.51l-1.13,0.25c0,0-0.12-2.14,0-2.77
		c0.13-0.63-0.25-1.26-0.75-1.88c-0.5-0.63-4.4-2.26-4.4-2.26s0.12,3.39,0.12,6.03c0,2.64-1.38,3.9-1.89,4.4
		c-0.5,0.5-1.89,0.88-2.39,0.88c-0.5,0-1.13-0.63-1.13-0.63s-1.26-2.51-1.13-3.77c0.13-1.26-1.38-2.89-1.38-2.89l-0.88,0.25
		c0,0,0.13,2.26-0.25,4.4c-0.38,2.14,0.5,2.51,0.5,3.39c0,0.88-0.25,1.38-1,1.51c-0.75,0.13-4.52,1.89-5.78,3.64
		c-1.26,1.76-0.5,3.27,0.75,3.52c1.26,0.25,5.28,0.25,5.28,0.25s0.75,0.75,1.26,0.63c0.5-0.13,1.63,0,1.63,0s0.38,0.5,0.88,0.5
		c0.5,0,0.63-0.13,1.51-0.13c0.88,0,1.51,1.89,1.51,1.89s0.63,0,1.51-0.63c0.88-0.63-0.2-4.24,0-4.4c3.77-2.92,4.27-9.17,4.4-9.3
		c1.01-1,6.54-2.51,6.54-2.51s2.26-0.75,3.52-0.25c1.26,0.5,0.75,1.51,0,2.89c-0.75,1.38-2.51,1.26-2.51,1.26l-1.13,1.26
		c0,0-1.01,0.13-1.76,0c-0.75-0.12-1.63,0.63-1.63,0.63s-0.25,0.38,0.38,1.38c0.63,1,1.51,1,2.26,0.88
		c0.75-0.13,1.63-0.88,2.51-1.13c0.88-0.25,0.88-1.51,1.38,0.13c0.5,1.63-0.63,2.14-1.13,2.64c-0.5,0.5-2.77,0.13-3.65-0.13
		c-0.88-0.25-1.76,2.26-1.76,2.26s1.01,1.51,2.01,2.01c1,0.5,1.51-0.75,1.51-0.75s0.75-1.26,1.13-0.13
		c0.38,1.13-1.38,2.89-1.88,3.02c-0.5,0.12-1.26,0.38-1.26,0.38s-1.63-0.5-2.01,0.38c-0.38,0.88-1.01,2.89-0.25,3.65
		c0.75,0.75,1.26-0.25,2.14,0.25c0.88,0.5,1.38,0.75,2.39,0.63c1.01-0.12,1.51-1.13,1.51-1.13s0.75,0.5,1.38-0.38
		c0.63-0.88,4.02-1.63,4.02-1.63s1.38-1.01,1.38,0c0,1-0.88,1.63-1.63,2.01c-0.75,0.38-1.01,1.51-1.01,1.51s2.89-0.63,3.77-0.63
		c0.88,0,2.89,0.25,2.89,0.25s3.39-2.64,3.9-3.39c0.5-0.75-0.63-2.64-0.63-2.64S122.27,30.17,121.52,30.17z M89.84,28.91
		c-1.26-0.13-2.77-0.63-3.27-1.76c-0.5-1.13,2.51-3.14,3.14-3.64c0,0,1.13-0.25,1.13,0.75c0,1.01,0.63,3.77,0.63,3.77
		S91.1,29.04,89.84,28.91z M95.75,24.13c-0.75,0.25-1.01,0.25-1.63-0.75c-0.63-1,0.13-2.01,0.13-2.01s1.51-1.51,2.26-1.13
		C97.26,20.62,96.51,23.88,95.75,24.13z"/>
	<path class="st0" d="M206.9,7.47c0.37,0.19,0.66,0.47,0.9,0.85c0.23,0.38,0.35,0.79,0.35,1.24c0,0.65-0.23,1.21-0.69,1.67
		c-0.46,0.46-1.02,0.69-1.66,0.69c-0.65,0-1.2-0.23-1.67-0.69c-0.46-0.46-0.69-1.02-0.69-1.67c0-0.63,0.22-1.18,0.67-1.66
		c0.45-0.48,1.03-0.71,1.75-0.71C206.19,7.19,206.54,7.28,206.9,7.47z M204.44,6.94c-0.46,0.22-0.83,0.56-1.14,1.04
		c-0.3,0.48-0.45,1-0.45,1.57c0,0.81,0.29,1.5,0.86,2.08c0.57,0.58,1.26,0.86,2.08,0.86c0.81,0,1.5-0.29,2.07-0.86
		c0.57-0.58,0.86-1.27,0.86-2.08c0-0.79-0.28-1.48-0.85-2.06c-0.57-0.58-1.29-0.88-2.16-0.88C205.32,6.62,204.89,6.73,204.44,6.94z
		 M205.12,11.13V9.85h0.17c0.19,0,0.35,0.05,0.47,0.16c0.12,0.11,0.26,0.31,0.41,0.61l0.26,0.5h0.78l-0.37-0.63
		c-0.16-0.28-0.28-0.46-0.36-0.54c-0.08-0.08-0.18-0.15-0.31-0.2c0.28-0.05,0.49-0.15,0.63-0.3c0.14-0.15,0.21-0.34,0.21-0.58
		c0-0.25-0.08-0.46-0.25-0.63c-0.17-0.17-0.43-0.26-0.8-0.26h-1.48v3.12H205.12z M205.12,8.5h0.58c0.22,0,0.38,0.04,0.49,0.11
		c0.11,0.07,0.16,0.18,0.16,0.32c0,0.15-0.05,0.27-0.16,0.34c-0.11,0.07-0.29,0.1-0.55,0.1h-0.51V8.5z"/>
</g>
<rect x="27.54" y="203.75" class="st1" width="196.93" height="31.04"/>
<text transform="matrix(1 0 0 1 27.5409 227.5512)" class="st0 st2 st3">香草冰淇淋口味</text>
</svg>
