<?xml version="1.0" encoding="utf-8"?>
<svg version="1.1" xmlns:xlink="http://www.w3.org/1999/xlink" width="355px" height="700px" xmlns="http://www.w3.org/2000/svg">
  <g transform="matrix(1 0 0 1 -577 -828 )">
    <path d="M 5 49  C 3.66438363531233 49  2.33103505709369 49.0083152170528  1 49.0246556028496  L 1 0.0214128806427425  C 2.33102540141022 0.00714943615969332  3.66453777759239 0  5 0  C 201 0  355 154  355 350  C 355 546  201 700  5 700  C 3.66453777759239 700  2.33102540141022 699.99285056384  1 699.978586978056  L 1 650.975102266777  C 2.3310350570946 650.991684782947  3.66438363531279 651  5 651  C 173.56 651  306 518.56  306 350  C 306 181.44  173.56 49  5 49  Z " fill-rule="nonzero" fill="#434f57" stroke="none" transform="matrix(1 0 0 1 577 828 )" />
  </g>
</svg>